PretendardBase.glyphspackage
{
color = (204,240,242,1);
glyphname = dollar;
kernLeft = S;
kernRight = S;
layers = (
{
layerId = "B1F27B51-9973-4381-9301-4FE46FE1CA59";
shapes = (
{
closed = 1;
nodes = (
(864,-256,l),
(864,2304,l),
(800,2304,l),
(800,-256,l)
);
},
{
alignment = -1;
ref = S;
}
);
width = 1660;
},
{
layerId = "C698F293-3EC0-4A5A-A3A0-0FDB1F5CF265";
shapes = (
{
closed = 1;
nodes = (
(958,-256,l),
(958,2304,l),
(794,2304,l),
(794,-256,l)
);
},
{
ref = S;
}
);
width = 1752;
},
{
guides = (
{
pos = (-148,2280);
},
{
pos = (-148,764);
}
);
layerId = "5C20EF92-B63D-42A8-8878-93C2863E0093";
shapes = (
{
closed = 1;
nodes = (
(1044,-256,l),
(1044,2304,l),
(880,2304,l),
(880,-256,l)
);
},
{
ref = S;
}
);
width = 1876;
}
);
metricLeft = S;
metricRight = S;
unicode = 36;
userData = {
"interface.width-adjustments" = (
-16
);
};
}
{
color = (204,240,242,1);
glyphname = plus;
kernLeft = hyphen;
kernRight = hyphen;
layers = (
{
guides = (
{
pos = (132,1384);
}
);
layerId = "B1F27B51-9973-4381-9301-4FE46FE1CA59";
shapes = (
{
closed = 1;
nodes = (
(896,220,l),
(896,1380,l),
(832,1380,l),
(832,220,l)
);
},
{
closed = 1;
nodes = (
(1444,768,l),
(1444,832,l),
(284,832,l),
(284,768,l)
);
}
);
width = 1728;
},
{
background = {
shapes = (
{
pos = (108,0);
ref = e;
}
);
};
guides = (
{
pos = (224,800);
}
);
layerId = "C698F293-3EC0-4A5A-A3A0-0FDB1F5CF265";
shapes = (
{
closed = 1;
nodes = (
(1018,140,l),
(1018,1460,l),
(794,1460,l),
(794,140,l)
);
},
{
closed = 1;
nodes = (
(1566,688,l),
(1566,912,l),
(246,912,l),
(246,688,l)
);
}
);
width = 1812;
},
{
guides = (
{
orientation = center;
pos = (260,832);
}
);
layerId = "5C20EF92-B63D-42A8-8878-93C2863E0093";
shapes = (
{
closed = 1;
nodes = (
(1200,92,l),
(1200,1572,l),
(752,1572,l),
(752,92,l)
);
},
{
closed = 1;
nodes = (
(1716,608,l),
(1716,1056,l),
(236,1056,l),
(236,608,l)
);
}
);
width = 1952;
}
);
unicode = 43;
userData = {
com.typemytype.robofont.guideline.magnetic.vWa5hxe2x0 = 5;
"interface.width-adjustments" = (
-16
);
};
}
{
glyphname = comma;
kernLeft = comma;
kernRight = comma;
layers = (
{
background = {
shapes = (
{
ref = period;
}
);
};
layerId = "B1F27B51-9973-4381-9301-4FE46FE1CA59";
shapes = (
{
alignment = -1;
pos = (60,-1920);
ref = quoteright;
}
);
width = 660;
},
{
associatedMasterId = "B1F27B51-9973-4381-9301-4FE46FE1CA59";
layerId = "F583B1AD-9EFA-4403-8440-9449E33DEF9D";
name = "May 22, 21 14:57";
shapes = (
{
alignment = -1;
pos = (10,-1920);
ref = quoteright;
}
);
width = 660;
},
{
background = {
shapes = (
{
ref = period;
}
);
};
layerId = "C698F293-3EC0-4A5A-A3A0-0FDB1F5CF265";
shapes = (
{
pos = (-20,-1854);
ref = quoteright;
}
);
width = 744;
},
{
background = {
shapes = (
{
ref = period;
}
);
};
guides = (
{
pos = (-136,1240);
},
{
pos = (-136,764);
}
);
layerId = "5C20EF92-B63D-42A8-8878-93C2863E0093";
shapes = (
{
pos = (-46,-1824);
ref = quoteright;
}
);
width = 896;
},
{
associatedMasterId = "5C20EF92-B63D-42A8-8878-93C2863E0093";
background = {
shapes = (
{
closed = 1;
nodes = (
(260,384,l),
(260,12,l),
(260,-228,o),
(160,-336,o),
(100,-444,c),
(344,-584,l),
(528,-456,o),
(672,-196,o),
(668,52,c),
(668,384,l)
);
}
);
};
guides = (
{
pos = (-184,1240);
},
{
pos = (-184,764);
}
);
layerId = "83BB089A-6AEB-4A23-9D91-E9474455B4D3";
name = "May 22, 21 14:58";
shapes = (
{
pos = (0,-1824);
ref = quoteright;
}
);
width = 848;
}
);
unicode = 44;
userData = {
"interface.width-adjustments" = (
-16
);
};
}
{
color = (227,245,235,1);
glyphname = five;
layers = (
{
guides = (
{
angle = 90;
pos = (1196,2240);
}
);
layerId = "B1F27B51-9973-4381-9301-4FE46FE1CA59";
shapes = (
{
closed = 1;
nodes = (
(1140,-28,o),
(1404,255,o),
(1406,636,cs),
(1408,1033,o),
(1111,1292,o),
(766,1292,cs),
(594,1292,o),
(418,1231,o),
(334,1110,c),
(326,1110,l),
(440,1984,l),
(1334,1984,l),
(1334,2048,l),
(384,2048,l),
(252,1028,l),
(334,1030,l),
(427,1159,o),
(586,1228,o),
(766,1228,cs),
(1075,1228,o),
(1340,999,o),
(1342,636,cs),
(1345,297,o),
(1108,36,o),
(770,36,cs),
(468,36,o),
(265,233,o),
(268,512,c),
(204,512,l),
(202,195,o),
(436,-28,o),
(770,-28,cs)
);
}
);
width = 1598;
},
{
associatedMasterId = "B1F27B51-9973-4381-9301-4FE46FE1CA59";
background = {
shapes = (
{
ref = three;
}
);
};
layerId = "09E68E1A-3F35-4777-BBE6-FD6C89765C56";
name = "Dec 27 18, 11:55";
shapes = (
{
closed = 0;
nodes = (
(284,436,l),
(302,187,o),
(520,6,o),
(800,4,c),
(1122,6,o),
(1357,246,o),
(1356,572,c),
(1357,906,o),
(1124,1151,o),
(804,1152,c),
(673,1152,o),
(534,1106,o),
(448,1040,c),
(328,1056,l),
(424,2016,l),
(1384,2016,l)
);
}
);
width = 1609;
},
{
associatedMasterId = "B1F27B51-9973-4381-9301-4FE46FE1CA59";
background = {
shapes = (
{
ref = three;
}
);
};
layerId = "838CDDB9-573F-41EC-B215-16E0F2F00A69";
name = "Dec 27 18, 11:59";
shapes = (
{
closed = 1;
nodes = (
(408,2048,l),
(289,1028,l),
(444,1008,l),
(452,1072,l),
(359,1084,l),
(464,1984,l),
(1384,1984,l),
(1384,2048,l)
);
},
{
closed = 0;
nodes = (
(296,512,l),
(296,256,o),
(504,4,o),
(804,4,cs),
(1116,4,o),
(1380,275,o),
(1380,612,cs),
(1380,947,o),
(1122,1220,o),
(800,1220,cs),
(640,1220,o),
(495,1153,o),
(388,1044,c)
);
}
);
width = 1608;
},
{
associatedMasterId = "B1F27B51-9973-4381-9301-4FE46FE1CA59";
background = {
shapes = (
{
ref = three;
}
);
};
guides = (
{
angle = 90;
pos = (1344,1656);
}
);
layerId = "5BB78558-3F9F-4EEB-9ED3-3B587D72683E";
name = "Dec 27 18, 12:06";
shapes = (
{
closed = 1;
nodes = (
(432,2048,l),
(312,1080,l),
(412,1064,l),
(400,1128,l),
(384,1136,l),
(488,1984,l),
(1344,1984,l),
(1344,2048,l)
);
},
{
closed = 1;
nodes = (
(507,1160,o),
(641,1228,o),
(800,1228,cs),
(1094,1228,o),
(1348,1000,o),
(1348,636,cs),
(1348,294,o),
(1127,36,o),
(804,36,cs),
(521,36,o),
(328,233,o),
(328,512,c),
(264,512,l),
(264,196,o),
(486,-28,o),
(804,-28,cs),
(1158,-28,o),
(1412,257,o),
(1412,636,cs),
(1412,1030,o),
(1130,1292,o),
(800,1292,cs),
(622,1292,o),
(469,1216,o),
(364,1108,c),
(412,1064,l)
);
}
);
width = 1608;
},
{
associatedMasterId = "B1F27B51-9973-4381-9301-4FE46FE1CA59";
guides = (
{
angle = 90;
pos = (1208,2240);
}
);
layerId = "D56DA8B1-3E65-4B19-BD1D-01C58275A3F0";
name = "May 22, 21 12:37";
shapes = (
{
closed = 1;
nodes = (
(1098,-28,o),
(1350,256,o),
(1352,636,cs),
(1354,1032,o),
(1070,1292,o),
(740,1292,cs),
(576,1292,o),
(438,1231,o),
(336,1136,c),
(328,1136,l),
(432,1984,l),
(1284,1984,l),
(1284,2048,l),
(376,2048,l),
(256,1080,l),
(352,1064,l),
(446,1160,o),
(578,1228,o),
(740,1228,cs),
(1034,1228,o),
(1286,1000,o),
(1288,636,cs),
(1290,296,o),
(1066,36,o),
(744,36,cs),
(458,36,o),
(266,232,o),
(268,512,c),
(204,512,l),
(202,196,o),
(426,-28,o),
(744,-28,cs)
);
}
);
width = 1544;
},
{
associatedMasterId = "B1F27B51-9973-4381-9301-4FE46FE1CA59";
guides = (
{
angle = 90;
pos = (1208,2240);
}
);
layerId = "C0168262-6656-45CC-95C7-565BCD1D87D6";
name = "May 22, 21 14:06";
shapes = (
{
closed = 1;
nodes = (
(1098,-28,o),
(1350,256,o),
(1352,636,cs),
(1354,1032,o),
(1070,1292,o),
(740,1292,cs),
(576,1292,o),
(408,1231,o),
(328,1110,c),
(324,1110,l),
(432,1984,l),
(1284,1984,l),
(1284,2048,l),
(376,2048,l),
(250,1028,l),
(332,1030,l),
(420,1160,o),
(570,1228,o),
(740,1228,cs),
(1034,1228,o),
(1286,1000,o),
(1288,636,cs),
(1290,296,o),
(1066,36,o),
(744,36,cs),
(458,36,o),
(266,232,o),
(268,512,c),
(204,512,l),
(202,196,o),
(426,-28,o),
(744,-28,cs)
);
}
);
width = 1544;
},
{
associatedMasterId = "C698F293-3EC0-4A5A-A3A0-0FDB1F5CF265";
background = {
shapes = (
{
closed = 1;
nodes = (
(1223,-47,o),
(1519,240,o),
(1520,650,cs),
(1520,654,ls),
(1519,1047,o),
(1242,1334,o),
(860,1334,cs),
(672,1334,o),
(508,1257,o),
(416,1118,c),
(396,1118,l),
(466,1824,l),
(1406,1824,l),
(1406,2040,l),
(274,2040,l),
(166,872,l),
(378,872,l),
(402,919,o),
(433,958,o),
(468,992,cs),
(557,1079,o),
(678,1123,o),
(818,1124,cs),
(1087,1123,o),
(1282,926,o),
(1282,650,cs),
(1282,646,ls),
(1282,365,o),
(1090,168,o),
(814,168,cs),
(570,168,o),
(389,325,o),
(364,524,cs),
(364,536,l),
(130,536,l),
(130,520,ls),
(161,197,o),
(433,-47,o),
(810,-48,cs)
);
}
);
};
guides = (
{
angle = 90;
pos = (1356,1656);
}
);
layerId = "2C7F5675-30E5-43E9-986E-5AC338A4BC98";
name = "May 22, 21 12:33";
shapes = (
{
closed = 1;
nodes = (
(1251,-28,o),
(1549,258,o),
(1548,652,cs),
(1549,1051,o),
(1261,1340,o),
(870,1340,cs),
(727,1340,o),
(590,1292,o),
(500,1224,c),
(478,1224,l),
(554,1828,l),
(1452,1828,l),
(1452,2048,l),
(348,2048,l),
(216,1040,l),
(452,1012,l),
(540,1072,o),
(695,1117,o),
(828,1116,cs),
(1107,1114,o),
(1309,915,o),
(1308,648,cs),
(1309,386,o),
(1115,192,o),
(846,192,cs),
(621,192,o),
(443,329,o),
(424,512,c),
(184,512,l),
(199,198,o),
(479,-28,o),
(846,-28,cs)
);
}
);
width = 1700;
},
{
associatedMasterId = "C698F293-3EC0-4A5A-A3A0-0FDB1F5CF265";
background = {
shapes = (
{
ref = three;
}
);
};
guides = (
{
angle = 90;
pos = (1372,1656);
}
);
layerId = "EF811225-5060-44C1-8739-A65CAC58252E";
name = "May 22, 21 11:17";
shapes = (
{
closed = 1;
nodes = (
(1210,-28,o),
(1496,260,o),
(1496,652,cs),
(1496,1049,o),
(1220,1340,o),
(844,1340,cs),
(706,1340,o),
(572,1291,o),
(488,1224,c),
(476,1224,l),
(548,1828,l),
(1404,1828,l),
(1404,2048,l),
(340,2048,l),
(216,1040,l),
(448,1012,l),
(533,1073,o),
(678,1117,o),
(804,1116,cs),
(1065,1114,o),
(1256,916,o),
(1256,648,cs),
(1256,385,o),
(1072,192,o),
(820,192,cs),
(610,192,o),
(443,327,o),
(424,512,c),
(184,512,l),
(199,200,o),
(468,-28,o),
(820,-28,cs)
);
}
);
width = 1648;
},
{
background = {
shapes = (
{
closed = 1;
nodes = (
(1223,-47,o),
(1519,240,o),
(1520,650,cs),
(1520,654,ls),
(1519,1047,o),
(1242,1334,o),
(860,1334,cs),
(672,1334,o),
(508,1257,o),
(416,1118,c),
(396,1118,l),
(466,1824,l),
(1406,1824,l),
(1406,2040,l),
(274,2040,l),
(166,872,l),
(378,872,l),
(456,1025,o),
(614,1123,o),
(818,1124,cs),
(1087,1123,o),
(1282,926,o),
(1282,650,cs),
(1282,646,ls),
(1282,365,o),
(1090,168,o),
(814,168,cs),
(570,168,o),
(389,325,o),
(364,524,cs),
(364,536,l),
(130,536,l),
(130,520,ls),
(161,197,o),
(433,-47,o),
(810,-48,cs)
);
}
);
};
guides = (
{
angle = 90;
pos = (1376,1656);
}
);
layerId = "C698F293-3EC0-4A5A-A3A0-0FDB1F5CF265";
shapes = (
{
closed = 1;
nodes = (
(1261,-28,o),
(1559,258,o),
(1558,652,cs),
(1559,1051,o),
(1271,1340,o),
(880,1340,cs),
(737,1340,o),
(600,1292,o),
(510,1224,c),
(488,1224,l),
(564,1828,l),
(1462,1828,l),
(1462,2048,l),
(358,2048,l),
(212,930,l),
(452,930,l),
(530,1063,o),
(665,1117,o),
(838,1116,cs),
(1117,1114,o),
(1319,915,o),
(1318,648,cs),
(1319,386,o),
(1125,192,o),
(856,192,cs),
(631,192,o),
(453,329,o),
(434,512,c),
(194,512,l),
(209,198,o),
(489,-28,o),
(856,-28,cs)
);
}
);
width = 1720;
},
{
background = {
shapes = (
{
pos = (28,0);
ref = three;
}
);
};
guides = (
{
pos = (-200,2280);
},
{
pos = (-200,2396);
},
{
angle = 90;
pos = (116,0);
}
);
layerId = "5C20EF92-B63D-42A8-8878-93C2863E0093";
shapes = (
{
closed = 1;
nodes = (
(1455,-28,o),
(1781,275,o),
(1780,704,cs),
(1781,1093,o),
(1509,1368,o),
(1144,1368,cs),
(936,1368,o),
(768,1276,o),
(704,1152,c),
(692,1152,l),
(732,1604,l),
(1652,1604,l),
(1652,2048,l),
(276,2048,l),
(190,824,l),
(684,824,l),
(731,924,o),
(818,984,o),
(956,984,cs),
(1126,984,o),
(1245,867,o),
(1244,688,cs),
(1245,509,o),
(1126,392,o),
(956,392,cs),
(809,392,o),
(688,482,o),
(684,624,c),
(144,624,l),
(147,242,o),
(484,-28,o),
(956,-28,cs)
);
}
);
width = 1884;
},
{
associatedMasterId = "5C20EF92-B63D-42A8-8878-93C2863E0093";
background = {
shapes = (
{
pos = (28,0);
ref = three;
}
);
};
guides = (
{
pos = (-248,2280);
},
{
pos = (-248,2396);
},
{
angle = 90;
pos = (68,0);
}
);
layerId = "E547BCFA-1F99-48B1-AB4B-AA89AABB7233";
name = "May 22, 21 12:37";
shapes = (
{
closed = 1;
nodes = (
(1431,-28,o),
(1757,275,o),
(1756,704,cs),
(1757,1093,o),
(1485,1368,o),
(1120,1368,cs),
(912,1368,o),
(744,1276,o),
(680,1152,c),
(668,1152,l),
(708,1604,l),
(1628,1604,l),
(1628,2048,l),
(252,2048,l),
(172,920,l),
(660,824,l),
(707,924,o),
(814,984,o),
(932,984,cs),
(1102,984,o),
(1221,867,o),
(1220,688,cs),
(1221,509,o),
(1102,392,o),
(932,392,cs),
(785,392,o),
(664,482,o),
(660,624,c),
(120,624,l),
(123,242,o),
(460,-28,o),
(932,-28,cs)
);
}
);
width = 1836;
}
);
unicode = 53;
}
{
color = (227,245,235,1);
glyphname = six;
kernLeft = six;
layers = (
{
layerId = "B1F27B51-9973-4381-9301-4FE46FE1CA59";
shapes = (
{
closed = 1;
nodes = (
(1191,-28,o),
(1435,271,o),
(1436,612,cs),
(1435,977,o),
(1157,1252,o),
(820,1252,cs),
(572,1252,o),
(340,1105,o),
(272,900,c),
(260,900,l),
(259,1618,o),
(459,2012,o),
(854,2012,cs),
(1137,2012,o),
(1313,1816,o),
(1334,1536,c),
(1398,1536,l),
(1376,1857,o),
(1171,2076,o),
(854,2076,cs),
(338,2076,o),
(196,1480,o),
(196,928,cs),
(196,283,o),
(469,-28,o),
(832,-28,cs)
);
},
{
closed = 1;
nodes = (
(566,36,o),
(364,225,o),
(292,584,cs),
(230,905,o),
(485,1188,o),
(816,1188,cs),
(1127,1188,o),
(1372,935,o),
(1372,612,cs),
(1372,297,o),
(1145,36,o),
(832,36,cs)
);
}
);
width = 1632;
},
{
associatedMasterId = "B1F27B51-9973-4381-9301-4FE46FE1CA59";
background = {
shapes = (
{
closed = 1;
nodes = (
(1131,1024,o),
(1384,1253,o),
(1384,1536,cs),
(1384,1819,o),
(1131,2048,o),
(820,2048,cs),
(509,2048,o),
(256,1819,o),
(256,1536,cs),
(256,1253,o),
(509,1024,o),
(820,1024,cs)
);
},
{
closed = 1;
nodes = (
(1129,4,o),
(1380,276,o),
(1380,612,cs),
(1380,948,o),
(1129,1220,o),
(820,1220,cs),
(511,1220,o),
(260,948,o),
(260,612,cs),
(260,276,o),
(511,4,o),
(820,4,cs)
);
}
);
};
layerId = "9E406D40-9CB5-4845-B6DF-1B5201BAD6B0";
name = "Dec 27 18, 12:24";
shapes = (
{
closed = 0;
nodes = (
(260,612,l),
(260,949,o),
(512,1220,o),
(820,1220,cs),
(1128,1220,o),
(1380,948,o),
(1380,612,cs),
(1380,276,o),
(1130,4,o),
(836,4,cs),
(538,4,o),
(260,250,o),
(260,928,cs),
(260,1823,o),
(553,2048,o),
(864,2048,cs),
(1176,2048,o),
(1384,1820,o),
(1384,1536,c)
);
}
);
width = 1652;
},
{
associatedMasterId = "B1F27B51-9973-4381-9301-4FE46FE1CA59";
layerId = "0A5B7C9A-23F7-43E2-98D1-18F90204FF01";
name = "Dec 27 18, 12:33";
shapes = (
{
closed = 1;
nodes = (
(1357,1855,o),
(1161,2080,o),
(856,2080,cs),
(358,2080,o),
(228,1480,o),
(228,928,cs),
(228,283,o),
(487,-28,o),
(836,-28,cs),
(1178,-28,o),
(1412,271,o),
(1412,612,cs),
(1412,974,o),
(1149,1252,o),
(820,1252,cs),
(472,1252,o),
(213,940,o),
(260,572,c),
(324,572,l),
(277,905,o),
(507,1188,o),
(820,1188,cs),
(1116,1188,o),
(1348,937,o),
(1348,612,cs),
(1348,296,o),
(1132,36,o),
(836,36,cs),
(506,36,o),
(292,350,o),
(292,928,cs),
(292,1410,o),
(391,2016,o),
(856,2016,cs),
(1123,2016,o),
(1293,1817,o),
(1312,1536,c),
(1376,1536,l)
);
},
{
closed = 1;
nodes = (
(276,852,l),
(316,852,l),
(316,896,l),
(276,896,l)
);
}
);
width = 1652;
},
{
associatedMasterId = "B1F27B51-9973-4381-9301-4FE46FE1CA59";
layerId = "CE447FD8-223A-4B59-991B-B6EDB21FCE68";
name = "May 22, 21 14:07";
shapes = (
{
closed = 1;
nodes = (
(1148,-28,o),
(1380,272,o),
(1380,612,cs),
(1380,976,o),
(1114,1252,o),
(792,1252,cs),
(555,1252,o),
(333,1104,o),
(268,900,c),
(260,900,l),
(260,1618,o),
(450,2012,o),
(824,2012,cs),
(1093,2012,o),
(1260,1817,o),
(1280,1536,c),
(1344,1536,l),
(1324,1856,o),
(1128,2076,o),
(824,2076,cs),
(331,2076,o),
(196,1480,o),
(196,928,cs),
(196,284,o),
(456,-28,o),
(804,-28,cs)
);
},
{
closed = 1;
nodes = (
(551,36,o),
(360,224,o),
(292,584,cs),
(232,905,o),
(475,1188,o),
(788,1188,cs),
(1084,1188,o),
(1316,936,o),
(1316,612,cs),
(1316,296,o),
(1100,36,o),
(804,36,cs)
);
}
);
width = 1576;
},
{
associatedMasterId = "C698F293-3EC0-4A5A-A3A0-0FDB1F5CF265";
background = {
shapes = (
{
pos = (48,0);
ref = five;
}
);
};
layerId = "29C74B54-0B9A-4B2F-83FB-361A7C6770E2";
name = "May 22, 21 11:18";
shapes = (
{
closed = 1;
nodes = (
(1274,-33,o),
(1544,279,o),
(1544,660,cs),
(1544,1056,o),
(1251,1340,o),
(900,1340,cs),
(689,1340,o),
(508,1237,o),
(396,1068,c),
(380,1068,l),
(381,1567,o),
(575,1856,o),
(892,1856,cs),
(1108,1856,o),
(1238,1720,o),
(1284,1536,c),
(1528,1536,l),
(1478,1854,o),
(1236,2076,o),
(892,2076,cs),
(431,2076,o),
(148,1668,o),
(148,944,cs),
(148,187,o),
(524,-24,o),
(860,-28,cs)
);
},
{
closed = 1;
nodes = (
(603,192,o),
(415,411,o),
(416,656,cs),
(417,901,o),
(614,1120,o),
(868,1120,cs),
(1119,1120,o),
(1304,914,o),
(1304,660,cs),
(1304,400,o),
(1111,192,o),
(860,192,cs)
);
}
);
width = 1692;
},
{
background = {
shapes = (
{
closed = 1;
nodes = (
(1269,-47,o),
(1571,248,o),
(1570,656,cs),
(1570,658,ls),
(1571,1049,o),
(1285,1341,o),
(902,1342,cs),
(623,1341,o),
(426,1188,o),
(350,1014,c),
(326,1014,l),
(326,1030,o),
(326,1048,o),
(328,1064,cs),
(342,1501,o),
(497,1870,o),
(872,1870,cs),
(1084,1870,o),
(1232,1760,o),
(1292,1584,cs),
(1298,1568,l),
(1542,1568,l),
(1538,1588,ls),
(1471,1886,o),
(1218,2088,o),
(876,2088,cs),
(384,2088,o),
(94,1678,o),
(94,982,cs),
(94,980,ls),
(94,221,o),
(483,-47,o),
(860,-48,cs)
);
},
{
closed = 1;
nodes = (
(384,662,ls),
(385,930,o),
(592,1129,o),
(860,1130,cs),
(1131,1129,o),
(1327,928,o),
(1326,654,cs),
(1326,650,ls),
(1327,380,o),
(1118,168,o),
(856,168,cs),
(591,168,o),
(385,385,o),
(384,660,cs)
);
}
);
};
layerId = "C698F293-3EC0-4A5A-A3A0-0FDB1F5CF265";
shapes = (
{
closed = 1;
nodes = (
(1330,-33,o),
(1611,277,o),
(1612,660,cs),
(1611,1058,o),
(1306,1340,o),
(942,1340,cs),
(722,1340,o),
(535,1239,o),
(416,1068,c),
(390,1068,l),
(390,1566,o),
(594,1856,o),
(932,1856,cs),
(1163,1856,o),
(1302,1718,o),
(1350,1536,c),
(1594,1536,l),
(1542,1856,o),
(1290,2076,o),
(932,2076,cs),
(454,2076,o),
(157,1670,o),
(158,944,cs),
(157,185,o),
(549,-24,o),
(900,-28,cs)
);
},
{
closed = 1;
nodes = (
(624,192,o),
(426,413,o),
(426,656,cs),
(428,899,o),
(636,1120,o),
(908,1120,cs),
(1176,1120,o),
(1371,912,o),
(1372,660,cs),
(1371,401,o),
(1168,192,o),
(900,192,cs)
);
}
);
width = 1770;
},
{
background = {
shapes = (
{
pos = (44,0);
ref = five;
}
);
};
guides = (
{
orientation = center;
pos = (1348,1368);
},
{
angle = 90;
pos = (1492,1316);
},
{
angle = 90;
pos = (-32,1316);
},
{
pos = (168,1436);
},
{
angle = 90;
pos = (848,576);
}
);
layerId = "5C20EF92-B63D-42A8-8878-93C2863E0093";
shapes = (
{
closed = 1;
nodes = (
(1476,-28,o),
(1814,263,o),
(1812,704,cs),
(1814,1079,o),
(1563,1352,o),
(1192,1352,cs),
(958,1352,o),
(746,1240,o),
(668,1052,c),
(656,1052,l),
(658,1383,o),
(762,1604,o),
(996,1604,cs),
(1113,1604,o),
(1215,1552,o),
(1240,1436,c),
(1788,1436,l),
(1753,1786,o),
(1448,2076,o),
(996,2076,cs),
(459,2076,o),
(106,1664,o),
(104,1000,cs),
(102,256,o),
(514,-28,o),
(992,-28,cs)
);
},
{
closed = 1;
nodes = (
(826,392,o),
(706,515,o),
(704,684,cs),
(706,853,o),
(826,976,o),
(988,976,cs),
(1154,976,o),
(1274,853,o),
(1272,684,cs),
(1274,515,o),
(1154,392,o),
(988,392,cs)
);
}
);
width = 1928;
}
);
unicode = 54;
}
{
color = (227,245,235,1);
glyphname = nine;
kernRight = nine;
layers = (
{
layerId = "B1F27B51-9973-4381-9301-4FE46FE1CA59";
shapes = (
{
closed = 1;
nodes = (
(439,2076,o),
(196,1781,o),
(196,1440,cs),
(196,1075,o),
(472,800,o),
(812,800,cs),
(1058,800,o),
(1292,947,o),
(1360,1152,c),
(1372,1152,l),
(1372,432,o),
(1170,36,o),
(778,36,cs),
(494,36,o),
(318,237,o),
(296,516,c),
(232,516,l),
(253,195,o),
(459,-28,o),
(778,-28,cs),
(1296,-28,o),
(1435,572,o),
(1436,1124,cs),
(1435,1769,o),
(1163,2076,o),
(798,2076,cs)
);
},
{
closed = 1;
nodes = (
(1064,2012,o),
(1267,1827,o),
(1338,1468,cs),
(1401,1148,o),
(1145,864,o),
(816,864,cs),
(504,864,o),
(259,1117,o),
(260,1440,cs),
(259,1755,o),
(487,2012,o),
(798,2012,cs)
);
}
);
width = 1632;
},
{
associatedMasterId = "B1F27B51-9973-4381-9301-4FE46FE1CA59";
layerId = "94E5FB65-BD20-4D3D-9313-D4168C823E7B";
name = "May 22, 21 14:07";
shapes = (
{
closed = 1;
nodes = (
(428,2076,o),
(196,1780,o),
(196,1440,cs),
(196,1076,o),
(460,800,o),
(784,800,cs),
(1020,800,o),
(1244,948,o),
(1308,1152,c),
(1316,1152,l),
(1316,432,o),
(1124,36,o),
(752,36,cs),
(484,36,o),
(316,236,o),
(296,516,c),
(232,516,l),
(252,196,o),
(448,-28,o),
(752,-28,cs),
(1248,-28,o),
(1380,572,o),
(1380,1124,cs),
(1380,1768,o),
(1120,2076,o),
(772,2076,cs)
);
},
{
closed = 1;
nodes = (
(1024,2012,o),
(1216,1828,o),
(1284,1468,cs),
(1344,1148,o),
(1100,864,o),
(788,864,cs),
(492,864,o),
(260,1116,o),
(260,1440,cs),
(260,1756,o),
(476,2012,o),
(772,2012,cs)
);
}
);
width = 1576;
},
{
associatedMasterId = "C698F293-3EC0-4A5A-A3A0-0FDB1F5CF265";
background = {
shapes = (
{
closed = 1;
nodes = (
(410,2088,o),
(108,1792,o),
(108,1386,cs),
(108,1384,ls),
(108,991,o),
(394,700,o),
(778,700,cs),
(1056,700,o),
(1253,852,o),
(1328,1028,c),
(1354,1028,l),
(1354,1011,o),
(1354,993,o),
(1352,976,cs),
(1338,540,o),
(1181,171,o),
(806,172,cs),
(595,171,o),
(447,281,o),
(386,458,cs),
(380,472,l),
(138,472,l),
(140,454,ls),
(208,155,o),
(461,-47,o),
(804,-48,cs),
(1296,-47,o),
(1585,362,o),
(1586,1060,cs),
(1586,1062,ls),
(1585,1820,o),
(1197,2088,o),
(820,2088,cs)
);
},
{
closed = 1;
nodes = (
(549,912,o),
(352,1112,o),
(352,1388,cs),
(352,1390,ls),
(352,1661,o),
(561,1873,o),
(822,1874,cs),
(1088,1873,o),
(1294,1656,o),
(1294,1382,cs),
(1294,1380,ls),
(1294,1111,o),
(1087,912,o),
(820,912,cs)
);
}
);
};
layerId = "365504F4-15FD-44EE-9556-30611DE6A2F8";
name = "May 22, 21 11:20";
shapes = (
{
closed = 1;
nodes = (
(416,2081,o),
(148,1768,o),
(148,1392,cs),
(148,996,o),
(440,712,o),
(792,712,cs),
(1004,712,o),
(1184,816,o),
(1296,984,c),
(1312,984,l),
(1312,480,o),
(1116,192,o),
(800,192,cs),
(584,192,o),
(452,328,o),
(408,516,c),
(164,516,l),
(212,192,o),
(456,-28,o),
(800,-28,cs),
(1260,-28,o),
(1544,380,o),
(1544,1108,cs),
(1544,1860,o),
(1168,2072,o),
(832,2076,cs)
);
},
{
closed = 1;
nodes = (
(1088,1856,o),
(1276,1636,o),
(1276,1396,cs),
(1276,1152,o),
(1076,932,o),
(824,932,cs),
(572,932,o),
(388,1136,o),
(388,1392,cs),
(388,1648,o),
(580,1856,o),
(832,1856,cs)
);
}
);
width = 1692;
},
{
background = {
shapes = (
{
pos = (-54,0);
ref = zero;
}
);
};
layerId = "C698F293-3EC0-4A5A-A3A0-0FDB1F5CF265";
shapes = (
{
closed = 1;
nodes = (
(437,2081,o),
(157,1770,o),
(158,1392,cs),
(157,994,o),
(462,712,o),
(828,712,cs),
(1047,712,o),
(1233,814,o),
(1352,984,c),
(1380,984,l),
(1380,481,o),
(1173,192,o),
(836,192,cs),
(605,192,o),
(465,330,o),
(418,516,c),
(174,516,l),
(225,190,o),
(479,-28,o),
(836,-28,cs),
(1314,-28,o),
(1611,378,o),
(1612,1108,cs),
(1611,1862,o),
(1219,2072,o),
(870,2076,cs)
);
},
{
closed = 1;
nodes = (
(1143,1856,o),
(1342,1634,o),
(1342,1396,cs),
(1342,1154,o),
(1131,932,o),
(862,932,cs),
(592,932,o),
(397,1137,o),
(398,1392,cs),
(397,1647,o),
(600,1856,o),
(870,1856,cs)
);
}
);
width = 1770;
},
{
guides = (
{
pos = (-136,764);
},
{
pos = (-136,1240);
}
);
layerId = "5C20EF92-B63D-42A8-8878-93C2863E0093";
shapes = (
{
closed = 1;
nodes = (
(450,2076,o),
(114,1784,o),
(116,1348,cs),
(118,976,o),
(366,704,o),
(736,704,cs),
(970,704,o),
(1182,816,o),
(1260,1004,c),
(1272,1004,l),
(1270,664,o),
(1166,444,o),
(932,444,cs),
(814,444,o),
(714,496,o),
(688,620,c),
(140,620,l),
(174,260,o),
(478,-28,o),
(932,-28,cs),
(1470,-28,o),
(1826,384,o),
(1824,1056,cs),
(1822,1792,o),
(1414,2076,o),
(936,2076,cs)
);
},
{
closed = 1;
nodes = (
(1102,1656,o),
(1222,1532,o),
(1224,1368,cs),
(1226,1204,o),
(1102,1080,o),
(940,1080,cs),
(774,1080,o),
(658,1204,o),
(656,1368,cs),
(654,1532,o),
(774,1656,o),
(940,1656,cs)
);
}
);
width = 1928;
}
);
note = "six mirrored";
unicode = 57;
}
{
color = (204,240,242,1);
glyphname = equal;
kernLeft = approxequal;
kernRight = approxequal;
layers = (
{
guides = (
{
pos = (132,1384);
}
);
layerId = "B1F27B51-9973-4381-9301-4FE46FE1CA59";
shapes = (
{
closed = 1;
nodes = (
(1340,1036,l),
(1340,1100,l),
(388,1100,l),
(388,1036,l)
);
},
{
closed = 1;
nodes = (
(1340,500,l),
(1340,564,l),
(388,564,l),
(388,500,l)
);
}
);
width = 1728;
},
{
background = {
shapes = (
{
ref = plus;
}
);
};
guides = (
{
pos = (224,800);
}
);
layerId = "C698F293-3EC0-4A5A-A3A0-0FDB1F5CF265";
shapes = (
{
closed = 1;
nodes = (
(1522,988,l),
(1522,1204,l),
(290,1204,l),
(290,988,l)
);
},
{
closed = 1;
nodes = (
(1522,396,l),
(1522,612,l),
(290,612,l),
(290,396,l)
);
}
);
width = 1812;
},
{
guides = (
{
orientation = center;
pos = (260,832);
}
);
layerId = "5C20EF92-B63D-42A8-8878-93C2863E0093";
shapes = (
{
closed = 1;
nodes = (
(1716,964,l),
(1716,1412,l),
(236,1412,l),
(236,964,l)
);
},
{
closed = 1;
nodes = (
(1716,252,l),
(1716,700,l),
(236,700,l),
(236,252,l)
);
}
);
width = 1952;
}
);
metricWidth = plus;
unicode = 61;
userData = {
com.typemytype.robofont.guideline.magnetic.7d4CjnlrzW = 5;
interface.gridadjust.original = "{'width': 1664, 'leftMargin': 256, 'rightMargin': 256}";
"interface.width-adjustments" = (
-16
);
};
}
{
color = (219,235,247,1);
glyphname = E;
kernLeft = B;
kernRight = E;
layers = (
{
anchors = (
{
name = bottom;
pos = (792,0);
},
{
name = cedilla;
pos = (796,0);
},
{
name = ogonek;
pos = (1408,0);
},
{
name = tonos;
pos = (216,2048);
},
{
name = top;
pos = (840,2304);
}
);
layerId = "B1F27B51-9973-4381-9301-4FE46FE1CA59";
shapes = (
{
closed = 1;
nodes = (
(1408,0,l),
(1408,64,l),
(352,64,l),
(352,992,l),
(1320,992,l),
(1320,1056,l),
(352,1056,l),
(352,1984,l),
(1380,1984,l),
(1380,2048,l),
(288,2048,l),
(288,0,l)
);
}
);
width = 1580;
},
{
anchors = (
{
name = bottom;
pos = (822,0);
},
{
name = cedilla;
pos = (826,0);
},
{
name = ogonek;
pos = (1478,0);
},
{
name = tonos;
pos = (162,2048);
},
{
name = top;
pos = (842,2304);
}
);
guides = (
{
orientation = center;
angle = 90;
pos = (1000,516);
}
);
layerId = "C698F293-3EC0-4A5A-A3A0-0FDB1F5CF265";
shapes = (
{
closed = 1;
nodes = (
(1478,0,l),
(1478,220,l),
(474,220,l),
(474,916,l),
(1398,916,l),
(1398,1136,l),
(474,1136,l),
(474,1828,l),
(1462,1828,l),
(1462,2048,l),
(226,2048,l),
(226,0,l)
);
}
);
width = 1640;
},
{
anchors = (
{
name = bottom;
pos = (876,0);
},
{
name = cedilla;
pos = (880,0);
},
{
name = ogonek;
pos = (1604,0);
},
{
name = tonos;
pos = (76,2048);
},
{
name = top;
pos = (876,2304);
}
);
guides = (
{
pos = (-136,1360);
},
{
orientation = center;
angle = 90;
pos = (788,620);
}
);
layerId = "5C20EF92-B63D-42A8-8878-93C2863E0093";
shapes = (
{
closed = 1;
nodes = (
(1604,0,l),
(1604,448,l),
(688,448,l),
(688,800,l),
(1532,800,l),
(1532,1248,l),
(688,1248,l),
(688,1600,l),
(1608,1600,l),
(1608,2048,l),
(132,2048,l),
(132,0,l)
);
}
);
width = 1752;
}
);
metricLeft = H;
unicode = 69;
userData = {
"interface.width-adjustments" = (
-16
);
};
}
{
color = (219,235,247,1);
glyphname = J;
kernLeft = J;
kernRight = J;
layers = (
{
anchors = (
{
name = cross;
pos = (1080,1216);
},
{
name = top;
pos = (1080,2304);
}
);
guides = (
{
angle = 90;
pos = (976,2840);
}
);
layerId = "B1F27B51-9973-4381-9301-4FE46FE1CA59";
shapes = (
{
closed = 1;
nodes = (
(1048,544,ls),
(1046,164,o),
(840,36,o),
(616,36,cs),
(372,36,o),
(182,184,o),
(184,384,c),
(120,384,l),
(118,148,o),
(334,-28,o),
(616,-28,cs),
(878,-28,o),
(1110,128,o),
(1112,544,cs),
(1112,2048,l),
(1048,2048,l)
);
}
);
width = 1400;
},
{
anchors = (
{
name = cross;
pos = (1134,1216);
},
{
name = top;
pos = (1134,2304);
}
);
guides = (
{
angle = 90;
pos = (1112,1476);
},
{
angle = 90;
pos = (652,492);
}
);
layerId = "C698F293-3EC0-4A5A-A3A0-0FDB1F5CF265";
shapes = (
{
closed = 1;
nodes = (
(1010,584,l),
(1010,329,o),
(888,192,o),
(674,192,cs),
(479,192,o),
(338,306,o),
(338,480,c),
(94,480,l),
(94,165,o),
(338,-28,o),
(674,-28,cs),
(1030,-28,o),
(1258,191,o),
(1258,584,c),
(1258,2048,l),
(1010,2048,l)
);
}
);
width = 1484;
},
{
anchors = (
{
name = cross;
pos = (1244,1216);
},
{
name = top;
pos = (1248,2304);
}
);
guides = (
{
angle = 90;
pos = (1100,1476);
}
);
layerId = "5C20EF92-B63D-42A8-8878-93C2863E0093";
shapes = (
{
closed = 1;
nodes = (
(976,644,l),
(974,486,o),
(908,404,o),
(784,404,cs),
(662,404,o),
(594,485,o),
(588,640,c),
(32,640,l),
(30,168,o),
(354,-28,o),
(748,-28,cs),
(1202,-28,o),
(1522,244,o),
(1524,644,c),
(1524,2048,l),
(976,2048,l)
);
}
);
width = 1656;
}
);
metricRight = H;
unicode = 74;
}
{
color = (219,235,247,1);
glyphname = a;
kernLeft = a;
kernRight = a;
layers = (
{
anchors = (
{
name = bottom;
pos = (732,0);
},
{
name = ogonek;
pos = (1212,0);
},
{
name = rhalfring;
pos = (732,1792);
},
{
name = top;
pos = (728,1792);
}
);
guides = (
{
angle = 90;
pos = (612,2200);
}
);
layerId = "B1F27B51-9973-4381-9301-4FE46FE1CA59";
shapes = (
{
closed = 1;
nodes = (
(1157,911,o),
(830,885,o),
(696,874,cs),
(264,839,o),
(156,624,o),
(156,416,cs),
(156,128,o),
(372,-32,o),
(624,-32,cs),
(856,-32,o),
(1044,104,o),
(1140,312,c),
(1148,312,l),
(1148,0,l),
(1212,0,l),
(1212,1104,ls),
(1212,1364,o),
(1020,1560,o),
(712,1560,cs),
(451,1560,o),
(232,1428,o),
(194,1204,c),
(260,1204,l),
(302,1394,o),
(490,1496,o),
(712,1496,cs),
(974,1496,o),
(1148,1340,o),
(1148,1104,cs),
(1148,656,ls),
(1148,284,o),
(916,32,o),
(624,32,cs),
(396,32,o),
(220,184,o),
(220,416,cs),
(220,612,o),
(327,784,o),
(720,814,cs),
(824,822,o),
(1158,849,o),
(1172,850,c),
(1170,912,l)
);
}
);
width = 1460;
},
{
anchors = (
{
name = bottom;
pos = (796,0);
},
{
name = ogonek;
pos = (1272,0);
},
{
name = rhalfring;
pos = (772,1808);
},
{
name = rhotichook;
pos = (1256,916);
},
{
name = top;
pos = (808,1808);
}
);
associatedMasterId = "B1F27B51-9973-4381-9301-4FE46FE1CA59";
background = {
shapes = (
{
closed = 1;
nodes = (
(1037,-43,o),
(1170,146,o),
(1192,204,c),
(1204,204,l),
(1204,0,l),
(1272,0,l),
(1272,988,ls),
(1271,1598,o),
(840,1556,o),
(780,1556,cs),
(694,1556,o),
(405,1572,o),
(224,1292,c),
(280,1164,l),
(353,1286,o),
(508,1451,o),
(804,1452,cs),
(1096,1451,o),
(1226,1289,o),
(1224,1020,cs),
(1224,893,o),
(1098,920,o),
(804,876,cs),
(539,828,o),
(190,804,o),
(192,444,cs),
(190,147,o),
(437,-43,o),
(728,-44,cs)
);
},
{
closed = 1;
nodes = (
(433,87,o),
(255,194,o),
(256,404,cs),
(255,645,o),
(484,698,o),
(704,724,cs),
(809,736,o),
(1193,770,o),
(1224,832,c),
(1224,564,ls),
(1222,340,o),
(1051,87,o),
(680,88,cs)
);
}
);
};
layerId = "C048B457-D40C-4F93-8CFB-4D7997732505";
name = "Nov 25 18, 18:14";
shapes = (
{
closed = 0;
nodes = (
(1240,0,l),
(1240,1060,l),
(1240,1330,o),
(1030,1445,o),
(784,1444,c),
(540,1445,o),
(355,1330,o),
(288,1152,c)
);
},
{
closed = 0;
nodes = (
(1240,1000,l),
(1240,860,o),
(1055,821,o),
(740,784,c),
(425,749,o),
(250,640,o),
(248,432,c),
(250,220,o),
(440,70,o),
(676,72,c),
(910,70,o),
(1240,180,o),
(1240,656,c)
);
}
);
width = 1542;
},
{
anchors = (
{
name = bottom;
pos = (764,0);
},
{
name = ogonek;
pos = (1244,0);
},
{
name = rhalfring;
pos = (764,1792);
},
{
name = rhotichook;
pos = (1228,916);
},
{
name = top;
pos = (760,1792);
}
);
associatedMasterId = "B1F27B51-9973-4381-9301-4FE46FE1CA59";
layerId = "937F9D9A-E5DA-440F-B0FC-EFB5D457015F";
name = "Nov 26 18, 08:24";
shapes = (
{
closed = 1;
nodes = (
(354,1394,o),
(529,1497,o),
(744,1496,cs),
(1009,1495,o),
(1180,1339,o),
(1180,1104,cs),
(1180,0,l),
(1244,0,l),
(1244,1104,ls),
(1244,1362,o),
(1056,1561,o),
(744,1560,cs),
(504,1559,o),
(302,1440,o),
(232,1248,c),
(292,1224,l)
);
},
{
closed = 1;
nodes = (
(1001,-32,o),
(1244,265,o),
(1244,656,c),
(1180,656,l),
(1180,283,o),
(948,32,o),
(656,32,cs),
(429,32,o),
(252,185,o),
(252,416,cs),
(252,613,o),
(378,736,o),
(792,784,cs),
(1069,816,o),
(1244,865,o),
(1244,1012,c),
(1180,1012,l),
(1180,893,o),
(980,869,o),
(768,844,cs),
(295,788,o),
(188,623,o),
(188,416,cs),
(188,129,o),
(403,-32,o),
(656,-32,cs)
);
},
{
closed = 1;
nodes = (
(1164,312,l),
(1192,312,l),
(1192,352,l),
(1164,352,l)
);
}
);
width = 1524;
},
{
anchors = (
{
name = bottom;
pos = (732,0);
},
{
name = ogonek;
pos = (1212,0);
},
{
name = rhalfring;
pos = (732,1792);
},
{
name = top;
pos = (728,1792);
}
);
associatedMasterId = "B1F27B51-9973-4381-9301-4FE46FE1CA59";
guides = (
{
angle = 90;
pos = (612,2200);
}
);
layerId = "3B598407-7949-4D84-80E3-06414ED534C5";
name = "May 15, 21 16:46";
shapes = (
{
closed = 1;
nodes = (
(856,-32,o),
(1044,104,o),
(1140,312,c),
(1148,312,l),
(1148,0,l),
(1212,0,l),
(1212,1104,ls),
(1212,1364,o),
(1024,1560,o),
(712,1560,cs),
(472,1560,o),
(272,1440,o),
(200,1248,c),
(260,1224,l),
(324,1396,o),
(496,1496,o),
(712,1496,cs),
(976,1496,o),
(1148,1340,o),
(1148,1104,cs),
(1148,1012,ls),
(1148,892,o),
(948,868,o),
(736,844,cs),
(264,788,o),
(156,624,o),
(156,416,cs),
(156,128,o),
(372,-32,o),
(624,-32,cs)
);
},
{
closed = 1;
nodes = (
(396,32,o),
(220,184,o),
(220,416,cs),
(220,612,o),
(348,736,o),
(760,784,cs),
(936,804,o),
(1072,832,o),
(1148,888,c),
(1148,656,ls),
(1148,284,o),
(916,32,o),
(624,32,cs)
);
}
);
width = 1460;
},
{
anchors = (
{
name = bottom;
pos = (776,0);
},
{
name = ogonek;
pos = (1340,0);
},
{
name = rhalfring;
pos = (772,1792);
},
{
name = top;
pos = (788,1792);
}
);
associatedMasterId = "C698F293-3EC0-4A5A-A3A0-0FDB1F5CF265";
guides = (
{
angle = 90;
pos = (740,1160);
}
);
layerId = "F4EB7F86-712B-4FAA-970E-8E4E4F74BADF";
name = "May 15, 21 16:46";
shapes = (
{
closed = 1;
nodes = (
(904,-36,o),
(1044,108,o),
(1092,208,c),
(1104,208,l),
(1104,0,l),
(1340,0,l),
(1340,1012,ls),
(1340,1500,o),
(968,1556,o),
(772,1556,cs),
(540,1556,o),
(276,1476,o),
(156,1196,c),
(380,1116,l),
(432,1228,o),
(555,1348,o),
(780,1348,cs),
(997,1348,o),
(1104,1233,o),
(1104,1036,cs),
(1104,1028,ls),
(1104,914,o),
(988,924,o),
(708,888,cs),
(423,851,o),
(112,788,o),
(112,436,cs),
(112,136,o),
(344,-36,o),
(636,-36,cs)
);
},
{
closed = 1;
nodes = (
(484,176,o),
(348,260,o),
(348,424,cs),
(348,604,o),
(512,660,o),
(696,684,cs),
(796,696,o),
(1064,724,o),
(1104,772,c),
(1104,556,ls),
(1104,364,o),
(952,176,o),
(672,176,cs)
);
}
);
width = 1524;
},
{
anchors = (
{
name = bottom;
pos = (786,0);
},
{
name = ogonek;
pos = (1350,0);
},
{
name = rhalfring;
pos = (782,1792);
},
{
name = top;
pos = (798,1792);
}
);
background = {
shapes = (
{
closed = 1;
nodes = (
(816,-27,o),
(975,62,o),
(1072,226,c),
(1094,226,l),
(1094,0,l),
(1340,0,l),
(1340,1044,ls),
(1340,1360,o),
(1132,1551,o),
(762,1552,cs),
(435,1551,o),
(203,1390,o),
(164,1152,cs),
(162,1144,l),
(408,1144,l),
(410,1148,ls),
(449,1266,o),
(570,1333,o),
(752,1334,cs),
(980,1333,o),
(1094,1232,o),
(1094,1044,cs),
(1094,906,l),
(658,878,ls),
(302,857,o),
(102,700,o),
(102,428,cs),
(102,426,ls),
(102,148,o),
(321,-27,o),
(612,-28,cs)
);
},
{
closed = 1;
nodes = (
(354,434,ls),
(353,585,o),
(455,667,o),
(688,682,cs),
(1094,708,l),
(1094,568,ls),
(1094,351,o),
(912,187,o),
(662,188,cs),
(485,187,o),
(353,277,o),
(354,432,cs)
);
}
);
};
guides = (
{
angle = 90;
pos = (760,1160);
}
);
layerId = "C698F293-3EC0-4A5A-A3A0-0FDB1F5CF265";
shapes = (
{
closed = 1;
nodes = (
(1109,911,o),
(809,896,o),
(698,888,cs),
(432,868,o),
(122,788,o),
(122,436,cs),
(122,136,o),
(354,-36,o),
(646,-36,cs),
(914,-36,o),
(1054,108,o),
(1102,208,c),
(1114,208,l),
(1114,0,l),
(1350,0,l),
(1350,1012,ls),
(1350,1500,o),
(968,1556,o),
(774,1556,cs),
(437,1556,o),
(197,1386,o),
(166,1138,c),
(412,1138,l),
(448,1258,o),
(567,1348,o),
(762,1348,cs),
(997,1348,o),
(1114,1233,o),
(1114,1036,cs),
(1114,556,ls),
(1114,364,o),
(962,176,o),
(682,176,cs),
(494,176,o),
(358,260,o),
(358,424,cs),
(358,594,o),
(500,672,o),
(726,686,cs),
(810,691,o),
(1119,714,o),
(1134,714,c),
(1130,912,l)
);
}
);
width = 1544;
},
{
anchors = (
{
name = bottom;
pos = (828,0);
},
{
name = ogonek;
pos = (1540,0);
},
{
name = rhalfring;
pos = (860,1792);
},
{
name = top;
pos = (848,1792);
}
);
background = {
shapes = (
{
closed = 1;
nodes = (
(768,-24,o),
(919,44,o),
(1012,216,c),
(1024,216,l),
(1024,0,l),
(1540,0,l),
(1540,1052,ls),
(1540,1336,o),
(1266,1556,o),
(844,1556,cs),
(368,1556,o),
(147,1316,o),
(128,1036,c),
(636,1036,l),
(649,1131,o),
(719,1176,o),
(824,1176,cs),
(922,1176,o),
(986,1134,o),
(988,1052,cs),
(990,960,o),
(890,931,o),
(632,912,cs),
(315,889,o),
(68,761,o),
(68,424,cs),
(68,118,o),
(274,-24,o),
(568,-24,cs)
);
},
{
closed = 1;
nodes = (
(654,324,o),
(588,370,o),
(588,456,cs),
(588,535,o),
(644,596,o),
(772,616,cs),
(860,630,o),
(934,648,o),
(992,672,c),
(992,544,ls),
(992,404,o),
(873,324,o),
(748,324,cs)
);
}
);
};
guides = (
{
pos = (-172,2280);
},
{
angle = 90;
pos = (676,1164);
}
);
layerId = "5C20EF92-B63D-42A8-8878-93C2863E0093";
shapes = (
{
closed = 1;
nodes = (
(998,929,o),
(772,922,o),
(634,914,cs),
(317,896,o),
(68,761,o),
(68,424,cs),
(68,118,o),
(274,-24,o),
(568,-24,cs),
(768,-24,o),
(919,44,o),
(1012,216,c),
(1024,216,l),
(1024,0,l),
(1540,0,l),
(1540,1052,ls),
(1540,1336,o),
(1271,1556,o),
(832,1556,cs),
(373,1556,o),
(147,1316,o),
(128,1036,c),
(636,1036,l),
(649,1131,o),
(719,1176,o),
(824,1176,cs),
(920,1176,o),
(987,1132,o),
(988,1052,cs),
(992,544,ls),
(993,404,o),
(873,324,o),
(748,324,cs),
(654,324,o),
(588,370,o),
(588,456,cs),
(588,535,o),
(644,597,o),
(732,608,cs),
(817,618,o),
(998,624,o),
(1012,624,c),
(1010,930,l)
);
}
);
width = 1664;
},
{
anchors = (
{
name = bottom;
pos = (784,0);
},
{
name = ogonek;
pos = (1468,0);
},
{
name = rhalfring;
pos = (788,1768);
},
{
name = rhotichook;
pos = (1240,896);
},
{
name = top;
pos = (784,1768);
}
);
associatedMasterId = "5C20EF92-B63D-42A8-8878-93C2863E0093";
background = {
shapes = (
{
closed = 1;
nodes = (
(908,392,o),
(792,356,o),
(716,356,cs),
(640,356,o),
(596,396,o),
(596,468,cs),
(596,604,o),
(753,619,o),
(800,628,cs),
(832,634,o),
(886,646,o),
(908,656,c),
(908,468,ls)
);
},
{
closed = 1;
nodes = (
(1468,0,l),
(1468,1052,ls),
(1468,1336,o),
(1224,1556,o),
(800,1556,cs),
(368,1556,o),
(112,1324,o),
(84,1040,c),
(600,1016,l),
(608,1112,o),
(684,1152,o),
(764,1152,cs),
(857,1152,o),
(908,1096,o),
(908,1028,cs),
(908,1024,l),
(908,956,o),
(796,948,o),
(732,944,cs),
(244,900,o),
(64,696,o),
(64,432,cs),
(64,136,o),
(288,-24,o),
(552,-24,cs),
(748,-24,o),
(874,68,o),
(932,216,c),
(944,216,l),
(944,0,l)
);
}
);
};
guides = (
{
pos = (-20,2280);
},
{
orientation = center;
angle = 90;
pos = (772,1164);
}
);
layerId = "C596F91B-58A4-455B-91E6-DA7366E42FEF";
name = "Sep 26 18, 17:42";
shapes = (
{
closed = 1;
nodes = (
(748,-24,o),
(874,68,o),
(932,216,c),
(944,216,l),
(944,0,l),
(1468,0,l),
(1468,1052,ls),
(1468,1336,o),
(1224,1556,o),
(800,1556,cs),
(368,1556,o),
(115,1326,o),
(84,1036,c),
(600,1036,l),
(608,1123,o),
(684,1168,o),
(764,1168,cs),
(849,1168,o),
(908,1122,o),
(908,1044,c),
(732,920,l),
(245,885,o),
(64,696,o),
(64,432,cs),
(64,136,o),
(288,-24,o),
(552,-24,cs)
);
},
{
closed = 1;
nodes = (
(640,356,o),
(596,396,o),
(596,468,cs),
(596,604,o),
(753,619,o),
(800,628,cs),
(832,634,o),
(886,646,o),
(908,656,c),
(908,468,ls),
(908,392,o),
(792,356,o),
(716,356,cs)
);
}
);
width = 1580;
},
{
anchors = (
{
name = bottom;
pos = (844,0);
},
{
name = ogonek;
pos = (1564,0);
},
{
name = rhalfring;
pos = (876,1768);
},
{
name = rhotichook;
pos = (1336,896);
},
{
name = top;
pos = (840,1768);
}
);
associatedMasterId = "5C20EF92-B63D-42A8-8878-93C2863E0093";
background = {
shapes = (
{
closed = 1;
nodes = (
(1592,0,l),
(1592,24,l),
(1548,55,o),
(1540,123,o),
(1540,252,cs),
(1540,1004,ls),
(1540,1204,o),
(1466,1359,o),
(1316,1456,cs),
(1207,1527,o),
(1066,1556,o),
(848,1556,cs),
(396,1556,o),
(176,1310,o),
(164,1012,c),
(668,1012,l),
(683,1122,o),
(742,1193,o),
(860,1192,cs),
(973,1191,o),
(1010,1131,o),
(1012,1048,cs),
(1014,954,o),
(928,915,o),
(624,880,cs),
(348,848,o),
(103,749,o),
(104,416,cs),
(105,120,o),
(306,-38,o),
(584,-36,cs),
(768,-35,o),
(920,28,o),
(1016,168,c),
(1020,168,l),
(1032,85,o),
(1049,38,o),
(1068,0,c)
);
},
{
closed = 1;
nodes = (
(694,297,o),
(615,339,o),
(616,440,cs),
(617,528,o),
(663,575,o),
(820,612,cs),
(908,633,o),
(973,655,o),
(1024,680,c),
(1024,548,ls),
(1024,368,o),
(906,295,o),
(784,296,cs)
);
}
);
};
guides = (
{
pos = (-8,2280);
},
{
orientation = center;
angle = 90;
pos = (788,1164);
}
);
layerId = "72863907-E93F-4D6F-A271-16E283735BCE";
name = "Sep 30 18, 11:59";
shapes = (
{
closed = 1;
nodes = (
(775,-24,o),
(944,53,o),
(1028,216,c),
(1040,216,l),
(1040,0,l),
(1556,0,l),
(1556,1052,ls),
(1554,1336,o),
(1282,1556,o),
(860,1556,cs),
(410,1556,o),
(162,1316,o),
(120,1036,c),
(636,1036,l),
(650,1132,o),
(734,1168,o),
(824,1168,cs),
(934,1168,o),
(1010,1120,o),
(1012,1044,c),
(748,920,l),
(266,890,o),
(70,720,o),
(68,448,cs),
(66,157,o),
(290,-24,o),
(584,-24,cs)
);
},
{
closed = 1;
nodes = (
(670,356,o),
(610,396,o),
(612,468,cs),
(610,561,o),
(710,616,o),
(852,632,cs),
(886,636,o),
(986,648,o),
(1008,656,c),
(1008,528,ls),
(1006,435,o),
(901,356,o),
(764,356,cs)
);
}
);
width = 1680;
},
{
anchors = (
{
name = bottom;
pos = (844,0);
},
{
name = ogonek;
pos = (1564,0);
},
{
name = rhalfring;
pos = (876,1768);
},
{
name = rhotichook;
pos = (1336,896);
},
{
name = top;
pos = (840,1768);
}
);
associatedMasterId = "5C20EF92-B63D-42A8-8878-93C2863E0093";
background = {
shapes = (
{
closed = 1;
nodes = (
(1576,0,l),
(1576,24,l),
(1532,55,o),
(1524,123,o),
(1524,252,cs),
(1524,1004,ls),
(1524,1204,o),
(1450,1359,o),
(1300,1456,cs),
(1191,1527,o),
(1050,1556,o),
(832,1556,cs),
(380,1556,o),
(160,1310,o),
(148,1012,c),
(652,1012,l),
(667,1122,o),
(726,1193,o),
(844,1192,cs),
(957,1191,o),
(994,1131,o),
(996,1048,cs),
(998,954,o),
(912,915,o),
(608,880,cs),
(332,848,o),
(87,749,o),
(88,416,cs),
(89,120,o),
(290,-38,o),
(568,-36,cs),
(752,-35,o),
(904,28,o),
(1000,168,c),
(1004,168,l),
(1016,85,o),
(1033,38,o),
(1052,0,c)
);
},
{
closed = 1;
nodes = (
(678,297,o),
(599,339,o),
(600,440,cs),
(601,528,o),
(647,575,o),
(804,612,cs),
(892,633,o),
(957,655,o),
(1008,680,c),
(1008,548,ls),
(1008,368,o),
(890,295,o),
(768,296,cs)
);
}
);
};
guides = (
{
pos = (-8,2280);
},
{
orientation = center;
angle = 90;
pos = (788,1164);
}
);
layerId = "305BBA09-0181-46A8-9410-0E5FD9B2095C";
name = "Sep 30 18, 12:14";
shapes = (
{
closed = 1;
nodes = (
(784,-24,o),
(935,44,o),
(1028,216,c),
(1040,216,l),
(1040,0,l),
(1556,0,l),
(1556,1052,ls),
(1556,1336,o),
(1282,1556,o),
(860,1556,cs),
(410,1556,o),
(186,1316,o),
(144,1036,c),
(652,1036,l),
(665,1131,o),
(729,1188,o),
(840,1188,cs),
(947,1188,o),
(994,1134,o),
(996,1052,c),
(648,892,l),
(332,854,o),
(84,761,o),
(84,424,cs),
(84,118,o),
(290,-24,o),
(584,-24,cs)
);
},
{
closed = 1;
nodes = (
(670,316,o),
(604,358,o),
(604,444,cs),
(604,532,o),
(660,580,o),
(808,616,cs),
(890,636,o),
(954,655,o),
(1008,680,c),
(1008,552,ls),
(1008,399,o),
(898,316,o),
(764,316,cs)
);
}
);
width = 1680;
},
{
anchors = (
{
name = bottom;
pos = (852,0);
},
{
name = ogonek;
pos = (1564,0);
},
{
name = rhalfring;
pos = (884,1792);
},
{
name = top;
pos = (872,1792);
}
);
associatedMasterId = "5C20EF92-B63D-42A8-8878-93C2863E0093";
background = {
shapes = (
{
closed = 1;
nodes = (
(768,-24,o),
(919,44,o),
(1012,216,c),
(1024,216,l),
(1024,0,l),
(1540,0,l),
(1540,1052,ls),
(1540,1336,o),
(1266,1556,o),
(844,1556,cs),
(368,1556,o),
(147,1316,o),
(128,1036,c),
(636,1036,l),
(649,1131,o),
(719,1176,o),
(824,1176,cs),
(922,1176,o),
(986,1134,o),
(988,1052,cs),
(990,960,o),
(890,931,o),
(632,912,cs),
(315,889,o),
(68,761,o),
(68,424,cs),
(68,118,o),
(274,-24,o),
(568,-24,cs)
);
},
{
closed = 1;
nodes = (
(654,324,o),
(588,370,o),
(588,456,cs),
(588,535,o),
(644,596,o),
(772,616,cs),
(860,630,o),
(934,648,o),
(992,672,c),
(992,544,ls),
(992,404,o),
(873,324,o),
(748,324,cs)
);
}
);
};
guides = (
{
pos = (16,2280);
},
{
angle = 90;
pos = (864,1164);
}
);
layerId = "B36428FC-0635-49D4-830D-3F37F3200E8B";
name = "May 15, 21 16:46";
shapes = (
{
closed = 1;
nodes = (
(792,-24,o),
(943,44,o),
(1036,216,c),
(1048,216,l),
(1048,0,l),
(1564,0,l),
(1564,1052,ls),
(1564,1336,o),
(1295,1556,o),
(856,1556,cs),
(397,1556,o),
(171,1316,o),
(152,1036,c),
(660,1036,l),
(673,1131,o),
(743,1176,o),
(848,1176,cs),
(944,1176,o),
(1012,1132,o),
(1012,1052,cs),
(1012,1048,ls),
(1012,959,o),
(914,931,o),
(656,912,cs),
(339,889,o),
(92,761,o),
(92,424,cs),
(92,118,o),
(298,-24,o),
(592,-24,cs)
);
},
{
closed = 1;
nodes = (
(678,324,o),
(612,370,o),
(612,456,cs),
(612,535,o),
(668,596,o),
(796,616,cs),
(884,630,o),
(958,648,o),
(1016,672,c),
(1016,544,ls),
(1016,404,o),
(897,324,o),
(772,324,cs)
);
}
);
width = 1712;
},
{
anchors = (
{
name = bottom;
pos = (776,0);
},
{
name = ogonek;
pos = (1340,0);
},
{
name = rhalfring;
pos = (772,1792);
},
{
name = top;
pos = (788,1792);
}
);
associatedMasterId = "C698F293-3EC0-4A5A-A3A0-0FDB1F5CF265";
guides = (
{
angle = 90;
pos = (740,1160);
}
);
layerId = "595C719D-CC5E-45A2-88B8-B972CFA082AA";
name = "Jun 15, 21 1:29";
shapes = (
{
closed = 1;
nodes = (
(1099,911,o),
(799,896,o),
(688,888,cs),
(422,868,o),
(112,788,o),
(112,436,cs),
(112,136,o),
(344,-36,o),
(636,-36,cs),
(904,-36,o),
(1044,108,o),
(1092,208,c),
(1104,208,l),
(1104,0,l),
(1340,0,l),
(1340,1012,ls),
(1340,1500,o),
(966,1556,o),
(772,1556,cs),
(435,1556,o),
(197,1386,o),
(148,1110,c),
(394,1110,l),
(422,1268,o),
(580,1348,o),
(780,1348,cs),
(995,1348,o),
(1104,1233,o),
(1104,1036,cs),
(1104,556,ls),
(1104,364,o),
(952,176,o),
(672,176,cs),
(484,176,o),
(348,260,o),
(348,424,cs),
(348,594,o),
(490,672,o),
(716,686,cs),
(800,691,o),
(1109,714,o),
(1124,714,c),
(1120,912,l)
);
}
);
width = 1524;
},
{
anchors = (
{
name = bottom;
pos = (828,0);
},
{
name = ogonek;
pos = (1540,0);
},
{
name = rhalfring;
pos = (860,1792);
},
{
name = top;
pos = (848,1792);
}
);
associatedMasterId = "5C20EF92-B63D-42A8-8878-93C2863E0093";
background = {
shapes = (
{
closed = 1;
nodes = (
(768,-24,o),
(919,44,o),
(1012,216,c),
(1024,216,l),
(1024,0,l),
(1540,0,l),
(1540,1052,ls),
(1540,1336,o),
(1266,1556,o),
(844,1556,cs),
(368,1556,o),
(147,1316,o),
(128,1036,c),
(636,1036,l),
(649,1131,o),
(719,1176,o),
(824,1176,cs),
(922,1176,o),
(986,1134,o),
(988,1052,cs),
(990,960,o),
(890,931,o),
(632,912,cs),
(315,889,o),
(68,761,o),
(68,424,cs),
(68,118,o),
(274,-24,o),
(568,-24,cs)
);
},
{
closed = 1;
nodes = (
(654,324,o),
(588,370,o),
(588,456,cs),
(588,535,o),
(644,596,o),
(772,616,cs),
(860,630,o),
(934,648,o),
(992,672,c),
(992,544,ls),
(992,404,o),
(873,324,o),
(748,324,cs)
);
}
);
};
guides = (
{
pos = (-172,2280);
},
{
angle = 90;
pos = (676,1164);
}
);
layerId = "B9C7D8E5-BCF6-4095-9B07-13473BB2C39E";
name = "Jun 15, 21 1:39";
shapes = (
{
closed = 1;
nodes = (
(998,929,o),
(772,922,o),
(634,914,cs),
(317,896,o),
(68,761,o),
(68,424,cs),
(68,118,o),
(274,-24,o),
(568,-24,cs),
(768,-24,o),
(919,44,o),
(1012,216,c),
(1024,216,l),
(1024,0,l),
(1540,0,l),
(1540,1052,ls),
(1540,1336,o),
(1271,1556,o),
(832,1556,cs),
(373,1556,o),
(147,1316,o),
(128,1036,c),
(636,1036,l),
(649,1131,o),
(719,1176,o),
(824,1176,cs),
(920,1176,o),
(987,1132,o),
(988,1052,cs),
(992,544,ls),
(993,404,o),
(873,324,o),
(748,324,cs),
(654,324,o),
(588,370,o),
(588,456,cs),
(588,535,o),
(644,597,o),
(732,608,cs),
(817,618,o),
(998,634,o),
(1012,634,c),
(1010,930,l)
);
}
);
width = 1664;
}
);
unicode = 97;
userData = {
com.typemytype.robofont.guideline.magnetic.bPqRSFRUb5 = 5;
"interface.width-adjustments" = (
-16
);
};
}
{
color = (219,235,247,1);
glyphname = h;
kernLeft = B;
kernRight = a;
layers = (
{
anchors = (
{
name = bottom;
pos = (768,0);
},
{
name = cedilla;
pos = (272,-8);
},
{
name = cross;
pos = (272,1820);
},
{
name = top;
pos = (272,2304);
}
);
guides = (
{
angle = 90;
pos = (168,2460);
}
);
layerId = "B1F27B51-9973-4381-9301-4FE46FE1CA59";
shapes = (
{
closed = 1;
nodes = (
(304,1300,o),
(500,1492,o),
(772,1492,cs),
(1044,1492,o),
(1232,1304,o),
(1232,1032,cs),
(1232,0,l),
(1296,0,l),
(1296,1032,ls),
(1296,1340,o),
(1080,1556,o),
(772,1556,cs),
(560,1556,o),
(384,1452,o),
(312,1292,c),
(304,1292,l),
(304,2048,l),
(240,2048,l),
(240,0,l),
(304,0,l),
(304,1032,ls)
);
}
);
width = 1536;
},
{
anchors = (
{
name = bottom;
pos = (816,0);
},
{
name = cedilla;
pos = (360,0);
},
{
name = cross;
pos = (336,1792);
},
{
name = top;
pos = (336,2304);
}
);
associatedMasterId = "C698F293-3EC0-4A5A-A3A0-0FDB1F5CF265";
background = {
shapes = (
{
ref = n;
}
);
};
guides = (
{
angle = 90;
pos = (336,1860);
}
);
layerId = "095B7E00-95BA-4696-A193-5EF7BA9F3D8D";
name = "Oct 7 18, 23:36";
shapes = (
{
closed = 1;
nodes = (
(452,1216,o),
(660,1328,o),
(848,1328,cs),
(1052,1328,o),
(1184,1200,o),
(1184,976,cs),
(1184,0,l),
(1420,0,l),
(1420,976,ls),
(1420,1356,o),
(1212,1556,o),
(924,1556,cs),
(692,1556,o),
(544,1436,o),
(468,1320,c),
(452,1320,l),
(452,2048,l),
(216,2048,l),
(216,0,l),
(452,0,l),
(452,928,ls)
);
}
);
width = 1636;
},
{
anchors = (
{
name = bottom;
pos = (806,0);
},
{
name = cedilla;
pos = (338,0);
},
{
name = cross;
pos = (314,1792);
},
{
name = top;
pos = (314,2304);
}
);
background = {
shapes = (
{
ref = n;
}
);
};
guides = (
{
angle = 90;
pos = (292,1860);
}
);
layerId = "C698F293-3EC0-4A5A-A3A0-0FDB1F5CF265";
shapes = (
{
closed = 1;
nodes = (
(430,1192,o),
(601,1344,o),
(834,1344,cs),
(1056,1344,o),
(1190,1204,o),
(1190,960,cs),
(1190,0,l),
(1426,0,l),
(1426,976,ls),
(1426,1371,o),
(1216,1556,o),
(902,1556,cs),
(660,1556,o),
(522,1455,o),
(450,1296,c),
(430,1296,l),
(430,2048,l),
(194,2048,l),
(194,0,l),
(430,0,l),
(430,924,ls)
);
}
);
width = 1620;
},
{
anchors = (
{
name = bottom;
pos = (912,0);
},
{
name = cedilla;
pos = (404,0);
},
{
name = cross;
pos = (404,1748);
},
{
name = top;
pos = (408,2304);
}
);
guides = (
{
pos = (-136,1240);
},
{
pos = (-136,764);
},
{
angle = 90;
pos = (260,1696);
}
);
layerId = "5C20EF92-B63D-42A8-8878-93C2863E0093";
shapes = (
{
closed = 1;
nodes = (
(693,1016,o),
(781,1108,o),
(916,1108,cs),
(1057,1108,o),
(1137,1016,o),
(1136,864,cs),
(1136,0,l),
(1688,0,l),
(1688,980,ls),
(1689,1316,o),
(1477,1556,o),
(1152,1556,cs),
(925,1556,o),
(757,1440,o),
(688,1244,c),
(672,1244,l),
(672,2048,l),
(140,2048,l),
(140,0,l),
(692,0,l),
(692,864,ls)
);
}
);
width = 1820;
}
);
metricLeft = l;
metricRight = m;
note = "based on \"n\" and made slightly wider, brining the top vertical stem with it out.";
unicode = 104;
userData = {
"interface.width-adjustments" = (
-16
);
};
}
{
color = (219,235,247,1);
glyphname = z;
kernLeft = z;
kernRight = z;
layers = (
{
anchors = (
{
name = bottom;
pos = (660,0);
},
{
name = cross;
pos = (684,768);
},
{
name = top;
pos = (684,1792);
}
);
guides = (
{
angle = 90;
pos = (1080,2016);
},
{
angle = 90;
pos = (80,540);
}
);
layerId = "B1F27B51-9973-4381-9301-4FE46FE1CA59";
shapes = (
{
closed = 1;
nodes = (
(1224,0,l),
(1224,64,l),
(264,64,l),
(264,72,l),
(1184,1472,l),
(1184,1536,l),
(244,1536,l),
(244,1472,l),
(1104,1472,l),
(1104,1464,l),
(184,64,l),
(184,0,l)
);
}
);
width = 1368;
},
{
anchors = (
{
name = bottom;
pos = (730,0);
},
{
name = cross;
pos = (738,768);
},
{
name = top;
pos = (738,1792);
}
);
guides = (
{
angle = 90;
pos = (1304,500);
},
{
angle = 90;
pos = (128,380);
}
);
layerId = "C698F293-3EC0-4A5A-A3A0-0FDB1F5CF265";
shapes = (
{
closed = 1;
nodes = (
(1354,0,l),
(1354,220,l),
(478,220,l),
(478,236,l),
(1326,1348,l),
(1326,1536,l),
(178,1536,l),
(178,1316,l),
(1022,1316,l),
(1022,1300,l),
(150,180,l),
(150,0,l)
);
}
);
width = 1480;
},
{
anchors = (
{
name = bottom;
pos = (840,0);
},
{
name = cross;
pos = (828,768);
},
{
name = top;
pos = (832,1792);
}
);
guides = (
{
angle = 51.5719;
pos = (964,736);
},
{
angle = 90;
pos = (1356,484);
},
{
angle = 51.5719;
pos = (372,740);
},
{
angle = 90;
pos = (8,484);
}
);
layerId = "5C20EF92-B63D-42A8-8878-93C2863E0093";
shapes = (
{
closed = 1;
nodes = (
(1504,0,l),
(1504,420,l),
(868,420,l),
(868,428,l),
(1480,1200,l),
(1480,1536,l),
(180,1536,l),
(180,1116,l),
(828,1116,l),
(828,1108,l),
(156,304,l),
(156,0,l)
);
}
);
width = 1668;
}
);
unicode = 122;
userData = {
com.typemytype.robofont.guideline.magnetic.R2Ni5F405P = 5;
"interface.width-adjustments" = (
-16
);
};
}
{
color = (204,240,242,1);
glyphname = bar;
kernLeft = B;
kernRight = H;
layers = (
{
layerId = "B1F27B51-9973-4381-9301-4FE46FE1CA59";
shapes = (
{
closed = 1;
nodes = (
(320,2336,l),
(320,-288,l),
(384,-288,l),
(384,2336,l)
);
}
);
width = 704;
},
{
layerId = "C698F293-3EC0-4A5A-A3A0-0FDB1F5CF265";
shapes = (
{
closed = 1;
nodes = (
(338,2336,l),
(338,-288,l),
(538,-288,l),
(538,2336,l)
);
}
);
width = 876;
},
{
associatedMasterId = "C698F293-3EC0-4A5A-A3A0-0FDB1F5CF265";
layerId = "2F5FDBBF-DA9D-4D18-BEB5-3195D3C5CDE9";
name = "Jun 9, 21 22:36";
shapes = (
{
closed = 1;
nodes = (
(328,2708,l),
(328,-660,l),
(528,-660,l),
(528,2708,l)
);
}
);
width = 856;
},
{
associatedMasterId = "B1F27B51-9973-4381-9301-4FE46FE1CA59";
layerId = "A49B6D99-4459-432B-BF92-AC677EA0D298";
name = "Jun 9, 21 22:36";
shapes = (
{
closed = 1;
nodes = (
(320,2708,l),
(320,-660,l),
(384,-660,l),
(384,2708,l)
);
}
);
width = 704;
},
{
associatedMasterId = "C698F293-3EC0-4A5A-A3A0-0FDB1F5CF265";
layerId = "3A730F9F-07BE-4EAD-BA16-FC17DF1E0824";
name = "Jun 9, 21 22:38";
shapes = (
{
closed = 1;
nodes = (
(328,2048,l),
(328,-576,l),
(528,-576,l),
(528,2048,l)
);
}
);
width = 856;
},
{
associatedMasterId = "B1F27B51-9973-4381-9301-4FE46FE1CA59";
layerId = "2E2DBC1B-1FF2-4B46-B8BB-0223DAF78050";
name = "Jun 9, 21 22:38";
shapes = (
{
closed = 1;
nodes = (
(320,2048,l),
(320,-576,l),
(384,-576,l),
(384,2048,l)
);
}
);
width = 704;
},
{
guides = (
{
pos = (-180,1240);
},
{
pos = (-180,764);
}
);
layerId = "5C20EF92-B63D-42A8-8878-93C2863E0093";
shapes = (
{
closed = 1;
nodes = (
(300,2336,l),
(300,-288,l),
(840,-288,l),
(840,2336,l)
);
}
);
width = 1140;
},
{
associatedMasterId = "5C20EF92-B63D-42A8-8878-93C2863E0093";
guides = (
{
pos = (-228,1240);
},
{
pos = (-228,764);
}
);
layerId = "A3339B14-339A-4C22-A3B0-8EC984DF37E8";
name = "Jun 9, 21 23:30";
shapes = (
{
closed = 1;
nodes = (
(276,2708,l),
(276,-660,l),
(816,-660,l),
(816,2708,l)
);
}
);
width = 1092;
}
);
unicode = 124;
userData = {
"interface.width-adjustments" = (
-16
);
};
}
{
glyphname = AE;
kernLeft = A;
kernRight = E;
layers = (
{
anchors = (
{
name = top;
pos = (1696,2304);
}
);
layerId = "B1F27B51-9973-4381-9301-4FE46FE1CA59";
shapes = (
{
closed = 1;
nodes = (
(132,0,l),
(1144,1984,l),
(1344,1984,l),
(1344,0,l),
(2464,0,l),
(2464,64,l),
(1408,64,l),
(1408,992,l),
(2376,992,l),
(2376,1056,l),
(1408,1056,l),
(1408,1984,l),
(2436,1984,l),
(2436,2048,l),
(1104,2048,l),
(60,0,l)
);
},
{
closed = 1;
nodes = (
(1380,692,l),
(1380,756,l),
(460,756,l),
(460,692,l)
);
}
);
width = 2636;
},
{
anchors = (
{
name = top;
pos = (1798,2304);
}
);
background = {
shapes = (
{
ref = A;
},
{
pos = (1104,0);
ref = E;
}
);
};
layerId = "C698F293-3EC0-4A5A-A3A0-0FDB1F5CF265";
shapes = (
{
closed = 1;
nodes = (
(322,0,l),
(1182,1828,l),
(1330,1828,l),
(1330,0,l),
(2582,0,l),
(2582,220,l),
(1578,220,l),
(1578,916,l),
(2502,916,l),
(2502,1136,l),
(1578,1136,l),
(1578,1828,l),
(2566,1828,l),
(2566,2048,l),
(1042,2048,l),
(50,0,l)
);
},
{
closed = 1;
nodes = (
(1454,580,l),
(1454,800,l),
(486,800,l),
(486,580,l)
);
}
);
width = 2744;
},
{
anchors = (
{
name = top;
pos = (1860,2304);
}
);
background = {
shapes = (
{
pos = (4,0);
ref = A;
},
{
pos = (1224,0);
ref = E;
}
);
};
guides = (
{
angle = 90;
pos = (1240,2140);
}
);
layerId = "5C20EF92-B63D-42A8-8878-93C2863E0093";
shapes = (
{
closed = 1;
nodes = (
(676,0,l),
(1216,1484,l),
(1356,1484,l),
(1356,0,l),
(2828,0,l),
(2828,448,l),
(1912,448,l),
(1912,800,l),
(2756,800,l),
(2756,1248,l),
(1912,1248,l),
(1912,1600,l),
(2832,1600,l),
(2832,2048,l),
(864,2048,l),
(64,0,l)
);
},
{
closed = 1;
nodes = (
(1684,392,l),
(1684,808,l),
(556,808,l),
(556,392,l)
);
}
);
width = 2976;
}
);
metricLeft = A;
metricRight = E;
unicode = 198;
userData = {
interface.gridadjust.original = "{'width': 2647, 'leftMargin': -30, 'rightMargin': 45}";
"interface.width-adjustments" = (
-16
);
};
}
{
glyphname = ae;
kernLeft = a;
kernRight = e;
layers = (
{
anchors = (
{
name = top;
pos = (1268,1792);
}
);
layerId = "B1F27B51-9973-4381-9301-4FE46FE1CA59";
shapes = (
{
closed = 1;
nodes = (
(2116,-32,o),
(2280,156,o),
(2348,272,c),
(2296,308,l),
(2240,216,o),
(2100,32,o),
(1816,32,cs),
(1428,32,o),
(1212,368,o),
(1212,772,cs),
(1212,780,ls),
(1212,1188,o),
(1468,1496,o),
(1784,1496,cs),
(2096,1496,o),
(2348,1200,o),
(2348,832,c),
(1192,832,l),
(1192,768,l),
(2412,768,l),
(2412,832,ls),
(2412,1228,o),
(2140,1560,o),
(1784,1560,cs),
(1525,1560,o),
(1311,1386,o),
(1210,1124,c),
(1192,460,l),
(1284,168,o),
(1508,-32,o),
(1816,-32,cs)
);
},
{
closed = 1;
nodes = (
(849,-32,o),
(1090,102,o),
(1190,442,c),
(1212,442,l),
(1212,1104,ls),
(1212,1364,o),
(1020,1560,o),
(712,1560,cs),
(451,1560,o),
(232,1428,o),
(194,1204,c),
(260,1204,l),
(302,1394,o),
(490,1496,o),
(712,1496,cs),
(974,1496,o),
(1148,1340,o),
(1148,1104,cs),
(1148,656,ls),
(1148,284,o),
(916,32,o),
(624,32,cs),
(396,32,o),
(220,184,o),
(220,416,cs),
(220,612,o),
(327,704,o),
(720,734,cs),
(824,742,o),
(1158,769,o),
(1172,770,c),
(1170,832,l),
(1157,831,o),
(830,805,o),
(696,794,cs),
(264,759,o),
(156,624,o),
(156,416,cs),
(156,128,o),
(372,-32,o),
(624,-32,cs)
);
}
);
width = 2560;
},
{
anchors = (
{
name = top;
pos = (1262,1792);
}
);
guides = (
{
pos = (1288,888);
}
);
layerId = "C698F293-3EC0-4A5A-A3A0-0FDB1F5CF265";
shapes = (
{
closed = 1;
nodes = (
(2114,-32,o),
(2342,124,o),
(2414,356,c),
(2186,420,l),
(2126,260,o),
(1987,180,o),
(1802,180,cs),
(1518,180,o),
(1322,372,o),
(1322,720,cs),
(1322,856,ls),
(1322,1108,o),
(1495,1344,o),
(1778,1344,c),
(2034,1344,o),
(2198,1152,o),
(2198,892,c),
(1254,892,l),
(1254,688,l),
(2438,688,l),
(2438,788,ls),
(2438,1360,o),
(2098,1556,o),
(1778,1556,cs),
(1506,1556,o),
(1314,1416,o),
(1214,1184,c),
(1170,420,l),
(1222,152,o),
(1462,-32,o),
(1802,-32,c)
);
},
{
closed = 1;
nodes = (
(914,-36,o),
(1150,108,o),
(1210,280,c),
(1230,280,l),
(1322,1220,l),
(1230,1516,o),
(946,1556,o),
(774,1556,cs),
(437,1556,o),
(197,1386,o),
(166,1138,c),
(412,1138,l),
(448,1258,o),
(567,1348,o),
(762,1348,cs),
(997,1348,o),
(1114,1233,o),
(1114,1036,cs),
(1114,556,ls),
(1114,364,o),
(962,176,o),
(682,176,cs),
(494,176,o),
(358,260,o),
(358,424,cs),
(358,594,o),
(500,652,o),
(726,666,cs),
(810,671,o),
(1119,694,o),
(1134,694,c),
(1130,892,l),
(1109,891,o),
(809,876,o),
(698,868,cs),
(432,848,o),
(122,788,o),
(122,436,cs),
(122,136,o),
(354,-36,o),
(646,-36,cs)
);
}
);
width = 2560;
},
{
anchors = (
{
name = top;
pos = (1240,1792);
}
);
guides = (
{
pos = (-140,1148);
},
{
angle = 90;
pos = (1092,1700);
}
);
layerId = "5C20EF92-B63D-42A8-8878-93C2863E0093";
shapes = (
{
closed = 1;
nodes = (
(2133,-28,o),
(2416,176,o),
(2468,496,c),
(1964,496,l),
(1932,409,o),
(1841,360,o),
(1728,360,cs),
(1564,360,o),
(1468,468,o),
(1468,616,c),
(1468,944,l),
(1472,1076,o),
(1580,1168,o),
(1716,1168,cs),
(1852,1168,o),
(1956,1076,o),
(1960,944,c),
(1148,944,l),
(1148,640,l),
(2468,640,l),
(2468,768,ls),
(2468,1257,o),
(2168,1556,o),
(1704,1556,cs),
(1469,1556,o),
(1284,1480,o),
(1140,1264,c),
(1192,268,l),
(1288,64,o),
(1511,-28,o),
(1760,-28,cs)
);
},
{
closed = 1;
nodes = (
(865,-24,o),
(1108,60,o),
(1204,232,c),
(1236,232,l),
(1260,1352,l),
(1192,1480,o),
(1048,1556,o),
(832,1556,cs),
(373,1556,o),
(147,1316,o),
(128,1036,c),
(636,1036,l),
(649,1131,o),
(719,1176,o),
(824,1176,cs),
(920,1176,o),
(987,1132,o),
(988,1052,cs),
(992,544,ls),
(993,404,o),
(873,324,o),
(748,324,cs),
(654,324,o),
(588,382,o),
(588,468,cs),
(588,547,o),
(644,611,o),
(732,622,cs),
(817,632,o),
(998,638,o),
(1012,638,c),
(1010,944,l),
(998,943,o),
(772,936,o),
(634,928,cs),
(317,910,o),
(68,773,o),
(68,436,cs),
(68,130,o),
(274,-24,o),
(568,-24,cs)
);
}
);
width = 2552;
},
{
anchors = (
{
name = top;
pos = (1260,1768);
}
);
associatedMasterId = "5C20EF92-B63D-42A8-8878-93C2863E0093";
background = {
shapes = (
{
closed = 1;
nodes = (
(592,980,l),
(612,1088,o),
(688,1128,o),
(772,1128,cs),
(843,1128,o),
(908,1100,o),
(908,1032,cs),
(908,1024,l),
(908,956,o),
(796,948,o),
(732,944,cs),
(260,908,o),
(64,696,o),
(64,436,cs),
(64,84,o),
(388,-24,o),
(676,-24,cs),
(968,-24,o),
(1104,80,o),
(1136,136,c),
(1244,136,l),
(1332,1412,l),
(1196,1524,o),
(996,1556,o),
(800,1556,cs),
(368,1556,o),
(112,1324,o),
(84,1040,c)
);
},
{
closed = 1;
nodes = (
(908,392,o),
(792,356,o),
(716,356,cs),
(640,356,o),
(596,396,o),
(596,468,cs),
(596,608,o),
(756,616,o),
(828,624,cs),
(856,628,o),
(888,640,o),
(908,656,c),
(908,468,ls)
);
},
{
closed = 1;
nodes = (
(1912,588,l),
(1884,524,o),
(1848,404,o),
(1652,404,cs),
(1436,404,o),
(1368,556,o),
(1368,736,c),
(1368,964,o),
(1444,1132,o),
(1656,1132,cs),
(1808,1132,o),
(1892,1052,o),
(1892,952,c),
(1208,888,l),
(1208,560,l),
(2396,684,l),
(2396,848,ls),
(2396,1256,o),
(2128,1556,o),
(1652,1556,cs),
(1388,1556,o),
(1168,1460,o),
(1024,1308,c),
(1040,296,l),
(1176,96,o),
(1340,-28,o),
(1660,-28,c),
(2148,-28,o),
(2348,280,o),
(2388,464,c)
);
}
);
};
guides = (
{
pos = (-32,1148);
}
);
layerId = "4E94E60C-E360-4715-8E83-37B6A6DFE188";
name = "Sep 30 18, 12:40";
shapes = (
{
closed = 1;
nodes = (
(2144,-28,o),
(2336,276,o),
(2372,464,c),
(1872,520,l),
(1844,460,o),
(1788,404,o),
(1664,404,cs),
(1500,404,o),
(1424,504,o),
(1424,628,cs),
(1424,916,ls),
(1424,1046,o),
(1542,1132,o),
(1676,1132,cs),
(1803,1132,o),
(1912,1055,o),
(1912,952,c),
(1068,912,l),
(1068,580,l),
(2380,620,l),
(2380,848,ls),
(2380,1260,o),
(2116,1556,o),
(1652,1556,cs),
(1420,1556,o),
(1234,1481,o),
(1104,1348,c),
(1064,264,l),
(1192,74,o),
(1376,-28,o),
(1656,-28,c)
);
},
{
closed = 1;
nodes = (
(668,356,o),
(624,396,o),
(624,468,cs),
(624,603,o),
(779,621,o),
(828,628,cs),
(861,633,o),
(916,648,o),
(936,656,c),
(936,468,ls),
(936,392,o),
(820,356,o),
(744,356,cs)
);
},
{
closed = 1;
nodes = (
(816,-24,o),
(1000,98,o),
(1056,256,c),
(1252,256,l),
(1252,1416,l),
(1144,1507,o),
(1024,1556,o),
(828,1556,cs),
(396,1556,o),
(140,1324,o),
(112,1040,c),
(628,1016,l),
(636,1112,o),
(712,1152,o),
(792,1152,cs),
(879,1152,o),
(936,1102,o),
(936,1024,c),
(936,956,o),
(824,948,o),
(760,944,cs),
(271,913,o),
(92,696,o),
(92,432,cs),
(92,136,o),
(316,-24,o),
(580,-24,cs)
);
}
);
width = 2472;
},
{
anchors = (
{
name = top;
pos = (1240,1792);
}
);
associatedMasterId = "5C20EF92-B63D-42A8-8878-93C2863E0093";
background = {
anchors = (
{
name = bottom;
pos = (1696,0);
},
{
name = cedilla;
pos = (1704,0);
},
{
name = ogonek;
pos = (2156,68);
},
{
name = rhalfring;
pos = (860,1768);
},
{
name = top;
pos = (1696,1768);
}
);
hints = (
{
horizontal = 1;
origin = (0,18);
target = (0,17);
type = Stem;
},
{
origin = (0,26);
target = (0,9);
type = Stem;
},
{
horizontal = 1;
options = 4;
origin = (0,29);
type = TTSnap;
},
{
horizontal = 1;
options = 4;
origin = (0,18);
target = (0,17);
type = TTStem;
},
{
horizontal = 1;
options = 4;
origin = (0,23);
type = TTSnap;
},
{
origin = (0,16);
target = (0,20);
type = Stem;
},
{
horizontal = 1;
origin = (0,29);
target = (0,6);
type = Stem;
},
{
horizontal = 1;
origin = (0,13);
target = (0,23);
type = Stem;
},
{
origin = (1,4);
target = (1,5);
type = Stem;
},
{
horizontal = 1;
options = 4;
origin = (1,29);
type = TTSnap;
},
{
horizontal = 1;
options = 4;
origin = (1,9);
type = TTSnap;
},
{
horizontal = 1;
options = 4;
origin = (1,4);
type = TTSnap;
},
{
origin = (1,26);
target = (2,2);
type = Stem;
},
{
horizontal = 1;
origin = (1,16);
target = (1,9);
type = Stem;
},
{
horizontal = 1;
origin = (1,29);
target = (2,12);
type = Stem;
}
);
shapes = (
{
closed = 1;
nodes = (
(2144,-28,o),
(2416,176,o),
(2468,496,c),
(1964,496,l),
(1932,408,o),
(1840,360,o),
(1728,360,cs),
(1564,360,o),
(1468,468,o),
(1468,616,c),
(1468,944,l),
(1472,1076,o),
(1580,1168,o),
(1716,1168,cs),
(1852,1168,o),
(1956,1076,o),
(1960,944,c),
(1096,944,l),
(1096,640,l),
(2468,640,l),
(2468,768,ls),
(2468,1256,o),
(2168,1556,o),
(1704,1556,cs),
(1228,1556,o),
(924,1240,o),
(924,764,c),
(924,268,o),
(1224,-28,o),
(1716,-28,c)
);
},
{
closed = 1;
nodes = (
(768,-24,o),
(920,44,o),
(1012,216,c),
(1024,216,l),
(1024,0,l),
(1540,0,l),
(1540,1052,ls),
(1540,1336,o),
(1272,1556,o),
(832,1556,cs),
(372,1556,o),
(148,1316,o),
(128,1036,c),
(636,1036,l),
(648,1132,o),
(720,1176,o),
(824,1176,cs),
(920,1176,o),
(988,1132,o),
(988,1052,cs),
(988,1048,ls),
(988,960,o),
(892,932,o),
(632,912,cs),
(316,888,o),
(68,760,o),
(68,424,cs),
(68,120,o),
(276,-24,o),
(568,-24,cs)
);
},
{
closed = 1;
nodes = (
(656,324,o),
(588,372,o),
(588,456,cs),
(588,536,o),
(644,596,o),
(772,616,cs),
(860,632,o),
(936,648,o),
(992,672,c),
(992,544,ls),
(992,404,o),
(872,324,o),
(748,324,cs)
);
}
);
};
guides = (
{
pos = (-140,1148);
},
{
angle = 90;
pos = (1092,1700);
}
);
layerId = "248205E2-A02D-40DF-90CA-7DE3EEA3B5F0";
name = "Jun 17, 21 0:31";
shapes = (
{
closed = 1;
nodes = (
(2133,-28,o),
(2416,176,o),
(2468,496,c),
(1964,496,l),
(1932,409,o),
(1841,360,o),
(1728,360,cs),
(1564,360,o),
(1468,468,o),
(1468,616,c),
(1468,944,l),
(1472,1076,o),
(1580,1168,o),
(1716,1168,cs),
(1852,1168,o),
(1956,1076,o),
(1960,944,c),
(1148,944,l),
(1148,640,l),
(2468,640,l),
(2468,768,ls),
(2468,1257,o),
(2168,1556,o),
(1704,1556,cs),
(1469,1556,o),
(1284,1480,o),
(1140,1264,c),
(1192,268,l),
(1288,64,o),
(1511,-28,o),
(1760,-28,cs)
);
},
{
closed = 1;
nodes = (
(654,324,o),
(588,370,o),
(588,456,cs),
(588,535,o),
(644,596,o),
(772,616,cs),
(860,630,o),
(934,648,o),
(992,672,c),
(992,544,ls),
(992,404,o),
(873,324,o),
(748,324,cs)
);
},
{
closed = 1;
nodes = (
(865,-24,o),
(1108,60,o),
(1204,232,c),
(1236,232,l),
(1260,1352,l),
(1192,1480,o),
(1048,1556,o),
(844,1556,cs),
(368,1556,o),
(148,1316,o),
(128,1036,c),
(636,1036,l),
(648,1132,o),
(720,1176,o),
(824,1176,cs),
(921,1176,o),
(988,1133,o),
(988,1052,cs),
(988,1048,ls),
(988,960,o),
(892,932,o),
(632,912,cs),
(316,888,o),
(68,760,o),
(68,424,cs),
(68,120,o),
(273,-24,o),
(608,-24,cs)
);
}
);
width = 2552;
},
{
anchors = (
{
name = top;
pos = (1252,1792);
}
);
associatedMasterId = "C698F293-3EC0-4A5A-A3A0-0FDB1F5CF265";
background = {
anchors = (
{
name = bottom;
pos = (808,0);
},
{
name = cedilla;
pos = (1792,0);
},
{
name = ogonek;
pos = (1372,0);
},
{
name = rhalfring;
pos = (804,1792);
},
{
name = top;
pos = (820,1792);
}
);
hints = (
{
horizontal = 1;
place = (-36,212);
type = Stem;
},
{
horizontal = 1;
place = (1556,208);
type = Stem;
},
{
place = (144,236);
type = Stem;
},
{
place = (1136,236);
type = Stem;
},
{
horizontal = 1;
options = 4;
place = (-36,212);
type = TTStem;
},
{
horizontal = 1;
options = 4;
place = (1556,208);
type = TTStem;
},
{
horizontal = 1;
options = 4;
place = (0,0);
type = TTSnap;
},
{
horizontal = 1;
place = (-32,212);
type = Stem;
},
{
horizontal = 1;
place = (688,204);
type = Stem;
},
{
horizontal = 1;
place = (1556,212);
type = Stem;
},
{
place = (2220,240);
type = Stem;
},
{
horizontal = 1;
options = 4;
place = (-32,212);
type = TTStem;
},
{
horizontal = 1;
options = 4;
place = (688,204);
type = TTStem;
},
{
horizontal = 1;
options = 4;
place = (1556,212);
type = TTStem;
},
{
place = (1108,236);
type = Stem;
},
{
horizontal = 1;
place = (-32,212);
type = Stem;
},
{
horizontal = 1;
place = (688,204);
type = Stem;
},
{
horizontal = 1;
place = (1556,212);
type = Stem;
},
{
place = (2220,240);
type = Stem;
},
{
horizontal = 1;
options = 4;
place = (-32,212);
type = TTStem;
},
{
horizontal = 1;
options = 4;
place = (688,204);
type = TTStem;
},
{
horizontal = 1;
options = 4;
place = (1556,212);
type = TTStem;
},
{
place = (1108,236);
type = Stem;
}
);
shapes = (
{
ref = a;
},
{
pos = (964,0);
ref = e;
}
);
};
guides = (
{
pos = (1268,888);
}
);
layerId = "B7CD7F5B-3CB7-438D-9053-B9B48F837802";
name = "Jun 17, 21 0:31";
shapes = (
{
closed = 1;
nodes = (
(2104,-32,o),
(2332,124,o),
(2404,356,c),
(2176,420,l),
(2116,260,o),
(1977,180,o),
(1792,180,cs),
(1508,180,o),
(1312,372,o),
(1312,720,cs),
(1312,856,ls),
(1312,1108,o),
(1485,1344,o),
(1768,1344,c),
(2024,1344,o),
(2188,1152,o),
(2188,892,c),
(1244,892,l),
(1244,688,l),
(2428,688,l),
(2428,788,ls),
(2428,1360,o),
(2088,1556,o),
(1768,1556,cs),
(1496,1556,o),
(1304,1416,o),
(1204,1184,c),
(1160,420,l),
(1212,152,o),
(1452,-32,o),
(1792,-32,c)
);
},
{
closed = 1;
nodes = (
(484,176,o),
(348,260,o),
(348,424,cs),
(348,604,o),
(512,660,o),
(696,684,cs),
(796,696,o),
(1064,724,o),
(1104,772,c),
(1104,556,ls),
(1104,364,o),
(952,176,o),
(672,176,cs)
);
},
{
closed = 1;
nodes = (
(904,-36,o),
(1140,108,o),
(1200,280,c),
(1220,280,l),
(1312,1220,l),
(1220,1516,o),
(936,1556,o),
(772,1556,cs),
(540,1556,o),
(276,1476,o),
(156,1196,c),
(380,1116,l),
(432,1228,o),
(556,1348,o),
(780,1348,cs),
(996,1348,o),
(1104,1232,o),
(1104,1036,cs),
(1104,1028,ls),
(1104,916,o),
(988,924,o),
(708,888,cs),
(424,852,o),
(112,788,o),
(112,436,cs),
(112,136,o),
(344,-36,o),
(636,-36,cs)
);
}
);
width = 2540;
},
{
anchors = (
{
name = top;
pos = (1268,1792);
}
);
associatedMasterId = "B1F27B51-9973-4381-9301-4FE46FE1CA59";
layerId = "C1B37E62-1644-429F-9555-8F61FBE05924";
name = "Jun 17, 21 0:31";
shapes = (
{
closed = 1;
nodes = (
(2088,-32,o),
(2252,156,o),
(2320,272,c),
(2268,308,l),
(2212,216,o),
(2072,32,o),
(1788,32,cs),
(1400,32,o),
(1184,368,o),
(1184,772,cs),
(1184,780,ls),
(1192,1188,o),
(1440,1496,o),
(1756,1496,cs),
(2068,1496,o),
(2320,1200,o),
(2320,832,c),
(1164,832,l),
(1164,768,l),
(2384,768,l),
(2384,832,ls),
(2384,1228,o),
(2112,1560,o),
(1756,1560,cs),
(1497,1560,o),
(1285,1386,o),
(1184,1124,c),
(1164,460,l),
(1256,168,o),
(1480,-32,o),
(1788,-32,cs)
);
},
{
closed = 1;
nodes = (
(396,32,o),
(220,184,o),
(220,416,cs),
(220,612,o),
(348,736,o),
(760,784,cs),
(936,804,o),
(1072,832,o),
(1148,888,c),
(1148,656,ls),
(1148,284,o),
(916,32,o),
(624,32,cs)
);
},
{
closed = 1;
nodes = (
(856,-32,o),
(1108,112,o),
(1200,480,c),
(1212,480,l),
(1212,1104,ls),
(1212,1364,o),
(1024,1560,o),
(712,1560,cs),
(472,1560,o),
(272,1440,o),
(200,1248,c),
(260,1224,l),
(324,1396,o),
(496,1496,o),
(712,1496,cs),
(976,1496,o),
(1148,1340,o),
(1148,1104,cs),
(1148,1012,ls),
(1148,892,o),
(948,868,o),
(736,844,cs),
(264,788,o),
(156,624,o),
(156,416,cs),
(156,128,o),
(372,-32,o),
(624,-32,cs)
);
}
);
width = 2532;
},
{
anchors = (
{
name = top;
pos = (1268,1792);
}
);
associatedMasterId = "B1F27B51-9973-4381-9301-4FE46FE1CA59";
layerId = "B675F31D-4366-4D1B-A8FE-E30FA9DAAAC9";
name = "Jun 17, 21 0:43";
shapes = (
{
closed = 1;
nodes = (
(856,-32,o),
(1108,112,o),
(1200,480,c),
(1212,450,l),
(1212,1104,ls),
(1212,1364,o),
(1020,1560,o),
(712,1560,cs),
(451,1560,o),
(232,1428,o),
(194,1204,c),
(260,1204,l),
(302,1394,o),
(490,1496,o),
(712,1496,cs),
(974,1496,o),
(1148,1340,o),
(1148,1104,cs),
(1148,656,ls),
(1148,284,o),
(916,32,o),
(624,32,cs),
(396,32,o),
(220,184,o),
(220,416,cs),
(220,612,o),
(327,784,o),
(720,814,cs),
(824,822,o),
(1158,849,o),
(1172,850,c),
(1170,912,l),
(1157,911,o),
(830,885,o),
(696,874,cs),
(264,839,o),
(156,624,o),
(156,416,cs),
(156,128,o),
(372,-32,o),
(624,-32,cs)
);
},
{
closed = 1;
nodes = (
(2116,-32,o),
(2280,156,o),
(2348,272,c),
(2296,308,l),
(2240,216,o),
(2100,32,o),
(1816,32,cs),
(1428,32,o),
(1212,368,o),
(1212,772,cs),
(1212,780,ls),
(1212,1188,o),
(1468,1496,o),
(1784,1496,cs),
(2096,1496,o),
(2348,1200,o),
(2348,832,c),
(1192,832,l),
(1192,768,l),
(2412,768,l),
(2412,832,ls),
(2412,1228,o),
(2140,1560,o),
(1784,1560,cs),
(1525,1560,o),
(1311,1386,o),
(1210,1124,c),
(1192,460,l),
(1284,168,o),
(1508,-32,o),
(1816,-32,cs)
);
}
);
width = 2532;
}
);
metricLeft = a;
metricRight = e;
unicode = 230;
userData = {
com.typemytype.robofont.guideline.magnetic.47oKtqvLS5 = 5;
interface.gridadjust.original = "{'width': 2377, 'leftMargin': 106, 'rightMargin': 93}";
"interface.width-adjustments" = (
-16
);
};
}
{
glyphname = eth;
kernLeft = c;
kernRight = b;
layers = (
{
layerId = "B1F27B51-9973-4381-9301-4FE46FE1CA59";
shapes = (
{
closed = 1;
nodes = (
(1300,2072,l),
(516,1716,l),
(532,1654,l),
(1316,2010,l)
);
},
{
closed = 1;
nodes = (
(1172,-32,o),
(1460,275,o),
(1458,754,cs),
(1456,1321,o),
(1113,1879,o),
(558,2176,c),
(538,2112,l),
(939,1894,o),
(1222,1539,o),
(1350,1128,c),
(1340,1128,l),
(1216,1347,o),
(1033,1460,o),
(804,1460,cs),
(436,1460,o),
(148,1133,o),
(148,714,cs),
(148,295,o),
(436,-32,o),
(804,-32,cs)
);
},
{
closed = 1;
nodes = (
(472,32,o),
(212,331,o),
(212,714,cs),
(212,1095,o),
(474,1396,o),
(804,1396,cs),
(1135,1396,o),
(1396,1096,o),
(1396,714,cs),
(1396,331,o),
(1136,32,o),
(804,32,cs)
);
}
);
width = 1606;
},
{
layerId = "C698F293-3EC0-4A5A-A3A0-0FDB1F5CF265";
shapes = (
{
closed = 1;
nodes = (
(1238,2096,l),
(418,1700,l),
(486,1552,l),
(1306,1948,l)
);
},
{
closed = 1;
nodes = (
(1198,-32,o),
(1466,256,o),
(1466,752,cs),
(1466,1452,o),
(986,1944,o),
(538,2176,c),
(434,2008,l),
(910,1764,o),
(1110,1428,o),
(1198,1180,c),
(1178,1180,l),
(1110,1300,o),
(966,1440,o),
(734,1440,cs),
(394,1440,o),
(122,1140,o),
(122,704,cs),
(122,276,o),
(382,-32,o),
(794,-32,cs)
);
},
{
closed = 1;
nodes = (
(486,180,o),
(358,432,o),
(358,704,cs),
(358,992,o),
(502,1244,o),
(794,1244,cs),
(1110,1244,o),
(1238,948,o),
(1238,688,cs),
(1238,404,o),
(1086,180,o),
(794,180,cs)
);
}
);
width = 1588;
},
{
background = {
shapes = (
{
pos = (-18,0);
ref = o;
}
);
};
layerId = "5C20EF92-B63D-42A8-8878-93C2863E0093";
shapes = (
{
closed = 1;
nodes = (
(1296,2140,l),
(280,1608,l),
(280,1384,l),
(1296,1916,l)
);
},
{
closed = 1;
nodes = (
(1346,-32,o),
(1642,309,o),
(1642,812,cs),
(1642,1561,o),
(997,2057,o),
(280,2150,c),
(280,1884,l),
(558,1802,o),
(947,1587,o),
(1106,1280,c),
(1084,1280,l),
(997,1360,o),
(872,1410,o),
(716,1410,cs),
(325,1410,o),
(84,1092,o),
(84,704,cs),
(84,260,o),
(394,-32,o),
(852,-32,cs)
);
},
{
closed = 1;
nodes = (
(708,370,o),
(604,510,o),
(604,746,cs),
(604,967,o),
(693,1096,o),
(870,1096,cs),
(1044,1096,o),
(1136,968,o),
(1136,746,cs),
(1136,508,o),
(1030,370,o),
(870,370,cs)
);
}
);
width = 1726;
}
);
metricLeft = o;
metricRight = o;
unicode = 240;
userData = {
interface.gridadjust.original = "{'width': 1654, 'leftMargin': 166, 'rightMargin': 179}";
"interface.width-adjustments" = (
-16
);
};
}
{
glyphname = Hbar;
kernLeft = B;
kernRight = H;
layers = (
{
layerId = "B1F27B51-9973-4381-9301-4FE46FE1CA59";
shapes = (
{
closed = 1;
nodes = (
(140,1484,l),
(140,1420,l),
(1892,1420,l),
(1892,1484,l)
);
},
{
alignment = -1;
pos = (16,0);
ref = H;
}
);
width = 2032;
},
{
guides = (
{
orientation = center;
angle = 90;
pos = (928,2068);
}
);
layerId = "C698F293-3EC0-4A5A-A3A0-0FDB1F5CF265";
shapes = (
{
closed = 1;
nodes = (
(114,1616,l),
(114,1408,l),
(2030,1408,l),
(2030,1616,l)
);
},
{
pos = (52,0);
ref = H;
}
);
width = 2144;
},
{
layerId = "5C20EF92-B63D-42A8-8878-93C2863E0093";
shapes = (
{
closed = 1;
nodes = (
(76,1744,l),
(76,1480,l),
(2268,1480,l),
(2268,1744,l)
);
},
{
pos = (116,0);
ref = H;
}
);
width = 2344;
}
);
metricLeft = T;
metricRight = T;
unicode = 294;
userData = {
interface.gridadjust.original = "{'width': 1980.0, 'leftMargin': 43, 'rightMargin': 22.0}";
"interface.width-adjustments" = (
-16
);
};
}
{
glyphname = idotless;
kernLeft = idotless;
kernRight = idotless;
layers = (
{
anchors = (
{
name = bottom;
pos = (280,0);
},
{
name = cross;
pos = (280,800);
},
{
name = ogonek;
pos = (312,0);
},
{
name = top;
pos = (280,1792);
}
);
layerId = "B1F27B51-9973-4381-9301-4FE46FE1CA59";
shapes = (
{
closed = 1;
nodes = (
(312,0,l),
(312,1536,l),
(248,1536,l),
(248,0,l)
);
}
);
width = 560;
},
{
anchors = (
{
name = bottom;
pos = (314,0);
},
{
name = cross;
pos = (314,816);
},
{
name = ogonek;
pos = (430,0);
},
{
name = top;
pos = (314,1792);
}
);
layerId = "C698F293-3EC0-4A5A-A3A0-0FDB1F5CF265";
shapes = (
{
closed = 1;
nodes = (
(430,0,l),
(430,1536,l),
(194,1536,l),
(194,0,l)
);
}
);
width = 624;
},
{
anchors = (
{
name = bottom;
pos = (420,0);
},
{
name = cross;
pos = (412,840);
},
{
name = ogonek;
pos = (692,0);
},
{
name = top;
pos = (416,1792);
}
);
guides = (
{
orientation = center;
angle = 90;
pos = (228,1504);
}
);
layerId = "5C20EF92-B63D-42A8-8878-93C2863E0093";
shapes = (
{
closed = 1;
nodes = (
(692,0,l),
(692,1536,l),
(140,1536,l),
(140,0,l)
);
}
);
width = 832;
}
);
unicode = 305;
userData = {
"interface.width-adjustments" = (
-16
);
};
}
{
glyphname = Btopbar;
layers = (
{
layerId = "B1F27B51-9973-4381-9301-4FE46FE1CA59";
shapes = (
{
closed = 1;
nodes = (
(1056,0,ls),
(1409,0,o),
(1628,213,o),
(1628,556,cs),
(1628,867,o),
(1403,1068,o),
(1056,1068,cs),
(352,1068,l),
(352,1984,l),
(1400,1984,l),
(1400,2048,l),
(288,2048,l),
(288,0,l)
);
},
{
closed = 1;
nodes = (
(352,1004,l),
(1056,1004,ls),
(1364,1004,o),
(1565,828,o),
(1564,560,cs),
(1563,247,o),
(1376,64,o),
(1056,64,cs),
(352,64,l)
);
}
);
width = 1776;
},
{
guides = (
{
angle = 90;
pos = (148,1684);
}
);
layerId = "C698F293-3EC0-4A5A-A3A0-0FDB1F5CF265";
shapes = (
{
closed = 1;
nodes = (
(994,0,ls),
(1434,0,o),
(1674,248,o),
(1674,604,cs),
(1674,960,o),
(1434,1188,o),
(994,1188,cs),
(474,1188,l),
(474,1828,l),
(1462,1828,l),
(1462,2048,l),
(226,2048,l),
(226,0,l)
);
},
{
closed = 1;
nodes = (
(474,968,l),
(994,968,ls),
(1274,968,o),
(1430,804,o),
(1430,608,cs),
(1430,408,o),
(1274,216,o),
(994,216,cs),
(474,216,l)
);
}
);
width = 1796;
},
{
layerId = "5C20EF92-B63D-42A8-8878-93C2863E0093";
shapes = (
{
closed = 1;
nodes = (
(896,0,ls),
(1412,0,o),
(1756,280,o),
(1756,688,cs),
(1756,1096,o),
(1412,1360,o),
(896,1360,cs),
(688,1360,l),
(688,1600,l),
(1572,1600,l),
(1572,2048,l),
(132,2048,l),
(132,0,l)
);
},
{
closed = 1;
nodes = (
(688,936,l),
(896,936,ls),
(1096,936,o),
(1204,832,o),
(1204,692,cs),
(1204,544,o),
(1096,436,o),
(896,436,cs),
(688,436,l)
);
}
);
width = 1848;
}
);
metricLeft = B;
metricRight = b;
unicode = 386;
userData = {
com.typemytype.robofont.guideline.magnetic.8OVvpe1adm = 5;
interface.gridadjust.original = "{'width': 1777, 'leftMargin': 171, 'rightMargin': 158}";
"interface.width-adjustments" = (
-16
);
};
}
{
glyphname = tonesix;
kernLeft = T;
layers = (
{
layerId = "B1F27B51-9973-4381-9301-4FE46FE1CA59";
shapes = (
{
closed = 1;
nodes = (
(140,2048,l),
(140,1984,l),
(670,1984,l),
(670,2048,l)
);
},
{
alignment = -1;
pos = (318,0);
ref = b;
}
);
width = 1938;
},
{
layerId = "C698F293-3EC0-4A5A-A3A0-0FDB1F5CF265";
shapes = (
{
closed = 1;
nodes = (
(114,2048,l),
(114,1828,l),
(842,1828,l),
(842,2048,l)
);
},
{
alignment = -1;
pos = (380,0);
ref = b;
}
);
width = 2084;
},
{
layerId = "5C20EF92-B63D-42A8-8878-93C2863E0093";
shapes = (
{
closed = 1;
nodes = (
(76,2048,l),
(76,1600,l),
(1136,1600,l),
(1136,2048,l)
);
},
{
alignment = -1;
pos = (452,0);
ref = b;
}
);
width = 2268;
}
);
metricLeft = T;
metricRight = b;
unicode = 389;
userData = {
interface.gridadjust.original = "{'width': 1759, 'leftMargin': 138, 'rightMargin': 50}";
"interface.width-adjustments" = (
-16
);
};
}
{
glyphname = Chook;
kernLeft = C;
kernRight = C;
layers = (
{
layerId = "B1F27B51-9973-4381-9301-4FE46FE1CA59";
shapes = (
{
closed = 1;
nodes = (
(1804,1748,ls),
(1804,1916,o),
(1852,1980,o),
(1978,1980,cs),
(1997,1980,o),
(2015,1979,o),
(2028,1976,c),
(2028,2040,l),
(2016,2043,o),
(1998,2044,o),
(1978,2044,cs),
(1815,2044,o),
(1740,1951,o),
(1740,1748,cs),
(1740,1408,l),
(1804,1408,l,{
name = hr00;
})
);
},
{
alignment = -1;
ref = C;
}
);
width = 1922;
},
{
layerId = "C698F293-3EC0-4A5A-A3A0-0FDB1F5CF265";
shapes = (
{
closed = 1;
nodes = (
(1874,1664,ls),
(1874,1824,o),
(1970,1872,o),
(2098,1872,cs),
(2126,1872,o),
(2154,1868,o),
(2174,1864,c),
(2174,2064,l),
(2138,2076,o),
(2086,2076,o),
(2038,2076,cs),
(1814,2076,o),
(1638,1928,o),
(1638,1664,cs),
(1638,1408,l),
(1874,1408,l)
);
},
{
ref = C;
}
);
width = 2128;
},
{
guides = (
{
angle = 90;
pos = (-1720,0);
}
);
layerId = "5C20EF92-B63D-42A8-8878-93C2863E0093";
shapes = (
{
closed = 1;
nodes = (
(2044,1396,ls),
(2044,1612,o),
(2228,1684,o),
(2356,1684,c),
(2392,1684,o),
(2468,1680,o),
(2508,1680,c),
(2508,2120,l),
(2412,2132,o),
(2344,2132,o),
(2260,2132,cs),
(1864,2132,o),
(1508,1908,o),
(1508,1488,cs),
(1508,1280,l),
(2044,1280,l,{
name = hr00;
})
);
},
{
ref = C;
}
);
width = 2484;
}
);
metricLeft = C;
unicode = 391;
userData = {
interface.gridadjust.original = "{'width': 1998, 'leftMargin': 256, 'rightMargin': -44}";
};
}
{
glyphname = Ghook;
kernLeft = C;
kernRight = G;
layers = (
{
layerId = "B1F27B51-9973-4381-9301-4FE46FE1CA59";
shapes = (
{
closed = 1;
nodes = (
(1804,1640,ls),
(1804,1809,o),
(1853,1872,o),
(1994,1872,cs),
(2020,1872,o),
(2057,1870,o),
(2092,1866,c),
(2092,1930,l),
(2058,1934,o),
(2021,1936,o),
(1994,1936,cs),
(1818,1936,o),
(1740,1847,o),
(1740,1640,cs),
(1740,1408,l),
(1804,1408,l,{
name = hr00;
})
);
},
{
alignment = -1;
ref = G;
}
);
width = 1940;
},
{
layerId = "C698F293-3EC0-4A5A-A3A0-0FDB1F5CF265";
shapes = (
{
closed = 1;
nodes = (
(1878,1624,ls),
(1878,1784,o),
(1974,1832,o),
(2102,1832,cs),
(2130,1832,o),
(2158,1828,o),
(2178,1824,c),
(2178,2024,l),
(2142,2036,o),
(2090,2036,o),
(2042,2036,cs),
(1786,2036,o),
(1654,1888,o),
(1638,1624,cs),
(1626,1408,l),
(1878,1408,l)
);
},
{
ref = G;
}
);
width = 2132;
},
{
guides = (
{
angle = 90;
pos = (1724,996);
}
);
layerId = "5C20EF92-B63D-42A8-8878-93C2863E0093";
shapes = (
{
closed = 1;
nodes = (
(2024,1748,ls),
(2024,1920,o),
(2168,1944,o),
(2316,1944,cs),
(2364,1944,o),
(2412,1936,o),
(2464,1932,c),
(2464,2364,l),
(2372,2384,o),
(2300,2396,o),
(2220,2396,cs),
(1832,2396,o),
(1448,2168,o),
(1452,1748,cs),
(1456,1372,l),
(2024,1372,l)
);
},
{
ref = G;
}
);
width = 2464;
}
);
metricLeft = G;
unicode = 403;
userData = {
interface.gridadjust.original = "{'width': 1998, 'leftMargin': 256, 'rightMargin': -45}";
};
}
{
glyphname = mcapturn;
layers = (
{
layerId = "B1F27B51-9973-4381-9301-4FE46FE1CA59";
shapes = (
{
closed = 1;
nodes = (
(2020,0,l),
(2076,0,l),
(2076,2048,l),
(2012,2048,l),
(2012,314,l)
);
},
{
closed = 1;
nodes = (
(2012,232,o),
(1824,44,o),
(1592,44,cs),
(1320,44,o),
(1172,232,o),
(1172,504,cs),
(1172,2048,l),
(1108,2048,l),
(1108,504,ls),
(1108,196,o),
(1284,-20,o),
(1592,-20,cs),
(1860,-20,o),
(2076,196,o),
(2056,504,c),
(2012,504,l)
);
},
{
closed = 1;
nodes = (
(1108,232,o),
(920,44,o),
(688,44,cs),
(416,44,o),
(268,232,o),
(268,504,cs),
(268,2048,l),
(204,2048,l),
(204,504,ls),
(204,196,o),
(380,-20,o),
(688,-20,cs),
(956,-20,o),
(1172,196,o),
(1152,504,c),
(1108,504,l)
);
}
);
width = 2280;
},
{
layerId = "C698F293-3EC0-4A5A-A3A0-0FDB1F5CF265";
shapes = (
{
closed = 1;
nodes = (
(2034,0,l),
(2294,0,l),
(2294,2048,l),
(2022,2048,l),
(2022,292,l)
);
},
{
closed = 1;
nodes = (
(2042,416,o),
(1942,200,o),
(1646,200,cs),
(1518,200,o),
(1386,280,o),
(1386,608,c),
(1386,2048,l),
(1114,2048,l),
(1114,608,l),
(1114,128,o),
(1310,-28,o),
(1602,-28,cs),
(2010,-28,o),
(2170,280,o),
(2170,696,c),
(2042,692,l)
);
},
{
closed = 1;
nodes = (
(1138,416,o),
(1034,200,o),
(738,200,cs),
(610,200,o),
(482,280,o),
(482,608,cs),
(482,2048,l),
(206,2048,l),
(206,608,ls),
(206,132,o),
(398,-28,o),
(694,-28,cs),
(1102,-28,o),
(1266,280,o),
(1266,696,c),
(1138,692,l)
);
}
);
width = 2500;
},
{
layerId = "5C20EF92-B63D-42A8-8878-93C2863E0093";
shapes = (
{
closed = 1;
nodes = (
(2108,0,l),
(2568,0,l),
(2568,2048,l),
(2048,2048,l),
(2048,392,l)
);
},
{
closed = 1;
nodes = (
(2116,516,o),
(2040,384,o),
(1832,384,cs),
(1704,384,o),
(1644,460,o),
(1644,568,c),
(1644,2048,l),
(1132,2048,l),
(1132,568,l),
(1132,136,o),
(1336,-28,o),
(1656,-28,cs),
(2028,-28,o),
(2252,280,o),
(2252,696,c),
(2116,692,l)
);
},
{
closed = 1;
nodes = (
(1200,512,o),
(1124,384,o),
(916,384,cs),
(788,384,o),
(728,460,o),
(728,568,cs),
(728,2048,l),
(216,2048,l),
(216,568,ls),
(216,140,o),
(376,-28,o),
(740,-28,cs),
(1128,-28,o),
(1344,268,o),
(1344,696,c),
(1200,692,l)
);
}
);
width = 2780;
}
);
unicode = 412;
userData = {
interface.gridadjust.original = "{'width': 2558, 'leftMargin': 234, 'rightMargin': 234}";
"interface.width-adjustments" = (
-16
);
};
}
{
glyphname = Phook;
kernLeft = B;
kernRight = P;
layers = (
{
layerId = "B1F27B51-9973-4381-9301-4FE46FE1CA59";
shapes = (
{
closed = 1;
nodes = (
(204,1724,ls),
(204,1912,o),
(263,1984,o),
(416,1984,cs),
(592,1984,l,{
name = hr00;
}),
(592,2048,l),
(412,2048,ls),
(236,2048,o),
(141,1947,o),
(140,1760,cs),
(140,1688,l),
(204,1688,l)
);
},
{
alignment = -1;
pos = (164,0);
ref = P;
}
);
width = 1808;
},
{
associatedMasterId = "B1F27B51-9973-4381-9301-4FE46FE1CA59";
background = {
shapes = (
{
closed = 1;
nodes = (
(576,2048,l),
(476,2048,ls),
(312,2048,o),
(244,1888,o),
(244,1760,cs),
(244,1688,l),
(308,1688,l),
(308,1804,ls),
(308,1936,o),
(328,1984,o),
(484,1984,cs),
(576,1984,l,{
name = hr00;
})
);
}
);
};
layerId = "EAD41403-23A7-4556-BD97-FF67B573FEAA";
name = "Nov 25 18, 15:04";
shapes = (
{
closed = 0;
nodes = (
(576,2016,l),
(480,2016,l),
(308,2016,o),
(224,1932,o),
(224,1760,c),
(224,1688,l)
);
},
{
alignment = -1;
pos = (224,0);
ref = P;
}
);
width = 1940;
},
{
layerId = "C698F293-3EC0-4A5A-A3A0-0FDB1F5CF265";
shapes = (
{
closed = 1;
nodes = (
(346,1580,ls),
(346,1708,o),
(366,1828,o),
(526,1828,cs),
(722,1828,l),
(722,2048,l),
(522,2048,ls),
(258,2048,o),
(114,1864,o),
(114,1640,cs),
(114,1504,l),
(346,1504,l)
);
},
{
pos = (428,0);
ref = P;
}
);
width = 2172;
},
{
layerId = "5C20EF92-B63D-42A8-8878-93C2863E0093";
shapes = (
{
closed = 1;
nodes = (
(564,1344,ls),
(562,1464,o),
(610,1604,o),
(780,1604,cs),
(1144,1604,l,{
name = hr00;
}),
(1144,2048,l),
(780,2048,ls),
(350,2048,o),
(74,1828,o),
(76,1440,cs),
(76,1196,l),
(564,1196,l)
);
},
{
pos = (680,0);
ref = P;
}
);
width = 2528;
}
);
metricLeft = T;
metricRight = P;
note = "!post:RemoveOverlap";
unicode = 420;
userData = {
interface.gridadjust.original = "{'width': 2072, 'leftMargin': 41, 'rightMargin': 158}";
"interface.width-adjustments" = (
-16
);
};
}
{
glyphname = Tonetwo;
kernLeft = S;
kernRight = B;
layers = (
{
anchors = (
{
name = bottom;
pos = (828,-32);
},
{
name = cedilla;
pos = (828,0);
},
{
name = top;
pos = (828,2304);
}
);
layerId = "B1F27B51-9973-4381-9301-4FE46FE1CA59";
shapes = (
{
closed = 1;
nodes = (
(296,1816,o),
(503,2016,o),
(820,2016,cs),
(1133,2016,o),
(1364,1821,o),
(1364,1552,cs),
(1364,1344,o),
(1226,1202,o),
(932,1112,cs),
(700,1040,ls),
(346,931,o),
(184,772,o),
(184,520,cs),
(184,199,o),
(448,-32,o),
(836,-32,cs),
(1210,-32,o),
(1456,179,o),
(1476,480,c),
(1412,480,l),
(1392,215,o),
(1174,32,o),
(836,32,cs),
(484,32,o),
(248,230,o),
(248,520,cs),
(248,740,o),
(385,873,o),
(716,976,cs),
(948,1048,ls),
(1270,1149,o),
(1428,1315,o),
(1428,1552,cs),
(1428,1854,o),
(1170,2080,o),
(820,2080,cs),
(469,2080,o),
(232,1852,o),
(212,1536,c),
(276,1536,l)
);
}
);
width = 1660;
},
{
anchors = (
{
name = bottom;
pos = (874,-36);
},
{
name = cedilla;
pos = (874,0);
},
{
name = top;
pos = (878,2304);
}
);
layerId = "C698F293-3EC0-4A5A-A3A0-0FDB1F5CF265";
shapes = (
{
closed = 1;
nodes = (
(430,1738,o),
(618,1856,o),
(866,1856,cs),
(1138,1856,o),
(1318,1712,o),
(1318,1516,cs),
(1318,1296,o),
(1074,1216,o),
(922,1176,cs),
(714,1120,ls),
(502,1064,o),
(138,940,o),
(138,556,cs),
(138,224,o),
(406,-36,o),
(878,-36,cs),
(1318,-36,o),
(1590,192,o),
(1614,528,c),
(1358,528,l),
(1338,296,o),
(1122,188,o),
(878,188,cs),
(594,188,o),
(378,336,o),
(378,560,cs),
(378,764,o),
(570,840,o),
(786,900,cs),
(1038,972,ls),
(1358,1064,o),
(1558,1228,o),
(1558,1504,cs),
(1558,1848,o),
(1250,2076,o),
(858,2076,cs),
(462,2076,o),
(177,1845,o),
(166,1536,c),
(406,1536,l)
);
}
);
width = 1752;
},
{
anchors = (
{
name = bottom;
pos = (928,0);
},
{
name = cedilla;
pos = (932,0);
},
{
name = top;
pos = (936,2304);
}
);
layerId = "5C20EF92-B63D-42A8-8878-93C2863E0093";
shapes = (
{
closed = 1;
nodes = (
(651,1541,o),
(736,1620,o),
(916,1620,cs),
(1088,1620,o),
(1163,1554,o),
(1164,1464,cs),
(1169,1366,o),
(1082,1309,o),
(888,1268,cs),
(720,1232,ls),
(268,1135,o),
(82,916,o),
(80,604,cs),
(82,200,o),
(393,-24,o),
(912,-24,cs),
(1446,-24,o),
(1794,206,o),
(1796,720,c),
(1268,720,l),
(1259,532,o),
(1133,432,o),
(920,432,cs),
(742,432,o),
(650,503,o),
(648,604,cs,{
name = hr00;
}),
(650,697,o),
(728,754,o),
(956,804,cs),
(1160,848,ls),
(1523,926,o),
(1745,1104,o),
(1744,1424,cs),
(1747,1814,o),
(1403,2076,o),
(916,2076,cs),
(420,2076,o),
(110,1810,o),
(108,1408,c),
(640,1408,l)
);
}
);
width = 1876;
}
);
metricLeft = S;
metricRight = S;
unicode = 423;
userData = {
interface.gridadjust.original = "{'width': 1672.0, 'leftMargin': 105, 'rightMargin': 109.0}";
"interface.width-adjustments" = (
-16
);
};
}
{
glyphname = tpalatalhook;
kernLeft = t;
kernRight = t;
layers = (
{
layerId = "B1F27B51-9973-4381-9301-4FE46FE1CA59";
shapes = (
{
closed = 1;
nodes = (
(748,-232,ls),
(748,-420,o),
(676,-508,o),
(534,-508,cs),
(499,-508,o),
(466,-503,o),
(440,-496,c),
(440,-554,l),
(464,-566,o),
(500,-572,o),
(540,-572,cs),
(714,-572,o),
(812,-454,o),
(812,-232,cs),
(812,64,l),
(748,40,l)
);
},
{
alignment = -1;
ref = t;
}
);
width = 956;
},
{
layerId = "C698F293-3EC0-4A5A-A3A0-0FDB1F5CF265";
shapes = (
{
closed = 1;
nodes = (
(662,-164,ls),
(662,-324,o),
(566,-372,o),
(438,-372,cs),
(410,-372,o),
(382,-368,o),
(362,-364,c),
(362,-564,l),
(398,-576,o),
(450,-576,o),
(498,-576,cs),
(722,-576,o),
(898,-428,o),
(898,-164,cs),
(898,232,l),
(662,184,l)
);
},
{
ref = t;
}
);
width = 996;
},
{
layerId = "5C20EF92-B63D-42A8-8878-93C2863E0093";
shapes = (
{
closed = 1;
nodes = (
(756,-48,ls),
(756,-196,o),
(599,-220,o),
(504,-220,cs),
(451,-220,o),
(415,-216,o),
(376,-212,c),
(376,-548,l),
(451,-564,o),
(507,-572,o),
(584,-572,cs),
(907,-572,o),
(1096,-384,o),
(1096,-48,cs),
(1096,440,l),
(756,368,l)
);
},
{
ref = t;
}
);
width = 1160;
}
);
metricLeft = t;
metricRight = t;
unicode = 427;
userData = {
interface.gridadjust.original = "{'width': 924.0, 'leftMargin': 0, 'rightMargin': 96.0}";
"interface.width-adjustments" = (
-16
);
};
}
{
glyphname = Yhook;
kernLeft = Y;
kernRight = Y;
layers = (
{
background = {
shapes = (
{
closed = 1;
nodes = (
(828,996,l),
(828,1044,l),
(780,1044,l),
(780,996,l)
);
},
{
closed = 1;
nodes = (
(772,972,l),
(772,0,l),
(836,0,l),
(836,972,l),
(1474,1902,ls),
(1544,2004,o),
(1653,2016,o),
(1720,1972,c),
(1764,2014,l),
(1699,2087,o),
(1516,2081,o),
(1430,1956,cs),
(802,1040,l),
(116,2048,l),
(36,2048,l)
);
}
);
};
layerId = "B1F27B51-9973-4381-9301-4FE46FE1CA59";
shapes = (
{
closed = 1;
nodes = (
(796,996,l),
(796,1044,l),
(748,1044,l),
(748,996,l)
);
},
{
closed = 1;
nodes = (
(740,972,l),
(740,0,l),
(804,0,l),
(804,972,l),
(1454,1918,ls),
(1524,2019,o),
(1633,2031,o),
(1700,1988,c),
(1744,2030,l),
(1679,2102,o),
(1495,2096,o),
(1410,1972,cs),
(770,1040,l),
(84,2048,l),
(4,2048,l)
);
}
);
width = 1690;
},
{
background = {
shapes = (
{
closed = 1;
nodes = (
(964,1044,l),
(964,1092,l),
(916,1092,l),
(916,1044,l)
);
},
{
closed = 1;
nodes = (
(816,844,l),
(816,0,l),
(1064,0,l),
(1064,844,l),
(1572,1672,l),
(1612,1740,ls),
(1682,1860,o),
(1772,1872,o),
(1868,1832,c),
(1932,2032,l),
(1736,2124,o),
(1534,2064,o),
(1400,1844,cs),
(1356,1772,l),
(940,1072,l),
(360,2048,l),
(76,2048,l)
);
}
);
};
guides = (
{
angle = 238.6031;
pos = (1452,1588);
},
{
angle = 239.3277;
pos = (1260,1724);
}
);
layerId = "C698F293-3EC0-4A5A-A3A0-0FDB1F5CF265";
shapes = (
{
closed = 1;
nodes = (
(942,1044,l),
(942,1092,l),
(894,1092,l),
(894,1044,l)
);
},
{
closed = 1;
nodes = (
(794,844,l),
(794,0,l),
(1042,0,l),
(1042,844,l),
(1590,1740,ls),
(1662,1858,o),
(1750,1872,o),
(1846,1832,c),
(1910,2032,l),
(1714,2124,o),
(1510,2066,o),
(1378,1844,cs),
(918,1072,l),
(338,2048,l),
(54,2048,l)
);
}
);
width = 1944;
},
{
background = {
shapes = (
{
closed = 1;
nodes = (
(1924,1468,ls),
(2010,1616,o),
(2074,1656,o),
(2236,1612,c),
(2348,2020,l),
(2058,2120,o),
(1714,2096,o),
(1512,1744,cs),
(1432,1604,l),
(1888,1408,l)
);
},
{
closed = 1;
nodes = (
(1204,1168,l),
(1204,1216,l),
(1156,1216,l),
(1156,1168,l)
);
},
{
closed = 1;
nodes = (
(72,2048,l),
(904,756,l),
(904,0,l),
(1456,0,l),
(1456,756,l),
(1888,1408,l),
(1432,1604,l),
(1180,1196,l),
(668,2048,l)
);
}
);
};
guides = (
{
angle = 240.4178;
pos = (1036,1336);
},
{
angle = 238.4456;
pos = (1296,988);
}
);
layerId = "5C20EF92-B63D-42A8-8878-93C2863E0093";
shapes = (
{
closed = 1;
nodes = (
(1204,1168,l),
(1204,1216,l),
(1156,1216,l),
(1156,1168,l)
);
},
{
closed = 1;
nodes = (
(904,756,l),
(904,0,l),
(1456,0,l),
(1456,756,l),
(1932,1486,ls),
(2016,1614,o),
(2074,1656,o),
(2236,1612,c),
(2348,2020,l),
(2058,2120,o),
(1722,2090,o),
(1522,1760,cs),
(1180,1196,l),
(668,2048,l),
(72,2048,l)
);
}
);
width = 2380;
}
);
note = "!post:RemoveOverlap";
unicode = 435;
userData = {
com.typemytype.robofont.guideline.magnetic.1p4TietnVi = 5;
com.typemytype.robofont.guideline.magnetic.a19mK3ffcr = 5;
interface.gridadjust.original = "{'width': 1843, 'leftMargin': 18, 'rightMargin': -41}";
"interface.width-adjustments" = (
-16
);
};
}
{
glyphname = Ezh;
kernRight = B;
layers = (
{
anchors = (
{
name = top;
pos = (944,2304);
}
);
background = {
shapes = (
{
closed = 1;
nodes = (
(172,-292,o),
(519,-584,o),
(952,-584,cs),
(1451,-584,o),
(1736,-192,o),
(1736,212,cs),
(1736,676,o),
(1360,1032,o),
(808,1056,c),
(808,1064,l),
(1668,1996,l),
(1668,2048,l),
(280,2048,l),
(280,1984,l),
(1604,1984,l),
(1604,2021,l),
(712,1056,l),
(712,992,l),
(805,992,ls),
(1315,970,o),
(1672,648,o),
(1672,212,cs),
(1672,-209,o),
(1367,-520,o),
(952,-520,cs),
(547,-520,o),
(236,-250,o),
(236,100,c),
(172,100,l)
);
}
);
};
layerId = "B1F27B51-9973-4381-9301-4FE46FE1CA59";
shapes = (
{
closed = 1;
nodes = (
(140,-316,o),
(487,-608,o),
(920,-608,cs),
(1419,-608,o),
(1704,-216,o),
(1704,198,cs),
(1704,676,o),
(1328,1032,o),
(776,1056,c),
(776,1064,l),
(1636,1996,l),
(1636,2048,l),
(248,2048,l),
(248,1984,l),
(1572,1984,l),
(1572,2022,l),
(680,1056,l),
(680,992,l),
(774,992,ls),
(1283,970,o),
(1640,648,o),
(1640,198,cs),
(1640,-233,o),
(1335,-544,o),
(920,-544,cs),
(515,-544,o),
(204,-274,o),
(204,100,c),
(140,100,l)
);
}
);
width = 1888;
},
{
anchors = (
{
name = top;
pos = (932,2304);
}
);
associatedMasterId = "C698F293-3EC0-4A5A-A3A0-0FDB1F5CF265";
guides = (
{
pos = (968,-356);
}
);
layerId = "D009BD30-45A0-479A-BCCE-7610B0B5C5D4";
name = "Dec 31 18, 16:46";
shapes = (
{
closed = 1;
nodes = (
(1340,-576,o),
(1700,-220,o),
(1700,220,cs),
(1700,638,o),
(1373,980,o),
(864,1000,c),
(864,1016,l),
(1608,1868,l),
(1608,2048,l),
(164,2048,l),
(164,1828,l),
(1268,1828,l),
(1268,1812,l),
(548,988,l),
(548,776,l),
(784,776,ls),
(1216,776,o),
(1472,540,o),
(1472,220,cs),
(1472,-100,o),
(1216,-348,o),
(884,-348,cs),
(584,-348,o),
(400,-144,o),
(380,96,c),
(136,96,l),
(140,-284,o),
(464,-576,o),
(884,-576,cs)
);
}
);
width = 1860;
},
{
associatedMasterId = "C698F293-3EC0-4A5A-A3A0-0FDB1F5CF265";
layerId = "9E2C8951-9EEE-4515-A9C2-D17B826F81BB";
name = "Oct 9 18, 17:17";
shapes = (
{
closed = 1;
nodes = (
(156,-280,o),
(384,-572,o),
(872,-572,cs),
(1344,-572,o),
(1664,-340,o),
(1664,220,cs),
(1664,784,o),
(1348,1016,o),
(848,1016,cs),
(568,1016,l),
(568,796,l),
(848,796,ls),
(1204,796,o),
(1380,644,o),
(1380,220,cs),
(1380,-164,o),
(1232,-344,o),
(872,-344,cs),
(536,-344,o),
(448,-184,o),
(400,92,c),
(112,92,l)
);
},
{
closed = 1;
nodes = (
(1560,2004,l),
(1432,2004,l),
(540,1004,l),
(540,796,l),
(664,796,l),
(1560,1800,l)
);
},
{
closed = 1;
nodes = (
(164,2004,l),
(164,1772,l),
(1440,1772,l),
(1440,2004,l)
);
}
);
width = 1776;
},
{
anchors = (
{
name = top;
pos = (938,2304);
}
);
background = {
shapes = (
{
closed = 1;
nodes = (
(159,-293,o),
(505,-576,o),
(944,-576,cs),
(1433,-576,o),
(1760,-218,o),
(1760,268,cs),
(1760,750,o),
(1439,1092,o),
(984,1112,c),
(984,1132,l),
(1708,1868,l),
(1708,2048,l),
(252,2048,l),
(252,1824,l),
(1364,1824,l),
(1364,1808,l),
(680,1124,l),
(680,916,l),
(832,916,ls),
(1233,916,o),
(1516,657,o),
(1516,268,cs),
(1516,-86,o),
(1296,-352,o),
(948,-352,cs),
(654,-352,o),
(407,-161,o),
(388,108,c),
(136,108,l)
);
}
);
};
guides = (
{
pos = (1012,-356);
}
);
layerId = "C698F293-3EC0-4A5A-A3A0-0FDB1F5CF265";
shapes = (
{
closed = 1;
nodes = (
(137,-323,o),
(483,-606,o),
(922,-606,cs),
(1411,-606,o),
(1738,-248,o),
(1738,248,cs),
(1738,730,o),
(1417,1072,o),
(962,1092,c),
(962,1112,l),
(1686,1868,l),
(1686,2048,l),
(230,2048,l),
(230,1824,l),
(1342,1824,l),
(1342,1808,l),
(658,1104,l),
(658,896,l),
(810,896,ls),
(1211,896,o),
(1494,643,o),
(1494,244,cs),
(1494,-110,o),
(1274,-382,o),
(926,-382,cs),
(632,-382,o),
(385,-191,o),
(366,88,c),
(114,88,l)
);
}
);
width = 1876;
},
{
anchors = (
{
name = top;
pos = (972,2304);
}
);
background = {
shapes = (
{
closed = 1;
nodes = (
(84,-228,o),
(478,-544,o),
(968,-544,cs),
(1530,-544,o),
(1876,-125,o),
(1876,344,cs),
(1876,675,o),
(1704,1072,o),
(1196,1128,c),
(1196,1148,l),
(1824,1648,l),
(1824,2048,l),
(188,2048,l),
(188,1592,l),
(1156,1592,l),
(1156,1576,l),
(660,1184,l),
(660,800,l),
(928,800,ls),
(1152,800,o),
(1292,609,o),
(1292,380,cs),
(1292,181,o),
(1197,-84,o),
(972,-84,cs),
(821,-84,o),
(644,36,o),
(636,228,c),
(76,228,l)
);
}
);
};
layerId = "5C20EF92-B63D-42A8-8878-93C2863E0093";
shapes = (
{
closed = 1;
nodes = (
(84,-274,o),
(458,-608,o),
(968,-608,cs),
(1494,-608,o),
(1876,-225,o),
(1876,304,cs),
(1876,734,o),
(1609,1043,o),
(1196,1088,c),
(1196,1108,l),
(1824,1648,l),
(1824,2048,l),
(188,2048,l),
(188,1592,l),
(1156,1592,l),
(1156,1576,l),
(660,1144,l),
(660,760,l),
(928,760,ls),
(1139,760,o),
(1292,584,o),
(1292,294,cs),
(1292,36,o),
(1173,-148,o),
(960,-148,cs),
(778,-148,o),
(644,-13,o),
(636,188,c),
(76,188,l)
);
}
);
width = 1940;
},
{
associatedMasterId = "5C20EF92-B63D-42A8-8878-93C2863E0093";
layerId = "AE9CF621-502D-400E-91F7-8C8A1C2204F7";
name = "Oct 9 18, 18:32";
shapes = (
{
closed = 1;
nodes = (
(291,-324,o),
(643,-612,o),
(1160,-612,cs),
(1719,-612,o),
(2059,-244,o),
(2060,316,cs),
(2059,872,o),
(1699,1240,o),
(1168,1240,cs),
(872,1240,l),
(872,828,l),
(1168,828,ls),
(1371,828,o),
(1523,736,o),
(1524,316,cs),
(1523,-24,o),
(1415,-180,o),
(1160,-180,cs),
(951,-180,o),
(815,-112,o),
(808,108,c),
(272,108,l)
);
},
{
closed = 1;
nodes = (
(1896,2004,l),
(1568,2004,l),
(740,1092,l),
(740,828,l),
(1088,828,l),
(1896,1744,l)
);
},
{
closed = 1;
nodes = (
(252,2004,l),
(252,1572,l),
(1732,1572,l),
(1732,2004,l)
);
}
);
width = 2328;
}
);
metricLeft = T;
metricRight = B;
unicode = 439;
userData = {
interface.gridadjust.original = "{'width': 1821, 'leftMargin': 110, 'rightMargin': 160}";
"interface.width-adjustments" = (
-16
);
};
}
{
glyphname = Ezhreversed;
layers = (
{
anchors = (
{
name = top;
pos = (944,2304);
}
);
layerId = "B1F27B51-9973-4381-9301-4FE46FE1CA59";
shapes = (
{
closed = 1;
nodes = (
(1684,100,l),
(1684,-274,o),
(1373,-544,o),
(968,-544,cs),
(553,-544,o),
(248,-233,o),
(248,198,cs),
(248,648,o),
(605,970,o),
(1116,992,cs),
(1208,992,l),
(1208,1056,l),
(316,2022,l),
(316,1984,l),
(1640,1984,l),
(1640,2048,l),
(252,2048,l),
(252,1996,l),
(1112,1064,l),
(1112,1056,l),
(560,1032,o),
(184,676,o),
(184,198,cs),
(184,-216,o),
(469,-608,o),
(968,-608,cs),
(1401,-608,o),
(1748,-316,o),
(1748,100,c)
);
}
);
width = 1888;
},
{
anchors = (
{
name = top;
pos = (938,2304);
}
);
layerId = "C698F293-3EC0-4A5A-A3A0-0FDB1F5CF265";
shapes = (
{
closed = 1;
nodes = (
(1510,88,l),
(1491,-191,o),
(1244,-382,o),
(950,-382,cs),
(602,-382,o),
(382,-110,o),
(382,244,cs),
(382,643,o),
(665,896,o),
(1066,896,cs),
(1218,896,l),
(1218,1104,l),
(534,1808,l),
(534,1824,l),
(1646,1824,l),
(1646,2048,l),
(190,2048,l),
(190,1868,l),
(914,1112,l),
(914,1092,l),
(459,1072,o),
(138,730,o),
(138,248,cs),
(138,-248,o),
(465,-606,o),
(954,-606,cs),
(1393,-606,o),
(1739,-323,o),
(1762,88,c)
);
}
);
width = 1876;
},
{
anchors = (
{
name = top;
pos = (968,2304);
}
);
layerId = "5C20EF92-B63D-42A8-8878-93C2863E0093";
shapes = (
{
closed = 1;
nodes = (
(1304,188,l),
(1296,-13,o),
(1162,-148,o),
(980,-148,cs),
(767,-148,o),
(648,36,o),
(648,294,cs),
(648,584,o),
(801,760,o),
(1012,760,cs),
(1280,760,l),
(1280,1144,l),
(784,1576,l),
(784,1592,l),
(1752,1592,l),
(1752,2048,l),
(116,2048,l),
(116,1648,l),
(744,1108,l),
(744,1088,l),
(331,1043,o),
(64,734,o),
(64,304,cs),
(64,-225,o),
(446,-608,o),
(972,-608,cs),
(1482,-608,o),
(1856,-274,o),
(1864,188,c)
);
}
);
width = 1940;
}
);
metricLeft = "=|Ezh";
metricRight = "=|Ezh";
note = "mirror of Ezh";
unicode = 440;
userData = {
interface.gridadjust.original = "{'width': 1821, 'leftMargin': 160, 'rightMargin': 110}";
"interface.width-adjustments" = (
-16
);
};
}
{
glyphname = uni021C;
layers = (
{
background = {
shapes = (
{
closed = 1;
nodes = (
(965,678,o),
(1449,1095,o),
(1450,1520,cs),
(1451,1825,o),
(1210,2034,o),
(832,2034,cs),
(462,2034,o),
(181,1801,o),
(180,1492,c),
(244,1492,l),
(242,1762,o),
(500,1970,o),
(832,1970,cs),
(1171,1970,o),
(1383,1793,o),
(1386,1524,cs),
(1391,1135,o),
(938,748,o),
(280,556,c),
(280,492,l)
);
},
{
closed = 1;
nodes = (
(1318,879,o),
(1420,689,o),
(1420,440,cs),
(1420,-23,o),
(1144,-259,o),
(280,-534,c),
(280,-600,l),
(1188,-316,o),
(1486,-58,o),
(1484,444,cs),
(1483,709,o),
(1379,904,o),
(1176,1018,c),
(1136,968,l)
);
},
{
closed = 1;
nodes = (
(965,678,o),
(1449,1095,o),
(1450,1520,cs),
(1451,1825,o),
(1202,2034,o),
(840,2034,cs),
(454,2034,o),
(181,1801,o),
(180,1492,c),
(244,1492,l),
(242,1762,o),
(492,1970,o),
(840,1970,cs),
(1163,1970,o),
(1383,1793,o),
(1386,1524,cs),
(1391,1135,o),
(938,748,o),
(280,556,c),
(280,492,l)
);
},
{
closed = 1;
nodes = (
(1318,879,o),
(1420,697,o),
(1420,428,cs),
(1420,-15,o),
(1144,-259,o),
(280,-534,c),
(280,-600,l),
(1188,-316,o),
(1486,-50,o),
(1484,432,cs),
(1483,717,o),
(1379,904,o),
(1176,1018,c),
(1136,968,l)
);
}
);
};
layerId = "B1F27B51-9973-4381-9301-4FE46FE1CA59";
shapes = (
{
closed = 1;
nodes = (
(933,698,o),
(1417,1107,o),
(1418,1546,cs),
(1419,1859,o),
(1170,2076,o),
(808,2076,cs),
(422,2076,o),
(149,1843,o),
(148,1534,c),
(212,1534,l),
(210,1804,o),
(460,2012,o),
(808,2012,cs),
(1131,2012,o),
(1351,1827,o),
(1354,1550,cs),
(1358,1147,o),
(906,768,o),
(248,576,c),
(248,512,l)
);
},
{
closed = 1;
nodes = (
(1286,899,o),
(1388,711,o),
(1388,434,cs),
(1388,-21,o),
(1112,-259,o),
(248,-534,c),
(248,-600,l),
(1156,-316,o),
(1454,-56,o),
(1452,438,cs),
(1451,731,o),
(1347,924,o),
(1144,1038,c),
(1104,988,l)
);
}
);
width = 1600;
},
{
background = {
shapes = (
{
closed = 1;
nodes = (
(1024,620,o),
(1568,980,o),
(1568,1460,cs),
(1568,1832,o),
(1292,2032,o),
(856,2032,cs),
(488,2032,o),
(180,1816,o),
(180,1476,c),
(464,1476,l),
(464,1668,o),
(644,1800,o),
(856,1800,cs),
(1156,1800,o),
(1284,1644,o),
(1284,1464,cs),
(1284,1040,o),
(932,840,o),
(304,652,c),
(304,444,l)
);
},
{
closed = 1;
nodes = (
(1252,812,o),
(1312,692,o),
(1312,452,cs),
(1312,-36,o),
(940,-244,o),
(304,-372,c),
(304,-600,l),
(1052,-448,o),
(1600,-204,o),
(1600,448,cs),
(1600,760,o),
(1468,944,o),
(1240,1028,c),
(1100,872,l)
);
}
);
};
layerId = "C698F293-3EC0-4A5A-A3A0-0FDB1F5CF265";
shapes = (
{
closed = 1;
nodes = (
(1002,620,o),
(1546,990,o),
(1546,1490,cs),
(1546,1866,o),
(1256,2076,o),
(860,2076,cs),
(452,2076,o),
(158,1860,o),
(158,1520,c),
(442,1520,l),
(442,1712,o),
(606,1844,o),
(860,1844,cs),
(1118,1844,o),
(1262,1706,o),
(1262,1464,cs),
(1262,1078,o),
(910,860,o),
(282,672,c),
(282,464,l)
);
},
{
closed = 1;
nodes = (
(1230,832,o),
(1290,700,o),
(1290,468,cs),
(1290,-48,o),
(918,-244,o),
(282,-372,c),
(282,-600,l),
(1030,-448,o),
(1578,-204,o),
(1578,448,cs),
(1578,780,o),
(1446,964,o),
(1218,1048,c),
(1078,892,l)
);
}
);
width = 1732;
},
{
background = {
shapes = (
{
closed = 1;
nodes = (
(1280,632,o),
(1760,872,o),
(1760,1460,cs),
(1760,1832,o),
(1436,2028,o),
(956,2028,cs),
(552,2028,o),
(172,1828,o),
(172,1448,c),
(708,1448,l),
(708,1560,o),
(828,1600,o),
(956,1600,cs),
(1156,1600,o),
(1228,1516,o),
(1228,1364,cs),
(1228,1124,o),
(1092,1024,o),
(340,804,c),
(340,400,l)
);
},
{
closed = 1;
nodes = (
(1156,696,o),
(1252,688,o),
(1252,504,cs),
(1252,204,o),
(948,-64,o),
(340,-176,c),
(340,-600,l),
(1176,-516,o),
(1788,-100,o),
(1788,492,cs),
(1788,820,o),
(1488,1024,o),
(1044,988,c),
(992,672,l)
);
}
);
};
layerId = "5C20EF92-B63D-42A8-8878-93C2863E0093";
shapes = (
{
closed = 1;
nodes = (
(1398,681,o),
(1760,971,o),
(1760,1460,cs),
(1760,1884,o),
(1459,2076,o),
(956,2076,cs),
(497,2076,o),
(172,1835,o),
(172,1496,c),
(708,1496,l),
(708,1591,o),
(801,1648,o),
(956,1648,cs),
(1144,1648,o),
(1228,1575,o),
(1228,1384,cs),
(1228,1137,o),
(1071,1038,o),
(340,824,c),
(340,420,l)
);
},
{
closed = 1;
nodes = (
(1190,721,o),
(1252,681,o),
(1252,504,cs),
(1252,183,o),
(911,-71,o),
(340,-176,c),
(340,-600,l),
(1211,-513,o),
(1788,-77,o),
(1788,492,cs),
(1788,842,o),
(1485,1044,o),
(1044,1008,c),
(992,692,l)
);
}
);
width = 1960;
}
);
unicode = 540;
userData = {
interface.gridadjust.original = "{'width': 1690, 'leftMargin': 124, 'rightMargin': 146}";
"interface.width-adjustments" = (
-16
);
};
}
{
glyphname = uni0221;
kernLeft = c;
layers = (
{
layerId = "B1F27B51-9973-4381-9301-4FE46FE1CA59";
shapes = (
{
closed = 1;
nodes = (
(1264,-220,l),
(1264,-415,o),
(1420,-564,o),
(1620,-564,cs),
(1815,-564,o),
(1968,-425,o),
(1968,-252,cs),
(1968,-79,o),
(1815,60,o),
(1616,60,cs),
(1435,60,o),
(1293,-56,o),
(1098,-368,cs),
(1008,-512,l),
(1062,-544,l),
(1150,-404,ls),
(1333,-113,o),
(1460,-4,o),
(1616,-4,cs),
(1778,-4,o),
(1904,-115,o),
(1904,-252,cs),
(1904,-389,o),
(1780,-500,o),
(1620,-500,cs),
(1454,-500,o),
(1328,-380,o),
(1328,-220,cs),
(1328,82,l),
(1264,82,l)
);
},
{
alignment = -1;
pos = (-4,0);
ref = d;
}
);
width = 1962;
},
{
background = {
shapes = (
{
closed = 0;
nodes = (
(1260,-140,ls),
(1260,-344,o),
(1376,-572,o),
(1684,-572,cs),
(1938,-572,o),
(2096,-417,o),
(2096,-196,cs),
(2096,4,o),
(1962,156,o),
(1704,156,cs),
(1447,156,o),
(1292,4,o),
(948,-364,c),
(1100,-520,l),
(1424,-176,o),
(1567,-56,o),
(1672,-56,cs),
(1810,-56,o),
(1852,-127,o),
(1852,-208,cs),
(1852,-315,o),
(1773,-368,o),
(1684,-368,cs),
(1577,-368,o),
(1496,-292,o),
(1496,-200,cs)
);
}
);
};
layerId = "C698F293-3EC0-4A5A-A3A0-0FDB1F5CF265";
shapes = (
{
closed = 1;
nodes = (
(1242,-144,l),
(1242,-348,o),
(1358,-576,o),
(1666,-576,cs),
(1914,-576,o),
(2070,-428,o),
(2070,-212,cs),
(2070,8,o),
(1906,152,o),
(1686,152,cs),
(1538,152,o),
(1370,84,o),
(1242,-48,cs),
(930,-368,l),
(1082,-524,l),
(1458,-144,ls),
(1518,-84,o),
(1594,-40,o),
(1690,-56,cs),
(1774,-68,o),
(1826,-128,o),
(1826,-212,cs),
(1826,-304,o),
(1762,-372,o),
(1666,-372,cs),
(1566,-372,o),
(1478,-300,o),
(1478,-164,c),
(1478,336,l),
(1242,336,l)
);
},
{
ref = d;
}
);
width = 1980;
},
{
layerId = "5C20EF92-B63D-42A8-8878-93C2863E0093";
shapes = (
{
closed = 1;
nodes = (
(1128,-16,l),
(1129,-352,o),
(1289,-576,o),
(1784,-576,cs),
(2173,-576,o),
(2357,-444,o),
(2356,-224,cs),
(2357,12,o),
(2149,180,o),
(1748,180,cs),
(1521,180,o),
(1357,128,o),
(1184,40,c),
(744,-272,l),
(952,-592,l),
(1388,-292,ls),
(1553,-179,o),
(1677,-112,o),
(1752,-108,cs),
(1865,-102,o),
(1909,-152,o),
(1908,-208,cs),
(1909,-256,o),
(1861,-288,o),
(1800,-288,cs),
(1737,-288,o),
(1685,-256,o),
(1684,-168,c),
(1684,348,l),
(1128,348,l)
);
},
{
pos = (8,0);
ref = d;
}
);
width = 2020;
}
);
unicode = 545;
userData = {
interface.gridadjust.original = "{'width': 2013.0, 'leftMargin': 256, 'rightMargin': 41.0}";
"interface.width-adjustments" = (
-16
);
};
}
{
glyphname = tcurl;
kernLeft = t;
kernRight = t;
layers = (
{
guides = (
{
angle = 90;
pos = (288,908);
}
);
layerId = "B1F27B51-9973-4381-9301-4FE46FE1CA59";
shapes = (
{
closed = 1;
nodes = (
(360,316,ls),
(360,121,o),
(516,-28,o),
(716,-28,cs),
(911,-28,o),
(1064,111,o),
(1064,284,cs),
(1064,457,o),
(911,596,o),
(712,596,cs),
(507,596,o),
(349,449,o),
(112,36,c),
(168,4,l),
(394,399,o),
(534,532,o),
(712,532,cs),
(874,532,o),
(1000,421,o),
(1000,284,cs),
(1000,147,o),
(876,36,o),
(716,36,cs),
(550,36,o),
(424,156,o),
(424,316,cs),
(424,1904,l),
(360,1904,l)
);
},
{
closed = 1;
nodes = (
(136,1536,l),
(136,1472,l),
(744,1472,l),
(744,1536,l)
);
}
);
width = 1208;
},
{
associatedMasterId = "B1F27B51-9973-4381-9301-4FE46FE1CA59";
background = {
shapes = (
{
closed = 1;
nodes = (
(897,4,o),
(1040,147,o),
(1040,324,cs),
(1040,501,o),
(897,644,o),
(720,644,cs),
(543,644,o),
(400,501,o),
(400,324,cs),
(400,147,o),
(543,4,o),
(720,4,cs)
);
},
{
closed = 1;
nodes = (
(368,324,ls),
(368,108,o),
(532,-28,o),
(720,-28,cs),
(768,-28,o),
(804,-20,o),
(844,-4,c),
(824,56,l),
(788,44,o),
(760,36,o),
(720,36,cs),
(568,36,o),
(432,144,o),
(432,324,cs),
(432,1904,l),
(368,1904,l)
);
}
);
};
guides = (
{
angle = 90;
pos = (400,324);
},
{
pos = (1048,644);
}
);
layerId = "DA8170FF-E5D6-4918-B9CC-C345C9652615";
name = "Nov 26 18, 10:42";
shapes = (
{
closed = 1;
nodes = (
(144,1536,l),
(144,1472,l),
(752,1472,l),
(752,1536,l)
);
},
{
closed = 0;
nodes = (
(148,20,l),
(368,404,o),
(517,564,o),
(720,564,cs),
(902,564,o),
(1040,437,o),
(1040,284,cs),
(1040,131,o),
(901,4,o),
(728,4,cs),
(545,4,o),
(400,147,o),
(400,324,cs),
(400,1904,l)
);
}
);
width = 1186;
},
{
background = {
shapes = (
{
pos = (80,0);
ref = t;
}
);
};
layerId = "C698F293-3EC0-4A5A-A3A0-0FDB1F5CF265";
shapes = (
{
closed = 1;
nodes = (
(378,400,ls),
(378,196,o),
(494,-32,o),
(802,-32,cs),
(1056,-32,o),
(1214,123,o),
(1214,344,cs),
(1214,544,o),
(1080,696,o),
(822,696,cs),
(565,696,o),
(410,544,o),
(66,176,c),
(218,20,l),
(542,364,o),
(685,484,o),
(790,484,cs),
(928,484,o),
(970,413,o),
(970,332,cs),
(970,225,o),
(891,172,o),
(802,172,cs),
(695,172,o),
(614,248,o),
(614,340,cs),
(614,1904,l),
(378,1904,l)
);
},
{
closed = 1;
nodes = (
(146,1536,l),
(146,1336,l),
(942,1336,l),
(942,1536,l)
);
}
);
width = 1312;
},
{
background = {
shapes = (
{
pos = (144,0);
ref = t;
}
);
};
layerId = "5C20EF92-B63D-42A8-8878-93C2863E0093";
shapes = (
{
closed = 1;
nodes = (
(384,528,ls),
(384,48,o),
(741,-32,o),
(988,-32,cs),
(1415,-32,o),
(1520,236,o),
(1520,416,cs),
(1520,648,o),
(1341,820,o),
(1080,820,cs),
(822,820,o),
(392,652,o),
(44,292,c),
(256,4,l),
(556,324,o),
(885,472,o),
(1032,472,cs),
(1079,472,o),
(1112,442,o),
(1112,400,cs),
(1112,351,o),
(1081,316,o),
(1036,316,cs),
(977,316,o),
(936,359,o),
(936,420,cs),
(936,1904,l),
(384,1904,l)
);
},
{
closed = 1;
nodes = (
(188,1536,l),
(188,1136,l),
(1200,1136,l),
(1200,1536,l)
);
}
);
width = 1584;
}
);
metricLeft = t;
metricRight = t;
note = "recipe: offset curve 32, no auto";
unicode = 566;
userData = {
interface.gridadjust.original = "{'width': 1233, 'leftMargin': 28, 'rightMargin': 41}";
"interface.width-adjustments" = (
-16
);
};
}
{
glyphname = uni023B;
kernLeft = C;
kernRight = C;
layers = (
{
layerId = "B1F27B51-9973-4381-9301-4FE46FE1CA59";
shapes = (
{
closed = 1;
nodes = (
(540,-260,l),
(1536,2308,l),
(1468,2308,l),
(472,-260,l)
);
},
{
ref = C;
}
);
width = 1972;
},
{
guides = (
{
angle = 90;
pos = (972,1756);
}
);
layerId = "C698F293-3EC0-4A5A-A3A0-0FDB1F5CF265";
shapes = (
{
closed = 1;
nodes = (
(670,-260,l),
(1582,2308,l),
(1354,2308,l),
(442,-260,l)
);
},
{
ref = C;
}
);
width = 2004;
},
{
layerId = "5C20EF92-B63D-42A8-8878-93C2863E0093";
shapes = (
{
closed = 1;
nodes = (
(840,-260,l),
(1616,2308,l),
(1332,2308,l),
(556,-260,l)
);
},
{
ref = C;
}
);
width = 2164;
}
);
metricLeft = C;
metricRight = C;
unicode = 571;
userData = {
com.typemytype.robofont.guideline.magnetic.7GS4PBDdqi = 5;
interface.gridadjust.original = "{'width': 1834, 'leftMargin': 256, 'rightMargin': 2}";
"interface.width-adjustments" = (
-16
);
};
}
{
glyphname = oopen;
layers = (
{
background = {
shapes = (
{
closed = 1;
nodes = (
(177,159,o),
(423,-28,o),
(712,-28,cs),
(1057,-28,o),
(1300,283,o),
(1300,724,cs),
(1300,774,ls),
(1300,1225,o),
(1058,1516,o),
(684,1516,cs),
(388,1516,o),
(185,1338,o),
(120,1024,c),
(186,1024,l),
(250,1303,o),
(424,1452,o),
(684,1452,cs),
(1023,1452,o),
(1236,1190,o),
(1236,772,cs),
(1236,724,ls),
(1236,319,o),
(1020,36,o),
(712,36,cs),
(458,36,o),
(238,198,o),
(186,424,c),
(120,424,l)
);
}
);
};
layerId = "B1F27B51-9973-4381-9301-4FE46FE1CA59";
shapes = (
{
closed = 1;
nodes = (
(145,159,o),
(391,-28,o),
(668,-28,cs),
(1025,-28,o),
(1268,283,o),
(1268,724,cs),
(1268,774,ls),
(1268,1269,o),
(1026,1560,o),
(652,1560,cs),
(356,1560,o),
(153,1382,o),
(88,1024,c),
(154,1024,l),
(218,1347,o),
(392,1496,o),
(652,1496,cs),
(991,1496,o),
(1204,1234,o),
(1204,772,cs),
(1204,724,ls),
(1204,319,o),
(988,36,o),
(668,36,cs),
(426,36,o),
(206,198,o),
(154,424,c),
(88,424,l)
);
}
);
width = 1358;
},
{
background = {
shapes = (
{
closed = 1;
nodes = (
(144,212,o),
(408,-28,o),
(724,-28,cs),
(1180,-28,o),
(1392,320,o),
(1392,716,cs),
(1392,772,ls),
(1392,1168,o),
(1180,1516,o),
(724,1516,cs),
(372,1516,o),
(144,1276,o),
(128,976,c),
(388,976,l),
(404,1148,o),
(524,1296,o),
(724,1296,cs),
(1032,1296,o),
(1120,1024,o),
(1120,772,cs),
(1120,716,ls),
(1120,464,o),
(1036,192,o),
(724,192,cs),
(548,192,o),
(404,316,o),
(388,472,c),
(128,472,l)
);
}
);
};
layerId = "C698F293-3EC0-4A5A-A3A0-0FDB1F5CF265";
shapes = (
{
closed = 1;
nodes = (
(122,212,o),
(366,-28,o),
(716,-28,cs),
(1138,-28,o),
(1370,320,o),
(1370,716,cs),
(1370,792,ls),
(1370,1208,o),
(1150,1556,o),
(708,1556,cs),
(342,1556,o),
(122,1316,o),
(106,976,c),
(366,976,l),
(382,1188,o),
(492,1336,o),
(708,1336,cs),
(1000,1336,o),
(1098,1064,o),
(1098,792,cs),
(1098,716,ls),
(1098,464,o),
(1006,192,o),
(714,192,cs),
(518,192,o),
(382,316,o),
(366,472,c),
(106,472,l)
);
}
);
width = 1476;
},
{
background = {
shapes = (
{
closed = 1;
nodes = (
(137,188,o),
(425,-28,o),
(804,-28,cs),
(1293,-28,o),
(1545,288,o),
(1544,732,cs),
(1544,756,ls),
(1545,1196,o),
(1293,1516,o),
(808,1516,cs),
(421,1516,o),
(137,1304,o),
(140,896,c),
(624,896,l),
(621,1012,o),
(681,1104,o),
(820,1104,cs),
(1025,1104,o),
(1025,900,o),
(1024,756,cs),
(1024,732,ls),
(1025,548,o),
(1017,388,o),
(820,388,cs),
(693,388,o),
(621,440,o),
(624,556,c),
(140,556,l)
);
}
);
};
layerId = "5C20EF92-B63D-42A8-8878-93C2863E0093";
shapes = (
{
closed = 1;
nodes = (
(137,188,o),
(425,-28,o),
(804,-28,cs),
(1293,-28,o),
(1545,288,o),
(1544,752,cs),
(1544,776,ls),
(1544,1236,o),
(1293,1556,o),
(808,1556,cs),
(421,1556,o),
(137,1344,o),
(140,896,c),
(624,896,l),
(621,1052,o),
(681,1144,o),
(820,1144,cs),
(1025,1144,o),
(1024,940,o),
(1024,776,cs),
(1024,752,ls),
(1025,548,o),
(1017,388,o),
(820,388,cs),
(693,388,o),
(621,440,o),
(624,556,c),
(140,556,l)
);
}
);
width = 1684;
}
);
unicode = 596;
userData = {
interface.gridadjust.original = "{'width': 1480, 'leftMargin': 88, 'rightMargin': 127}";
"interface.width-adjustments" = (
-16
);
};
}
{
glyphname = dhook;
kernLeft = c;
layers = (
{
layerId = "B1F27B51-9973-4381-9301-4FE46FE1CA59";
shapes = (
{
closed = 1;
nodes = (
(986,-32,o),
(1176,130,o),
(1260,384,c),
(1324,384,l),
(1322,1144,l),
(1260,1144,l),
(1180,1400,o),
(984,1560,o),
(740,1560,cs),
(380,1560,o),
(148,1216,o),
(148,764,cs),
(148,310,o),
(376,-32,o),
(740,-32,cs)
);
},
{
closed = 1;
nodes = (
(1268,1084,l),
(1308,766,l),
(1268,444,l),
(1268,0,l),
(1332,0,l),
(1332,1780,ls),
(1332,1950,o),
(1382,2012,o),
(1522,2012,cs),
(1548,2012,o),
(1586,2010,o),
(1620,2006,c),
(1620,2070,l),
(1586,2074,o),
(1550,2076,o),
(1522,2076,cs),
(1346,2076,o),
(1268,1988,o),
(1268,1780,cs)
);
},
{
closed = 1;
nodes = (
(414,32,o),
(212,348,o),
(212,764,cs),
(212,1180,o),
(416,1496,o),
(740,1496,cs),
(1064,1496,o),
(1268,1180,o),
(1268,764,cs),
(1268,348,o),
(1066,32,o),
(740,32,cs)
);
}
);
width = 1554;
},
{
layerId = "C698F293-3EC0-4A5A-A3A0-0FDB1F5CF265";
shapes = (
{
closed = 1;
nodes = (
(1070,-32,o),
(1170,152,o),
(1222,236,c),
(1338,236,l),
(1338,1292,l),
(1222,1292,l),
(1170,1372,o),
(1078,1556,o),
(778,1556,cs),
(390,1556,o),
(122,1248,o),
(122,764,cs),
(122,276,o),
(390,-32,o),
(774,-32,cs)
);
},
{
closed = 1;
nodes = (
(1242,1172,l),
(1322,784,l),
(1250,288,l),
(1250,0,l),
(1478,0,l),
(1478,1672,ls),
(1478,1832,o),
(1578,1868,o),
(1706,1868,cs),
(1726,1868,o),
(1762,1868,o),
(1782,1860,c),
(1782,2064,l),
(1746,2076,o),
(1690,2080,o),
(1646,2080,cs),
(1418,2080,o),
(1242,1936,o),
(1242,1672,c)
);
},
{
closed = 1;
nodes = (
(510,180,o),
(358,440,o),
(358,768,cs),
(358,1092,o),
(506,1344,o),
(806,1344,cs),
(1094,1344,o),
(1246,1112,o),
(1246,768,cs),
(1246,420,o),
(1090,180,o),
(806,180,cs)
);
}
);
width = 1688;
},
{
layerId = "5C20EF92-B63D-42A8-8878-93C2863E0093";
shapes = (
{
closed = 1;
nodes = (
(916,-20,o),
(1060,96,o),
(1124,252,c),
(1352,252,l),
(1352,1268,l),
(1124,1268,l),
(1064,1424,o),
(920,1556,o),
(692,1556,cs),
(388,1556,o),
(92,1324,o),
(92,768,cs),
(92,236,o),
(368,-20,o),
(696,-20,cs)
);
},
{
closed = 1;
nodes = (
(1132,1192,l),
(1336,728,l),
(1136,392,l),
(1136,0,l),
(1684,0,l),
(1684,1528,ls),
(1684,1680,o),
(1864,1660,o),
(1936,1660,cs),
(1972,1660,o),
(2004,1656,o),
(2056,1648,c),
(2056,2052,l),
(2004,2060,o),
(1896,2076,o),
(1784,2076,cs),
(1528,2076,o),
(1132,2032,o),
(1132,1528,c)
);
},
{
closed = 1;
nodes = (
(748,404,o),
(660,540,o),
(660,768,cs),
(660,996,o),
(748,1132,o),
(900,1132,cs),
(1052,1132,o),
(1144,996,o),
(1144,768,cs),
(1144,544,o),
(1052,404,o),
(900,404,cs)
);
}
);
width = 1924;
}
);
unicode = 599;
userData = {
interface.gridadjust.original = "{'width': 1664, 'leftMargin': 127, 'rightMargin': -14}";
"interface.width-adjustments" = (
-16
);
};
}
{
glyphname = erev;
layers = (
{
layerId = "B1F27B51-9973-4381-9301-4FE46FE1CA59";
shapes = (
{
closed = 1;
nodes = (
(1005,-28,o),
(1252,255,o),
(1252,740,cs),
(1252,744,ls),
(1252,1221,o),
(1002,1560,o),
(646,1560,cs),
(319,1560,o),
(108,1271,o),
(108,812,cs),
(108,748,l),
(1220,748,l),
(1220,812,l),
(172,812,l),
(172,816,ls),
(172,1236,o),
(348,1496,o),
(646,1496,cs),
(956,1496,o),
(1188,1189,o),
(1188,760,cs),
(1188,752,ls),
(1188,292,o),
(973,36,o),
(636,36,cs),
(425,36,o),
(262,137,o),
(176,302,c),
(110,288,l),
(205,94,o),
(396,-28,o),
(636,-28,cs)
);
}
);
width = 1360;
},
{
background = {
shapes = (
{
closed = 1;
nodes = (
(1164,-32,o),
(1436,284,o),
(1436,756,cs),
(1436,1228,o),
(1160,1556,o),
(744,1556,cs),
(424,1556,o),
(84,1360,o),
(84,788,cs),
(84,688,l),
(1268,688,l),
(1268,892,l),
(324,892,l),
(324,1152,o),
(488,1344,o),
(744,1344,c),
(1027,1344,o),
(1200,1109,o),
(1200,856,cs),
(1200,720,ls),
(1200,371,o),
(1006,180,o),
(720,180,cs),
(535,180,o),
(396,260,o),
(336,420,c),
(108,356,l),
(180,124,o),
(408,-32,o),
(720,-32,c)
);
}
);
};
layerId = "C698F293-3EC0-4A5A-A3A0-0FDB1F5CF265";
shapes = (
{
closed = 1;
nodes = (
(1103,-28,o),
(1374,264,o),
(1374,712,cs),
(1374,768,ls),
(1374,1242,o),
(1106,1556,o),
(706,1556,cs),
(327,1556,o),
(102,1272,o),
(102,800,cs),
(102,680,l),
(1210,680,l),
(1210,900,l),
(378,900,l),
(378,920,l),
(399,1195,o),
(526,1336,o),
(722,1336,cs),
(966,1336,o),
(1098,1122,o),
(1098,768,cs),
(1098,712,ls),
(1098,397,o),
(943,192,o),
(678,192,cs),
(527,192,o),
(388,258,o),
(286,392,c),
(118,264,l),
(248,72,o),
(442,-28,o),
(686,-28,cs)
);
}
);
width = 1476;
},
{
layerId = "5C20EF92-B63D-42A8-8878-93C2863E0093";
shapes = (
{
closed = 1;
nodes = (
(1285,-28,o),
(1585,320,o),
(1584,716,cs),
(1584,768,ls),
(1584,1196,o),
(1337,1556,o),
(816,1556,cs),
(377,1556,o),
(100,1284,o),
(100,812,cs),
(100,596,l),
(1392,596,l),
(1392,912,l),
(600,912,l),
(600,932,ls),
(600,1075,o),
(687,1144,o),
(814,1144,cs),
(1057,1144,o),
(1064,896,o),
(1064,768,cs),
(1064,716,ls),
(1065,500,o),
(937,388,o),
(714,388,cs),
(605,388,o),
(469,416,o),
(376,520,c),
(144,224,l),
(245,100,o),
(465,-28,o),
(772,-28,cs)
);
}
);
width = 1680;
}
);
unicode = 600;
userData = {
interface.gridadjust.original = "{'width': 1502, 'leftMargin': 102, 'rightMargin': 130}";
"interface.width-adjustments" = (
-16
);
};
}
{
glyphname = mturndescend;
kernLeft = u;
kernRight = g;
layers = (
{
layerId = "B1F27B51-9973-4381-9301-4FE46FE1CA59";
shapes = (
{
closed = 1;
nodes = (
(2048,-576,l),
(2048,0,l),
(1984,0,l),
(1984,-576,l)
);
},
{
alignment = -1;
ref = mturn;
}
);
width = 2288;
},
{
layerId = "C698F293-3EC0-4A5A-A3A0-0FDB1F5CF265";
shapes = (
{
closed = 1;
nodes = (
(2210,-576,l),
(2210,0,l),
(1982,0,l),
(1982,-576,l)
);
},
{
ref = mturn;
}
);
width = 2404;
},
{
layerId = "5C20EF92-B63D-42A8-8878-93C2863E0093";
shapes = (
{
closed = 1;
nodes = (
(2508,-576,l),
(2508,0,l),
(1984,0,l),
(1984,-576,l)
);
},
{
ref = mturn;
}
);
width = 2648;
}
);
metricLeft = mturn;
metricRight = mturn;
unicode = 624;
userData = {
interface.gridadjust.original = "{'width': 2463, 'leftMargin': 188, 'rightMargin': 189}";
"interface.width-adjustments" = (
-16
);
};
}
{
glyphname = OEsmallcap;
layers = (
{
layerId = "B1F27B51-9973-4381-9301-4FE46FE1CA59";
shapes = (
{
closed = 1;
nodes = (
(1356,64,l),
(1356,0,l),
(2304,0,l),
(2304,64,l,{
name = hr00;
})
);
},
{
closed = 1;
nodes = (
(1304,1488,l),
(1304,0,l),
(1368,0,l),
(1368,1488,l)
);
},
{
closed = 1;
nodes = (
(1356,794,l),
(1356,730,l),
(2188,730,l),
(2188,794,l)
);
},
{
closed = 1;
nodes = (
(1356,1488,l),
(1356,1424,l),
(2304,1424,l),
(2304,1488,l)
);
},
{
closed = 1;
nodes = (
(1032,-32,o),
(1201,-17,o),
(1318,2,c),
(1318,66,l),
(1182,45,o),
(1036,32,o),
(952,32,cs),
(562,32,o),
(328,320,o),
(328,744,cs),
(328,752,ls),
(328,1168,o),
(554,1454,o),
(954,1454,cs),
(1071,1454,o),
(1159,1446,o),
(1326,1422,c),
(1326,1486,l),
(1147,1508,o),
(1036,1518,o),
(944,1518,cs),
(518,1518,o),
(264,1199,o),
(264,750,cs),
(264,744,ls),
(264,289,o),
(528,-32,o),
(946,-32,cs)
);
}
);
width = 2560;
},
{
layerId = "C698F293-3EC0-4A5A-A3A0-0FDB1F5CF265";
shapes = (
{
closed = 1;
nodes = (
(1422,216,l),
(1422,0,l),
(2294,0,l),
(2294,216,l,{
name = hr00;
})
);
},
{
closed = 1;
nodes = (
(1210,1488,l),
(1210,0,l),
(1486,0,l),
(1486,1488,l)
);
},
{
closed = 1;
nodes = (
(1422,864,l),
(1422,644,l),
(2174,644,l),
(2174,864,l)
);
},
{
closed = 1;
nodes = (
(1422,1488,l),
(1422,1272,l),
(2294,1272,l),
(2294,1488,l)
);
},
{
closed = 1;
nodes = (
(1050,-28,o),
(1190,0,o),
(1398,0,c),
(1398,216,l),
(1190,216,o),
(1070,192,o),
(890,192,cs),
(618,192,o),
(486,440,o),
(486,728,c),
(486,760,l),
(486,1044,o),
(618,1296,o),
(886,1296,cs),
(1070,1296,o),
(1190,1272,o),
(1398,1272,c),
(1398,1488,l),
(1190,1488,o),
(1050,1516,o),
(886,1516,cs),
(470,1516,o),
(210,1188,o),
(210,760,c),
(210,728,l),
(210,300,o),
(470,-28,o),
(890,-28,cs)
);
}
);
width = 2500;
},
{
layerId = "5C20EF92-B63D-42A8-8878-93C2863E0093";
shapes = (
{
closed = 1;
nodes = (
(1408,412,l),
(1408,0,l),
(2284,0,l),
(2284,412,l,{
name = hr00;
})
);
},
{
closed = 1;
nodes = (
(1096,1488,l),
(1096,0,l),
(1616,0,l),
(1616,1488,l)
);
},
{
closed = 1;
nodes = (
(1408,948,l),
(1408,536,l),
(2160,536,l),
(2160,948,l)
);
},
{
closed = 1;
nodes = (
(1408,1488,l),
(1408,1076,l),
(2284,1076,l),
(2284,1488,l)
);
},
{
closed = 1;
nodes = (
(1063,-28,o),
(1123,0,o),
(1444,0,c),
(1444,412,l),
(1123,412,o),
(1011,388,o),
(888,388,cs),
(687,388,o),
(643,532,o),
(644,728,c),
(644,760,l),
(643,944,o),
(691,1104,o),
(884,1104,cs),
(1015,1104,o),
(1123,1076,o),
(1444,1076,c),
(1444,1488,l),
(1131,1488,o),
(1063,1516,o),
(884,1516,cs),
(391,1516,o),
(123,1192,o),
(124,760,c),
(124,728,l),
(123,296,o),
(391,-28,o),
(888,-28,cs)
);
}
);
width = 2412;
}
);
unicode = 630;
userData = {
interface.gridadjust.original = "{'width': 2375, 'leftMargin': 172, 'rightMargin': 120}";
"interface.width-adjustments" = (
-16
);
};
}
{
glyphname = Rsmallcapinv;
layers = (
{
layerId = "B1F27B51-9973-4381-9301-4FE46FE1CA59";
shapes = (
{
closed = 1;
nodes = (
(1392,1488,l),
(1316,1488,l),
(870,808,l),
(948,808,l)
);
},
{
closed = 1;
nodes = (
(1087,0,o),
(1272,155,o),
(1272,408,cs),
(1272,671,o),
(1102,840,o),
(836,840,cs),
(224,840,l),
(224,776,l),
(836,776,ls),
(1068,776,o),
(1211,631,o),
(1210,396,cs),
(1209,191,o),
(1046,64,o),
(784,64,cs),
(264,64,l),
(264,1488,l),
(200,1488,l),
(200,0,l),
(784,0,ls)
);
}
);
width = 1592;
},
{
layerId = "C698F293-3EC0-4A5A-A3A0-0FDB1F5CF265";
shapes = (
{
closed = 1;
nodes = (
(1510,1488,l),
(1214,1488,l),
(778,772,l),
(1074,772,l)
);
},
{
closed = 1;
nodes = (
(1218,0,o),
(1426,196,o),
(1426,456,cs),
(1426,720,o),
(1226,912,o),
(882,912,cs),
(426,912,l),
(426,692,l),
(882,692,ls),
(1070,692,o),
(1150,572,o),
(1150,460,cs),
(1150,340,o),
(1062,216,o),
(854,216,cs),
(498,216,l),
(498,1488,l),
(222,1488,l),
(222,0,l),
(854,0,l)
);
}
);
width = 1732;
},
{
layerId = "5C20EF92-B63D-42A8-8878-93C2863E0093";
shapes = (
{
closed = 1;
nodes = (
(1712,1488,l),
(1200,1488,l),
(780,716,l),
(1292,716,l)
);
},
{
closed = 1;
nodes = (
(1408,0,o),
(1688,224,o),
(1688,536,cs),
(1688,820,o),
(1408,1028,o),
(968,1028,cs),
(568,1028,l),
(568,696,l),
(968,696,ls),
(1104,696,o),
(1176,620,o),
(1176,556,cs),
(1176,492,o),
(1104,412,o),
(976,412,cs),
(780,412,l),
(780,1488,l),
(268,1488,l),
(268,0,l),
(976,0,l)
);
}
);
width = 1976;
}
);
unicode = 641;
userData = {
interface.gridadjust.original = "{'width': 1555, 'leftMargin': 147, 'rightMargin': 122}";
"interface.width-adjustments" = (
-16
);
};
}
{
glyphname = ubar;
kernLeft = u;
kernRight = u;
layers = (
{
layerId = "B1F27B51-9973-4381-9301-4FE46FE1CA59";
shapes = (
{
closed = 1;
nodes = (
(-32,926,l),
(-32,862,l),
(1544,862,l),
(1544,926,l)
);
},
{
alignment = -1;
pos = (28,0);
ref = u;
}
);
width = 1510;
},
{
layerId = "C698F293-3EC0-4A5A-A3A0-0FDB1F5CF265";
shapes = (
{
closed = 1;
nodes = (
(-22,980,l),
(-22,796,l),
(1710,796,l),
(1710,980,l)
);
},
{
pos = (48,0);
ref = u;
}
);
width = 1688;
},
{
layerId = "5C20EF92-B63D-42A8-8878-93C2863E0093";
shapes = (
{
closed = 1;
nodes = (
(0,1024,l),
(0,736,l),
(1996,736,l),
(1996,1024,l)
);
},
{
pos = (84,0);
ref = u;
}
);
width = 1996;
}
);
unicode = 649;
userData = {
interface.gridadjust.original = "{'width': 1786, 'leftMargin': 28, 'rightMargin': 27}";
"interface.width-adjustments" = (
-16
);
};
}
{
glyphname = upsilonlatin;
layers = (
{
background = {
shapes = (
{
closed = 1;
nodes = (
(444,36,o),
(232,222,o),
(232,562,cs),
(232,950,o),
(496,1018,o),
(496,1266,cs),
(496,1426,o),
(341,1516,o),
(124,1516,c),
(124,1452,l),
(309,1450,o),
(434,1386,o),
(432,1260,cs),
(429,1057,o),
(172,956,o),
(168,580,cs),
(165,275,o),
(311,-28,o),
(832,-28,cs),
(1353,-28,o),
(1499,275,o),
(1496,580,cs),
(1492,956,o),
(1235,1057,o),
(1232,1260,cs),
(1230,1386,o),
(1355,1450,o),
(1540,1452,c),
(1540,1516,l),
(1323,1516,o),
(1168,1426,o),
(1168,1266,cs),
(1168,1018,o),
(1432,950,o),
(1432,562,cs),
(1432,222,o),
(1220,36,o),
(832,36,cs)
);
}
);
};
layerId = "B1F27B51-9973-4381-9301-4FE46FE1CA59";
shapes = (
{
closed = 1;
nodes = (
(412,36,o),
(200,222,o),
(200,562,cs),
(200,950,o),
(464,1022,o),
(464,1310,cs),
(464,1470,o),
(309,1560,o),
(92,1560,c),
(92,1496,l),
(277,1494,o),
(402,1430,o),
(400,1304,cs),
(396,1061,o),
(140,956,o),
(136,580,cs),
(133,275,o),
(279,-28,o),
(800,-28,cs),
(1321,-28,o),
(1467,275,o),
(1464,580,cs),
(1460,956,o),
(1204,1061,o),
(1200,1304,cs),
(1198,1430,o),
(1323,1494,o),
(1508,1496,c),
(1508,1560,l),
(1291,1560,o),
(1136,1470,o),
(1136,1310,cs),
(1136,1022,o),
(1400,950,o),
(1400,562,cs),
(1400,222,o),
(1188,36,o),
(800,36,cs)
);
}
);
width = 1596;
},
{
layerId = "C698F293-3EC0-4A5A-A3A0-0FDB1F5CF265";
shapes = (
{
closed = 1;
nodes = (
(486,192,o),
(422,444,o),
(422,600,cs),
(422,852,o),
(602,1020,o),
(602,1224,cs),
(602,1316,o),
(582,1556,o),
(138,1556,c),
(138,1336,l),
(202,1336,o),
(330,1324,o),
(330,1192,cs),
(330,988,o),
(146,876,o),
(146,548,cs),
(146,272,o),
(294,-28,o),
(866,-28,cs),
(1442,-28,o),
(1586,272,o),
(1586,548,cs),
(1586,876,o),
(1406,988,o),
(1406,1192,cs),
(1406,1324,o),
(1530,1336,o),
(1594,1336,c),
(1594,1556,l),
(1150,1556,o),
(1130,1316,o),
(1130,1224,cs),
(1130,1020,o),
(1310,852,o),
(1310,600,cs),
(1310,444,o),
(1246,192,o),
(866,192,cs)
);
}
);
width = 1732;
},
{
background = {
shapes = (
{
closed = 1;
nodes = (
(764,384,o),
(684,484,o),
(684,612,cs),
(684,808,o),
(820,988,o),
(820,1212,cs),
(820,1460,o),
(636,1516,o),
(224,1516,c),
(224,1132,l),
(280,1132,o),
(284,1092,o),
(284,1072,cs),
(284,956,o),
(172,776,o),
(172,464,cs),
(172,284,o),
(324,-28,o),
(984,-28,cs),
(1640,-28,o),
(1800,284,o),
(1800,464,cs),
(1800,776,o),
(1680,956,o),
(1680,1072,cs),
(1680,1092,o),
(1684,1132,o),
(1740,1132,c),
(1740,1516,l),
(1340,1516,o),
(1152,1460,o),
(1152,1212,cs),
(1152,988,o),
(1280,808,o),
(1280,612,cs),
(1280,484,o),
(1208,384,o),
(984,384,cs)
);
}
);
};
layerId = "5C20EF92-B63D-42A8-8878-93C2863E0093";
shapes = (
{
closed = 1;
nodes = (
(764,384,o),
(684,484,o),
(684,612,cs),
(684,808,o),
(820,988,o),
(820,1252,cs),
(820,1500,o),
(636,1556,o),
(224,1556,c),
(224,1172,l),
(280,1172,o),
(284,1132,o),
(284,1112,cs),
(284,956,o),
(172,776,o),
(172,464,cs),
(172,284,o),
(324,-28,o),
(984,-28,cs),
(1640,-28,o),
(1800,284,o),
(1800,464,cs),
(1800,776,o),
(1680,956,o),
(1680,1112,cs),
(1680,1132,o),
(1684,1172,o),
(1740,1172,c),
(1740,1556,l),
(1340,1556,o),
(1152,1500,o),
(1152,1252,cs),
(1152,988,o),
(1280,808,o),
(1280,612,cs),
(1280,484,o),
(1208,384,o),
(984,384,cs)
);
}
);
width = 1964;
}
);
unicode = 650;
userData = {
interface.gridadjust.original = "{'width': 1734, 'leftMargin': 138, 'rightMargin': 138}";
"interface.width-adjustments" = (
-16
);
};
}
{
glyphname = Ysmallcap;
layers = (
{
layerId = "B1F27B51-9973-4381-9301-4FE46FE1CA59";
shapes = (
{
closed = 1;
nodes = (
(652,528,l),
(712,528,l),
(1356,1488,l),
(1280,1488,l),
(652,552,l)
);
},
{
closed = 1;
nodes = (
(16,1488,l),
(648,528,l),
(706,528,l),
(706,554,l),
(92,1488,l)
);
},
{
closed = 1;
nodes = (
(648,544,l),
(648,0,l),
(712,0,l),
(712,544,l)
);
}
);
width = 1370;
},
{
layerId = "C698F293-3EC0-4A5A-A3A0-0FDB1F5CF265";
shapes = (
{
closed = 1;
nodes = (
(698,480,l),
(862,480,l),
(1458,1488,l),
(1150,1488,l),
(654,588,l)
);
},
{
closed = 1;
nodes = (
(18,1488,l),
(614,480,l),
(778,480,l),
(830,580,l),
(326,1488,l)
);
},
{
closed = 1;
nodes = (
(598,712,l),
(598,0,l),
(870,0,l),
(870,712,l)
);
}
);
width = 1476;
},
{
layerId = "5C20EF92-B63D-42A8-8878-93C2863E0093";
shapes = (
{
closed = 1;
nodes = (
(792,400,l),
(1056,400,l),
(1636,1488,l),
(1088,1488,l),
(744,688,l)
);
},
{
closed = 1;
nodes = (
(28,1488,l),
(612,400,l),
(876,400,l),
(928,680,l),
(584,1488,l)
);
},
{
closed = 1;
nodes = (
(572,628,l),
(572,0,l),
(1084,0,l),
(1084,628,l)
);
}
);
width = 1664;
}
);
unicode = 655;
userData = {
interface.gridadjust.original = "{'width': 1474.0, 'leftMargin': 17, 'rightMargin': 16.0}";
"interface.width-adjustments" = (
-16
);
};
}
{
glyphname = glottalstoprevinv;
layers = (
{
anchors = (
{
name = cross;
pos = (768,324);
}
);
layerId = "B1F27B51-9973-4381-9301-4FE46FE1CA59";
shapes = (
{
closed = 1;
nodes = (
(357,722,o),
(152,908,o),
(152,1296,cs),
(152,1448,ls),
(152,1810,o),
(332,2010,o),
(660,2010,cs),
(975,2010,o),
(1182,1837,o),
(1196,1564,c),
(1260,1564,l),
(1240,1877,o),
(1007,2076,o),
(660,2076,cs),
(300,2076,o),
(88,1844,o),
(88,1448,cs),
(88,1296,ls),
(88,877,o),
(321,660,o),
(768,662,c),
(792,662,l),
(792,724,l,{
name = hr00;
}),
(780,724,l)
);
},
{
closed = 1;
nodes = (
(804,0,l),
(804,724,l),
(740,724,l),
(740,0,l)
);
}
);
width = 1350;
},
{
anchors = (
{
name = cross;
pos = (762,288);
}
);
layerId = "C698F293-3EC0-4A5A-A3A0-0FDB1F5CF265";
shapes = (
{
closed = 1;
nodes = (
(462,752,o),
(382,1024,o),
(382,1272,cs),
(382,1336,ls),
(382,1584,o),
(466,1856,o),
(774,1856,cs),
(974,1856,o),
(1098,1712,o),
(1110,1536,c),
(1370,1536,l),
(1358,1840,o),
(1130,2076,o),
(774,2076,cs),
(322,2076,o),
(106,1732,o),
(106,1336,cs),
(106,1272,ls),
(106,876,o),
(318,532,o),
(774,532,cs),
(834,532,l),
(834,752,l),
(774,752,l)
);
},
{
closed = 1;
nodes = (
(898,0,l),
(898,756,l),
(626,756,l),
(626,0,l)
);
}
);
width = 1476;
},
{
anchors = (
{
name = cross;
pos = (860,228);
}
);
guides = (
{
pos = (-136,2140);
}
);
layerId = "5C20EF92-B63D-42A8-8878-93C2863E0093";
shapes = (
{
closed = 1;
nodes = (
(661,792,o),
(660,984,o),
(660,1136,cs),
(660,1312,ls),
(660,1464,o),
(661,1664,o),
(864,1664,cs),
(1005,1664,o),
(1061,1572,o),
(1060,1456,c),
(1544,1456,l),
(1549,1868,o),
(1269,2076,o),
(876,2076,cs),
(393,2076,o),
(140,1760,o),
(140,1312,cs),
(140,1136,ls),
(140,696,o),
(393,380,o),
(880,380,cs),
(1072,380,l),
(1072,792,l),
(868,792,l,{
name = hr00;
})
);
},
{
closed = 1;
nodes = (
(1120,0,l),
(1120,792,l),
(600,792,l),
(600,0,l)
);
}
);
width = 1684;
}
);
unicode = 661;
userData = {
interface.gridadjust.original = "{'width': 1480, 'leftMargin': 127, 'rightMargin': 88}";
"interface.width-adjustments" = (
-16
);
};
}
{
glyphname = Gsmallcaphook;
layers = (
{
layerId = "B1F27B51-9973-4381-9301-4FE46FE1CA59";
shapes = (
{
closed = 1;
nodes = (
(1402,1216,ls),
(1402,1385,o),
(1451,1448,o),
(1592,1448,cs),
(1618,1448,o),
(1655,1446,o),
(1690,1442,c),
(1690,1506,l),
(1656,1510,o),
(1619,1512,o),
(1592,1512,cs),
(1416,1512,o),
(1338,1423,o),
(1338,1216,cs),
(1338,1036,l),
(1402,1036,l,{
name = hr00;
})
);
},
{
closed = 1;
nodes = (
(852,668,l),
(852,604,l),
(1336,604,l),
(1336,230,l),
(1277,136,o),
(998,30,o),
(816,32,cs),
(456,32,o),
(212,276,o),
(212,636,cs),
(212,860,ls),
(212,1207,o),
(464,1451,o),
(824,1452,cs),
(1118,1452,o),
(1299,1305,o),
(1338,1036,c),
(1400,1036,l),
(1376,1330,o),
(1153,1516,o),
(824,1516,cs),
(430,1516,o),
(147,1241,o),
(148,860,cs),
(148,636,ls),
(147,241,o),
(418,-30,o),
(816,-32,cs),
(1046,-31,o),
(1334,87,o),
(1400,208,c),
(1400,668,l)
);
}
);
width = 1476;
},
{
layerId = "C698F293-3EC0-4A5A-A3A0-0FDB1F5CF265";
shapes = (
{
closed = 1;
nodes = (
(1530,1176,ls),
(1530,1336,o),
(1610,1392,o),
(1738,1392,cs),
(1758,1392,o),
(1790,1388,o),
(1814,1384,c),
(1814,1568,l),
(1774,1580,o),
(1718,1588,o),
(1678,1588,cs),
(1450,1588,o),
(1342,1440,o),
(1342,1176,cs),
(1342,1012,l),
(1530,1012,l)
);
},
{
closed = 1;
nodes = (
(906,760,l),
(906,540,l),
(1294,540,l),
(1294,308,l),
(1250,272,o),
(1106,192,o),
(890,192,cs),
(618,192,o),
(418,384,o),
(418,636,cs),
(418,860,ls),
(418,1108,o),
(626,1300,o),
(882,1300,cs),
(1110,1300,o),
(1254,1200,o),
(1278,1012,c),
(1526,1012,l),
(1498,1300,o),
(1302,1516,o),
(882,1516,cs),
(470,1516,o),
(174,1248,o),
(174,860,cs),
(174,636,ls),
(174,244,o),
(466,-28,o),
(890,-28,cs),
(1258,-28,o),
(1462,124,o),
(1530,216,c),
(1530,760,l)
);
}
);
width = 1784;
},
{
layerId = "5C20EF92-B63D-42A8-8878-93C2863E0093";
shapes = (
{
closed = 1;
nodes = (
(1768,1188,ls),
(1767,1320,o),
(1831,1364,o),
(1948,1364,cs),
(1995,1364,o),
(2031,1356,o),
(2072,1352,c),
(2072,1692,l),
(1999,1708,o),
(1947,1716,o),
(1868,1716,cs),
(1543,1716,o),
(1335,1528,o),
(1336,1188,cs),
(1336,972,l),
(1768,972,l)
);
},
{
closed = 1;
nodes = (
(1028,840,l),
(1028,516,l),
(1292,516,l),
(1292,404,l),
(1239,380,o),
(1219,388,o),
(1048,388,cs),
(859,388,o),
(779,492,o),
(780,636,cs),
(780,864,ls),
(779,1012,o),
(851,1108,o),
(1016,1108,cs),
(1163,1108,o),
(1219,1080,o),
(1248,972,c),
(1768,972,l),
(1723,1372,o),
(1447,1516,o),
(1016,1516,cs),
(567,1516,o),
(251,1252,o),
(252,860,cs),
(252,636,ls),
(251,244,o),
(583,-24,o),
(1048,-24,cs),
(1503,-24,o),
(1667,112,o),
(1784,228,c),
(1784,840,l)
);
}
);
width = 2308;
}
);
unicode = 667;
userData = {
interface.gridadjust.original = "{'width': 1748, 'leftMargin': 126, 'rightMargin': -13}";
"interface.width-adjustments" = (
-16
);
};
}
{
glyphname = dzaltone;
layers = (
{
layerId = "B1F27B51-9973-4381-9301-4FE46FE1CA59";
shapes = (
{
closed = 1;
nodes = (
(2556,0,l),
(2556,64,l),
(1596,64,l),
(1596,72,l),
(2516,1472,l),
(2516,1536,l),
(1304,1536,l),
(1304,1472,l),
(2436,1472,l),
(2436,1464,l),
(1516,64,l),
(1516,0,l)
);
},
{
alignment = -1;
ref = d;
}
);
width = 2700;
},
{
layerId = "C698F293-3EC0-4A5A-A3A0-0FDB1F5CF265";
shapes = (
{
closed = 1;
nodes = (
(2810,0,l),
(2810,220,l),
(1934,220,l),
(1934,236,l),
(2782,1348,l),
(2782,1536,l),
(1394,1536,l),
(1394,1316,l),
(2478,1316,l),
(2478,1300,l),
(1606,180,l),
(1606,0,l)
);
},
{
alignment = -1;
ref = d;
}
);
width = 2936;
},
{
layerId = "5C20EF92-B63D-42A8-8878-93C2863E0093";
shapes = (
{
closed = 1;
nodes = (
(3092,0,l),
(3092,420,l),
(2456,420,l),
(2456,428,l),
(3068,1200,l),
(3068,1536,l),
(1448,1536,l),
(1448,1116,l),
(2416,1116,l),
(2416,1108,l),
(1744,304,l),
(1744,0,l)
);
},
{
alignment = -1;
ref = d;
}
);
width = 3256;
}
);
metricLeft = d;
metricRight = z;
unicode = 675;
}
{
glyphname = dyogh;
kernLeft = c;
layers = (
{
layerId = "B1F27B51-9973-4381-9301-4FE46FE1CA59";
shapes = (
{
closed = 1;
nodes = (
(1292,1472,l),
(2128,1472,l),
(1570,580,l),
(1570,504,l),
(1640,504,ls),
(2102,504,o),
(2344,316,o),
(2344,-28,cs),
(2344,-282,o),
(2146,-544,o),
(1780,-544,cs),
(1524,-544,o),
(1306,-384,o),
(1296,-128,c),
(1232,-128,l),
(1242,-420,o),
(1484,-608,o),
(1780,-608,cs),
(2178,-608,o),
(2408,-324,o),
(2408,-28,cs),
(2408,368,o),
(2122,568,o),
(1638,568,c),
(2204,1472,l),
(2204,1536,l),
(1292,1536,l),
(1292,2048,l),
(1228,2048,l),
(1228,1144,l),
(1220,1144,l),
(1140,1400,o),
(944,1560,o),
(700,1560,cs),
(340,1560,o),
(108,1216,o),
(108,764,cs),
(108,310,o),
(336,-32,o),
(700,-32,cs),
(946,-32,o),
(1136,130,o),
(1220,384,c),
(1228,384,l),
(1228,0,l),
(1292,0,l)
);
},
{
closed = 1;
nodes = (
(172,1180,o),
(376,1496,o),
(700,1496,cs),
(1024,1496,o),
(1228,1180,o),
(1228,764,cs),
(1228,348,o),
(1026,32,o),
(700,32,cs),
(374,32,o),
(172,348,o),
(172,764,cs)
);
}
);
width = 2480;
},
{
layerId = "C698F293-3EC0-4A5A-A3A0-0FDB1F5CF265";
shapes = (
{
closed = 1;
nodes = (
(1478,1316,l),
(2194,1316,l),
(1674,600,l),
(1674,384,l),
(1874,384,ls),
(2174,384,o),
(2334,184,o),
(2334,-16,cs),
(2334,-228,o),
(2166,-416,o),
(1906,-416,cs),
(1682,-416,o),
(1514,-288,o),
(1486,-128,c),
(1258,-128,l),
(1310,-480,o),
(1590,-608,o),
(1906,-608,cs),
(2302,-608,o),
(2566,-380,o),
(2566,-12,cs),
(2566,320,o),
(2350,568,o),
(1946,592,c),
(2518,1368,l),
(2514,1536,l),
(1478,1536,l),
(1478,2048,l),
(1242,2048,l),
(1242,1292,l),
(1226,1292,l),
(1174,1372,o),
(1078,1556,o),
(778,1556,cs),
(390,1556,o),
(122,1248,o),
(122,764,cs),
(122,276,o),
(390,-32,o),
(774,-32,cs),
(1070,-32,o),
(1174,152,o),
(1226,236,c),
(1250,236,l),
(1250,0,l),
(1478,0,l)
);
},
{
closed = 1;
nodes = (
(358,1092,o),
(506,1344,o),
(806,1344,cs),
(1094,1344,o),
(1246,1112,o),
(1246,768,cs),
(1246,420,o),
(1090,180,o),
(806,180,cs),
(510,180,o),
(358,440,o),
(358,768,cs)
);
}
);
width = 2648;
},
{
layerId = "5C20EF92-B63D-42A8-8878-93C2863E0093";
shapes = (
{
closed = 1;
nodes = (
(1592,1124,l),
(2160,1124,l),
(1704,644,l),
(1704,356,l),
(1888,356,ls),
(2072,356,o),
(2240,320,o),
(2240,64,cs),
(2240,-108,o),
(2140,-188,o),
(1944,-188,cs),
(1732,-188,o),
(1660,-140,o),
(1600,-68,c),
(1068,-68,l),
(1188,-524,o),
(1576,-608,o),
(1960,-608,cs),
(2428,-608,o),
(2772,-396,o),
(2772,16,cs),
(2772,364,o),
(2580,572,o),
(2248,648,c),
(2744,1188,l),
(2744,1536,l),
(1592,1536,l),
(1592,2048,l),
(1040,2048,l),
(1040,1404,l),
(1024,1404,l),
(968,1536,o),
(812,1556,o),
(692,1556,cs),
(396,1556,o),
(92,1324,o),
(92,768,cs),
(92,232,o),
(376,-20,o),
(696,-20,cs),
(820,-20,o),
(968,-4,o),
(1024,124,c),
(1044,124,l),
(1044,0,l),
(1592,0,l)
);
},
{
closed = 1;
nodes = (
(608,1012,o),
(696,1132,o),
(872,1132,cs),
(1068,1132,o),
(1108,960,o),
(1108,768,cs),
(1108,584,o),
(1076,404,o),
(872,404,cs),
(696,404,o),
(608,524,o),
(608,768,cs)
);
}
);
width = 2884;
}
);
unicode = 676;
userData = {
interface.gridadjust.original = "{'width': 2593, 'leftMargin': 256, 'rightMargin': 143}";
"interface.width-adjustments" = (
-16
);
};
}
{
glyphname = ts;
layers = (
{
background = {
shapes = (
{
closed = 1;
nodes = (
(280,352,ls),
(280,126,o),
(380,0,o),
(560,0,c),
(664,0,l),
(664,64,l),
(560,64,l),
(417,64,o),
(344,162,o),
(344,352,cs),
(344,1832,l),
(280,1832,l)
);
},
{
closed = 1;
nodes = (
(1436,190,o),
(1261,64,o),
(988,64,cs),
(578,64,l),
(578,0,l),
(988,0,l),
(1296,0,o),
(1500,154,o),
(1500,388,cs),
(1500,612,o),
(1375,719,o),
(1008,808,cs),
(707,881,o),
(604,970,o),
(604,1156,cs),
(604,1336,o),
(765,1452,o),
(1004,1452,cs),
(1250,1452,o),
(1410,1295,o),
(1412,1064,c),
(1476,1064,l),
(1463,1341,o),
(1285,1516,o),
(1008,1516,cs),
(730,1516,o),
(540,1372,o),
(540,1156,cs),
(540,938,o),
(665,825,o),
(992,746,cs),
(1330,664,o),
(1436,581,o),
(1436,388,cs)
);
},
{
closed = 1;
nodes = (
(56,1470,l),
(56,1406,l),
(744,1406,l),
(764,1470,l)
);
}
);
};
guides = (
{
pos = (58,2510);
}
);
layerId = "B1F27B51-9973-4381-9301-4FE46FE1CA59";
shapes = (
{
closed = 1;
nodes = (
(248,352,ls),
(248,126,o),
(348,0,o),
(528,0,c),
(632,0,l),
(632,64,l),
(528,64,l),
(385,64,o),
(312,162,o),
(312,352,cs),
(312,1926,l),
(248,1926,l)
);
},
{
closed = 1;
nodes = (
(1404,176,o),
(1229,64,o),
(956,64,cs),
(546,64,l),
(546,0,l),
(956,0,l),
(1264,0,o),
(1468,140,o),
(1468,402,cs),
(1468,608,o),
(1343,729,o),
(1000,812,cs),
(675,891,o),
(572,990,o),
(572,1160,cs),
(572,1390,o),
(741,1496,o),
(964,1496,cs),
(1226,1496,o),
(1378,1339,o),
(1380,1064,c),
(1444,1064,l),
(1431,1385,o),
(1261,1560,o),
(968,1560,cs),
(706,1560,o),
(508,1426,o),
(508,1160,cs),
(508,958,o),
(633,835,o),
(998,746,cs),
(1298,674,o),
(1404,577,o),
(1404,402,cs)
);
},
{
closed = 1;
nodes = (
(24,1536,l),
(24,1472,l),
(712,1472,l),
(792,1536,l)
);
}
);
width = 1496;
},
{
background = {
shapes = (
{
closed = 1;
nodes = (
(364,440,ls),
(364,124,o),
(524,0,o),
(712,0,cs),
(912,0,l),
(912,232,l),
(796,232,ls),
(716,232,o),
(640,276,o),
(640,440,cs),
(640,1844,l),
(364,1844,l)
);
},
{
closed = 1;
nodes = (
(1664,280,o),
(1560,232,o),
(1360,232,cs),
(812,232,l),
(812,0,l),
(1360,0,ls),
(1708,0,o),
(1940,156,o),
(1940,420,cs),
(1940,660,o),
(1764,784,o),
(1384,868,cs),
(1172,916,o),
(1072,960,o),
(1072,1084,cs),
(1072,1188,o),
(1152,1296,o),
(1352,1296,cs),
(1544,1296,o),
(1648,1164,o),
(1648,1048,c),
(1924,1048,l),
(1924,1304,o),
(1712,1516,o),
(1352,1516,cs),
(1016,1516,o),
(796,1312,o),
(796,1076,cs),
(796,832,o),
(1004,712,o),
(1344,644,cs),
(1620,588,o),
(1664,500,o),
(1664,396,cs)
);
},
{
closed = 1;
nodes = (
(92,1488,l),
(92,1284,l),
(1184,1284,l),
(1184,1488,l)
);
}
);
};
layerId = "C698F293-3EC0-4A5A-A3A0-0FDB1F5CF265";
shapes = (
{
closed = 1;
nodes = (
(342,440,ls),
(342,124,o),
(502,0,o),
(690,0,cs),
(890,0,l),
(890,232,l),
(774,232,ls),
(694,232,o),
(618,276,o),
(618,440,cs),
(618,1844,l),
(342,1844,l)
);
},
{
closed = 1;
nodes = (
(1642,274,o),
(1538,232,o),
(1338,232,cs),
(790,232,l),
(790,0,l),
(1338,0,ls),
(1686,0,o),
(1918,156,o),
(1918,426,cs),
(1918,660,o),
(1742,784,o),
(1362,868,cs),
(1150,916,o),
(1050,960,o),
(1050,1098,cs),
(1050,1228,o),
(1140,1336,o),
(1326,1336,cs),
(1532,1336,o),
(1626,1204,o),
(1626,1048,c),
(1902,1048,l),
(1902,1344,o),
(1684,1556,o),
(1332,1556,cs),
(988,1556,o),
(774,1352,o),
(774,1092,cs),
(774,832,o),
(982,712,o),
(1322,644,cs),
(1598,588,o),
(1642,494,o),
(1642,406,cs)
);
},
{
closed = 1;
nodes = (
(70,1536,l),
(70,1332,l),
(1162,1332,l),
(1162,1536,l)
);
}
);
width = 1988;
},
{
background = {
shapes = (
{
closed = 1;
nodes = (
(340,540,ls),
(338,124,o),
(550,0,o),
(852,0,cs),
(1132,0,l),
(1132,416,l),
(1016,416,ls),
(874,416,o),
(854,460,o),
(856,540,cs),
(856,1868,l),
(340,1868,l)
);
},
{
closed = 1;
nodes = (
(1930,436,o),
(1866,416,o),
(1748,416,cs),
(1068,416,l),
(1068,0,l),
(1732,0,ls),
(2154,0,o),
(2426,172,o),
(2428,444,cs),
(2426,716,o),
(2226,852,o),
(1868,912,cs),
(1702,940,o),
(1570,964,o),
(1572,1060,cs),
(1570,1144,o),
(1650,1180,o),
(1736,1180,cs),
(1866,1180,o),
(1914,1136,o),
(1916,1024,c),
(2432,1024,l),
(2430,1320,o),
(2158,1516,o),
(1736,1516,cs),
(1314,1516,o),
(1082,1288,o),
(1084,1032,cs),
(1082,796,o),
(1290,628,o),
(1636,564,cs),
(1866,520,o),
(1930,532,o),
(1932,476,cs)
);
},
{
closed = 1;
nodes = (
(156,1488,l),
(156,1120,l),
(1548,1120,l),
(1548,1488,l)
);
}
);
};
layerId = "5C20EF92-B63D-42A8-8878-93C2863E0093";
shapes = (
{
closed = 1;
nodes = (
(340,540,ls),
(338,124,o),
(550,0,o),
(852,0,cs),
(1132,0,l),
(1132,416,l),
(1016,416,ls),
(874,416,o),
(854,460,o),
(856,540,cs),
(856,1868,l),
(340,1868,l)
);
},
{
closed = 1;
nodes = (
(1930,436,o),
(1866,416,o),
(1748,416,cs),
(1068,416,l),
(1068,0,l),
(1732,0,ls),
(2154,0,o),
(2426,172,o),
(2428,444,cs),
(2426,716,o),
(2226,852,o),
(1868,912,cs),
(1702,940,o),
(1570,964,o),
(1570,1088,cs),
(1570,1184,o),
(1650,1220,o),
(1736,1220,cs),
(1849,1220,o),
(1914,1158,o),
(1916,1024,c),
(2432,1024,l),
(2430,1360,o),
(2158,1556,o),
(1736,1556,cs),
(1314,1556,o),
(1082,1328,o),
(1082,1062,cs),
(1082,796,o),
(1278,629,o),
(1636,564,cs),
(1806,533,o),
(1930,532,o),
(1930,476,cs)
);
},
{
closed = 1;
nodes = (
(156,1536,l),
(156,1168,l),
(1548,1168,l),
(1548,1536,l)
);
}
);
width = 2572;
}
);
unicode = 678;
userData = {
interface.gridadjust.original = "{'width': 1990, 'leftMargin': 8, 'rightMargin': 135}";
"interface.width-adjustments" = (
-16
);
};
}
{
glyphname = finalmem;
layers = (
{
layerId = "B1F27B51-9973-4381-9301-4FE46FE1CA59";
shapes = (
{
closed = 1;
nodes = (
(288,800,l),
(288,736,l),
(1284,736,l),
(1284,800,l)
);
},
{
closed = 1;
nodes = (
(256,800,l),
(256,0,l),
(320,0,l),
(320,800,l)
);
},
{
closed = 1;
nodes = (
(1264,800,l),
(1264,0,l),
(1328,0,l),
(1328,800,l)
);
},
{
closed = 1;
nodes = (
(288,2000,l),
(288,1936,l),
(1284,1936,l),
(1284,2000,l)
);
},
{
closed = 1;
nodes = (
(256,2000,l),
(256,1208,l),
(320,1208,l),
(320,2000,l)
);
},
{
closed = 1;
nodes = (
(1264,2000,l),
(1264,1208,l),
(1328,1208,l),
(1328,2000,l)
);
}
);
width = 1572;
},
{
layerId = "C698F293-3EC0-4A5A-A3A0-0FDB1F5CF265";
shapes = (
{
closed = 1;
nodes = (
(362,800,l),
(362,632,l),
(1110,632,l),
(1110,800,l)
);
},
{
closed = 1;
nodes = (
(182,800,l),
(182,0,l),
(390,0,l),
(390,800,l)
);
},
{
closed = 1;
nodes = (
(1090,800,l),
(1090,0,l),
(1298,0,l),
(1298,800,l)
);
},
{
closed = 1;
nodes = (
(362,2000,l),
(362,1832,l),
(1110,1832,l),
(1110,2000,l)
);
},
{
closed = 1;
nodes = (
(182,2000,l),
(182,1204,l),
(390,1204,l),
(390,2000,l)
);
},
{
closed = 1;
nodes = (
(1090,2000,l),
(1090,1204,l),
(1298,1204,l),
(1298,2000,l)
);
}
);
width = 1476;
},
{
layerId = "5C20EF92-B63D-42A8-8878-93C2863E0093";
shapes = (
{
closed = 1;
nodes = (
(416,804,l),
(416,520,l),
(908,520,l),
(908,804,l)
);
},
{
closed = 1;
nodes = (
(68,804,l),
(68,0,l),
(440,0,l),
(440,804,l)
);
},
{
closed = 1;
nodes = (
(884,804,l),
(884,0,l),
(1256,0,l),
(1256,804,l)
);
},
{
closed = 1;
nodes = (
(416,2004,l),
(416,1716,l),
(908,1716,l),
(908,2004,l)
);
},
{
closed = 1;
nodes = (
(68,2004,l),
(68,1200,l),
(440,1200,l),
(440,2004,l)
);
},
{
closed = 1;
nodes = (
(884,2004,l),
(884,1200,l),
(1256,1200,l),
(1256,2004,l)
);
}
);
width = 1328;
}
);
unicode = 685;
userData = {
interface.gridadjust.original = "{'width': 1335, 'leftMargin': 110, 'rightMargin': 110}";
"interface.width-adjustments" = (
-16
);
};
}
{
glyphname = rturnsuper;
layers = (
{
layerId = "B1F27B51-9973-4381-9301-4FE46FE1CA59";
shapes = (
{
closed = 1;
nodes = (
(87,878,o),
(112,876,o),
(144,876,cs),
(362,876,o),
(473,1052,o),
(474,1400,c),
(432,1400,l),
(432,1099,o),
(331,940,o),
(140,940,cs),
(116,940,o),
(91,943,o),
(60,948,c),
(60,884,l)
);
},
{
closed = 1;
nodes = (
(442,896,l),
(496,896,l),
(496,1988,l),
(432,1988,l),
(432,1220,l)
);
}
);
width = 548;
},
{
layerId = "C698F293-3EC0-4A5A-A3A0-0FDB1F5CF265";
shapes = (
{
closed = 1;
nodes = (
(86,880,o),
(126,876,o),
(166,876,cs),
(354,876,o),
(486,1100,o),
(486,1408,c),
(422,1408,l),
(422,1236,o),
(358,1112,o),
(210,1112,cs),
(158,1112,o),
(114,1124,o),
(70,1144,c),
(70,888,l)
);
},
{
closed = 1;
nodes = (
(450,896,l),
(642,896,l),
(642,1996,l),
(390,1996,l),
(390,1132,l)
);
}
);
width = 708;
},
{
layerId = "5C20EF92-B63D-42A8-8878-93C2863E0093";
shapes = (
{
closed = 1;
nodes = (
(104,896,o),
(128,892,o),
(164,892,cs),
(388,892,o),
(540,1116,o),
(540,1432,c),
(468,1424,l),
(468,1288,o),
(368,1236,o),
(228,1236,cs),
(164,1236,o),
(120,1244,o),
(92,1252,c),
(92,900,l)
);
},
{
closed = 1;
nodes = (
(500,900,l),
(776,900,l),
(776,2008,l),
(432,2008,l),
(432,1136,l)
);
}
);
width = 872;
}
);
unicode = 692;
userData = {
interface.gridadjust.original = "{'width': 763, 'leftMargin': 55, 'rightMargin': 137}";
"interface.width-adjustments" = (
-16
);
};
}
{
glyphname = glottalstopmod;
layers = (
{
layerId = "B1F27B51-9973-4381-9301-4FE46FE1CA59";
shapes = (
{
closed = 1;
nodes = (
(172,2116,l),
(200,2303,o),
(326,2420,o),
(500,2420,cs),
(680,2420,o),
(784,2299,o),
(784,2088,cs),
(784,1752,ls),
(779,1520,o),
(694,1418,o),
(508,1420,c),
(500,1420,l),
(500,1356,l),
(506,1356,l),
(733,1357,o),
(848,1493,o),
(848,1760,cs),
(848,2078,ls),
(848,2332,o),
(721,2482,o),
(504,2484,cs),
(292,2486,o),
(136,2340,o),
(108,2116,c)
);
},
{
closed = 1;
nodes = (
(480,896,l),
(544,896,l),
(544,1420,l),
(480,1420,l)
);
}
);
width = 956;
},
{
layerId = "C698F293-3EC0-4A5A-A3A0-0FDB1F5CF265";
shapes = (
{
closed = 1;
nodes = (
(358,2084,l),
(378,2192,o),
(430,2272,o),
(578,2272,cs),
(778,2272,o),
(830,2120,o),
(830,1932,cs),
(830,1804,ls),
(830,1620,o),
(810,1420,o),
(578,1420,cs),
(534,1420,l),
(534,1212,l),
(578,1212,ls),
(914,1212,o),
(1082,1444,o),
(1082,1804,cs),
(1082,1932,ls),
(1082,2228,o),
(914,2484,o),
(578,2484,cs),
(314,2484,o),
(146,2308,o),
(138,2084,c)
);
},
{
closed = 1;
nodes = (
(486,896,l),
(738,896,l),
(738,1420,l),
(486,1420,l)
);
}
);
width = 1220;
},
{
layerId = "5C20EF92-B63D-42A8-8878-93C2863E0093";
shapes = (
{
closed = 1;
nodes = (
(596,2100,l),
(591,2148,o),
(619,2212,o),
(716,2212,cs),
(827,2212,o),
(831,2112,o),
(832,1948,cs),
(832,1592,ls),
(831,1464,o),
(747,1424,o),
(644,1424,cs),
(548,1424,l),
(548,1144,l),
(704,1144,ls),
(1027,1144,o),
(1195,1324,o),
(1196,1612,cs),
(1196,1964,ls),
(1195,2320,o),
(1027,2488,o),
(708,2488,cs),
(435,2488,o),
(247,2360,o),
(252,2100,c)
);
},
{
closed = 1;
nodes = (
(524,900,l),
(888,900,l),
(888,1424,l),
(524,1424,l)
);
}
);
width = 1444;
}
);
unicode = 704;
userData = {
interface.gridadjust.original = "{'width': 1056.0, 'leftMargin': 28, 'rightMargin': 82.0}";
"interface.width-adjustments" = (
-16
);
};
}
{
color = (204,240,242,1);
glyphname = arrowheadleftmod;
layers = (
{
layerId = "B1F27B51-9973-4381-9301-4FE46FE1CA59";
shapes = (
{
closed = 1;
nodes = (
(256,1338,l),
(1120,1736,l),
(1120,1806,l),
(148,1358,l),
(148,1292,l)
);
},
{
closed = 1;
nodes = (
(1120,910,l),
(256,1308,l),
(148,1354,l),
(148,1288,l),
(1120,840,l)
);
}
);
width = 1200;
},
{
layerId = "C698F293-3EC0-4A5A-A3A0-0FDB1F5CF265";
shapes = (
{
closed = 1;
nodes = (
(490,1348,l),
(1110,1588,l),
(1110,1828,l),
(110,1420,l),
(110,1252,l)
);
},
{
closed = 1;
nodes = (
(1110,1060,l),
(490,1296,l),
(110,1396,l),
(110,1232,l),
(1110,820,l)
);
}
);
width = 1220;
},
{
layerId = "5C20EF92-B63D-42A8-8878-93C2863E0093";
shapes = (
{
closed = 1;
nodes = (
(840,1320,l),
(1468,1516,l),
(1468,1844,l),
(332,1488,l),
(332,1240,l)
);
},
{
closed = 1;
nodes = (
(1468,1128,l),
(840,1312,l),
(332,1396,l),
(332,1148,l),
(1468,792,l)
);
}
);
width = 1800;
}
);
unicode = 706;
userData = {
interface.gridadjust.original = "{'width': 1137, 'leftMargin': 69, 'rightMargin': 69}";
"interface.width-adjustments" = (
-16
);
};
}
{
color = (204,240,242,1);
glyphname = plusmod;
layers = (
{
layerId = "B1F27B51-9973-4381-9301-4FE46FE1CA59";
shapes = (
{
closed = 1;
nodes = (
(394,680,l),
(394,256,l),
(458,256,l),
(458,680,l)
);
},
{
closed = 1;
nodes = (
(208,436,l),
(644,436,l),
(644,500,l),
(208,500,l)
);
}
);
width = 850;
},
{
layerId = "C698F293-3EC0-4A5A-A3A0-0FDB1F5CF265";
shapes = (
{
closed = 1;
nodes = (
(378,760,l),
(378,208,l),
(586,208,l),
(586,760,l)
);
},
{
closed = 1;
nodes = (
(202,388,l),
(762,388,l),
(762,580,l),
(202,580,l)
);
}
);
width = 964;
},
{
layerId = "5C20EF92-B63D-42A8-8878-93C2863E0093";
shapes = (
{
closed = 1;
nodes = (
(424,928,l),
(424,84,l),
(740,84,l),
(740,928,l)
);
},
{
closed = 1;
nodes = (
(200,360,l),
(964,360,l),
(964,660,l),
(200,660,l)
);
}
);
width = 1164;
}
);
unicode = 726;
userData = {
interface.gridadjust.original = "{'width': 781.0, 'leftMargin': 110, 'rightMargin': 110.0}";
"interface.width-adjustments" = (
-16
);
};
}
{
color = 1;
glyphname = s.sups;
kernLeft = s.sups;
kernRight = s.sups;
layers = (
{
layerId = "B1F27B51-9973-4381-9301-4FE46FE1CA59";
shapes = (
{
closed = 1;
nodes = (
(754,1972,o),
(616,2064,o),
(452,2064,cs),
(264,2064,o),
(124,1952,o),
(124,1788,cs),
(124,1660,o),
(208,1567,o),
(368,1528,cs),
(532,1488,ls),
(660,1457,o),
(720,1384,o),
(720,1284,cs),
(720,1152,o),
(604,1060,o),
(432,1060,cs),
(268,1060,o),
(172,1144,o),
(150,1268,c),
(90,1268,l),
(118,1096,o),
(244,1004,o),
(432,1004,cs),
(640,1004,o),
(784,1120,o),
(784,1288,cs),
(784,1412,o),
(704,1509,o),
(548,1548,cs),
(388,1588,ls),
(244,1624,o),
(188,1696,o),
(188,1792,cs),
(188,1920,o),
(300,2004,o),
(452,2004,cs),
(588,2004,o),
(692,1935,o),
(714,1818,c),
(778,1818,l)
);
}
);
userData = {
RMXScaler = {
height = 66.6;
verticalShift = 1024;
width = 66.6;
};
};
width = 868;
},
{
associatedMasterId = "B1F27B51-9973-4381-9301-4FE46FE1CA59";
layerId = "8A8E375E-7B3A-4855-A303-F255842D892B";
name = "May 15, 21 16:44";
shapes = (
{
closed = 1;
nodes = (
(724,1980,o),
(616,2064,o),
(452,2064,cs),
(264,2064,o),
(124,1952,o),
(124,1788,cs),
(124,1660,o),
(208,1568,o),
(368,1528,cs),
(532,1488,ls),
(660,1456,o),
(720,1384,o),
(720,1284,cs),
(720,1152,o),
(604,1060,o),
(432,1060,cs),
(268,1060,o),
(176,1144,o),
(148,1276,c),
(88,1260,l),
(124,1096,o),
(244,1004,o),
(432,1004,cs),
(640,1004,o),
(784,1120,o),
(784,1288,cs),
(784,1412,o),
(704,1508,o),
(548,1548,cs),
(388,1588,ls),
(244,1624,o),
(188,1696,o),
(188,1792,cs),
(188,1920,o),
(300,2004,o),
(452,2004,cs),
(588,2004,o),
(676,1936,o),
(716,1812,c),
(772,1828,l)
);
}
);
userData = {
RMXScaler = {
height = 66.6;
verticalShift = 1024;
width = 66.6;
};
};
width = 868;
},
{
associatedMasterId = "C698F293-3EC0-4A5A-A3A0-0FDB1F5CF265";
layerId = "E7382819-654B-4D24-9CA6-867C5AFB1005";
name = "May 15, 21 16:44";
shapes = (
{
closed = 1;
nodes = (
(848,1956,o),
(708,2060,o),
(480,2060,cs),
(244,2060,o),
(84,1944,o),
(84,1756,cs),
(84,1612,o),
(172,1512,o),
(360,1472,cs),
(532,1436,ls),
(644,1412,o),
(684,1364,o),
(684,1304,cs),
(684,1220,o),
(596,1164,o),
(476,1164,cs),
(356,1164,o),
(284,1216,o),
(260,1316,c),
(52,1300,l),
(80,1116,o),
(236,1004,o),
(476,1004,cs),
(720,1004,o),
(900,1132,o),
(900,1324,cs),
(900,1460,o),
(808,1556,o),
(624,1596,cs),
(448,1636,ls),
(340,1660,o),
(292,1704,o),
(292,1768,cs),
(292,1852,o),
(380,1904,o),
(484,1904,cs),
(604,1904,o),
(664,1840,o),
(684,1764,c),
(880,1780,l)
);
}
);
userData = {
RMXScaler = {
height = 66.6;
verticalShift = 1024;
weight = -50;
width = 66.6;
};
};
width = 952;
},
{
layerId = "C698F293-3EC0-4A5A-A3A0-0FDB1F5CF265";
shapes = (
{
closed = 1;
nodes = (
(870,1947,o),
(718,2060,o),
(490,2060,cs),
(254,2060,o),
(94,1944,o),
(94,1756,cs),
(94,1612,o),
(182,1511,o),
(370,1472,cs),
(542,1436,ls),
(654,1413,o),
(694,1364,o),
(694,1304,cs),
(694,1220,o),
(606,1164,o),
(486,1164,cs),
(366,1164,o),
(294,1216,o),
(270,1316,c),
(66,1316,l),
(94,1116,o),
(246,1004,o),
(486,1004,cs),
(730,1004,o),
(910,1132,o),
(910,1324,cs),
(910,1460,o),
(818,1554,o),
(634,1596,cs),
(458,1636,ls),
(350,1661,o),
(302,1704,o),
(302,1768,cs),
(302,1852,o),
(390,1904,o),
(494,1904,cs),
(614,1904,o),
(684,1841,o),
(700,1764,c),
(896,1764,l)
);
}
);
userData = {
RMXScaler = {
height = 66.6;
verticalShift = 1024;
weight = -50;
width = 66.6;
};
};
width = 972;
},
{
layerId = "5C20EF92-B63D-42A8-8878-93C2863E0093";
shapes = (
{
closed = 1;
nodes = (
(1010,1920,o),
(844,2060,o),
(544,2060,cs),
(260,2060,o),
(72,1932,o),
(72,1724,cs),
(72,1560,o),
(172,1462,o),
(388,1420,cs),
(572,1384,ls),
(636,1371,o),
(676,1356,o),
(676,1324,cs),
(676,1292,o),
(624,1268,o),
(552,1268,cs),
(476,1268,o),
(412,1296,o),
(404,1352,c),
(48,1350,l),
(68,1132,o),
(256,1004,o),
(552,1004,cs),
(836,1004,o),
(1048,1148,o),
(1048,1360,cs),
(1048,1536,o),
(920,1612,o),
(728,1648,cs),
(536,1684,ls),
(456,1699,o),
(432,1712,o),
(432,1744,cs),
(432,1780,o),
(492,1800,o),
(548,1800,cs),
(636,1800,o),
(680,1771,o),
(688,1720,c),
(1020,1720,l)
);
}
);
userData = {
RMXScaler = {
height = 66.6;
verticalShift = 1024;
weight = -300;
width = 66.6;
};
};
width = 1096;
},
{
associatedMasterId = "5C20EF92-B63D-42A8-8878-93C2863E0093";
layerId = "ACA52782-A12D-42A5-9787-6C7CAB0CE94E";
name = "May 15, 21 16:44";
shapes = (
{
closed = 1;
nodes = (
(1024,1920,o),
(868,2060,o),
(568,2060,cs),
(284,2060,o),
(96,1932,o),
(96,1724,cs),
(96,1560,o),
(196,1460,o),
(412,1420,cs),
(596,1384,ls),
(660,1372,o),
(700,1356,o),
(700,1324,cs),
(700,1292,o),
(648,1268,o),
(576,1268,cs),
(500,1268,o),
(440,1296,o),
(428,1360,c),
(72,1336,l),
(96,1132,o),
(280,1004,o),
(576,1004,cs),
(860,1004,o),
(1072,1148,o),
(1072,1360,cs),
(1072,1536,o),
(944,1612,o),
(752,1648,cs),
(560,1684,ls),
(480,1700,o),
(456,1712,o),
(456,1744,cs),
(456,1780,o),
(516,1800,o),
(572,1800,cs),
(660,1800,o),
(708,1748,o),
(712,1712,c),
(1040,1736,l)
);
}
);
userData = {
RMXScaler = {
height = 66.6;
verticalShift = 1024;
weight = -300;
width = 66.6;
};
};
width = 1144;
}
);
unicode = 738;
userData = {
RMXScaler = {
source = s;
};
};
}
{
color = (204,240,242,1);
glyphname = tonebarextrahighmod.cn;
layers = (
{
layerId = "B1F27B51-9973-4381-9301-4FE46FE1CA59";
shapes = (
{
closed = 1;
nodes = (
(592,2004,l),
(592,0,l),
(656,0,l),
(656,2004,l)
);
},
{
closed = 1;
nodes = (
(208,2004,l),
(208,1940,l),
(632,1940,l),
(632,2004,l)
);
}
);
width = 866;
},
{
layerId = "C698F293-3EC0-4A5A-A3A0-0FDB1F5CF265";
shapes = (
{
closed = 1;
nodes = (
(522,2004,l),
(522,0,l),
(798,0,l),
(798,2004,l)
);
},
{
closed = 1;
nodes = (
(166,2004,l),
(166,1784,l),
(730,1784,l),
(730,2004,l)
);
}
);
width = 964;
},
{
layerId = "5C20EF92-B63D-42A8-8878-93C2863E0093";
shapes = (
{
closed = 1;
nodes = (
(528,2004,l),
(528,0,l),
(1044,0,l),
(1044,2004,l)
);
},
{
closed = 1;
nodes = (
(104,2004,l),
(104,1588,l),
(1000,1588,l),
(1000,2004,l)
);
}
);
width = 1140;
}
);
unicode = 741;
userData = {
interface.gridadjust.original = "{'width': 919, 'leftMargin': 55, 'rightMargin': 234}";
"interface.width-adjustments" = (
-16
);
};
}
{
color = (204,240,242,1);
glyphname = lowdownarrowheadmod;
layers = (
{
layerId = "B1F27B51-9973-4381-9301-4FE46FE1CA59";
shapes = (
{
closed = 1;
nodes = (
(456,-740,l),
(372,-532,l),
(166,-100,l),
(96,-100,l),
(400,-740,l)
);
},
{
closed = 1;
nodes = (
(464,-740,l),
(760,-100,l),
(690,-100,l),
(490,-532,l),
(406,-740,l)
);
}
);
width = 856;
},
{
layerId = "C698F293-3EC0-4A5A-A3A0-0FDB1F5CF265";
shapes = (
{
closed = 1;
nodes = (
(534,-748,l),
(466,-504,l),
(298,-100,l),
(130,-100,l),
(418,-748,l)
);
},
{
closed = 1;
nodes = (
(550,-748,l),
(834,-100,l),
(666,-100,l),
(502,-504,l),
(434,-748,l)
);
}
);
width = 964;
},
{
layerId = "5C20EF92-B63D-42A8-8878-93C2863E0093";
shapes = (
{
closed = 1;
nodes = (
(636,-764,l),
(572,-460,l),
(432,-100,l),
(192,-100,l),
(456,-764,l)
);
},
{
closed = 1;
nodes = (
(700,-764,l),
(964,-100,l),
(728,-100,l),
(584,-460,l),
(524,-764,l)
);
}
);
width = 1156;
}
);
unicode = 751;
userData = {
interface.gridadjust.original = "{'width': 843, 'leftMargin': 69, 'rightMargin': 69}";
"interface.width-adjustments" = (
-16
);
};
}
{
color = (204,240,242,1);
glyphname = uni02F1;
layers = (
{
layerId = "B1F27B51-9973-4381-9301-4FE46FE1CA59";
shapes = (
{
closed = 1;
nodes = (
(318,-382,l),
(746,-214,l),
(746,-146,l),
(106,-396,l),
(106,-450,l)
);
},
{
closed = 1;
nodes = (
(746,-626,l),
(318,-470,l),
(106,-404,l),
(106,-460,l),
(746,-694,l)
);
}
);
width = 856;
},
{
layerId = "C698F293-3EC0-4A5A-A3A0-0FDB1F5CF265";
shapes = (
{
closed = 1;
nodes = (
(398,-412,l),
(834,-252,l),
(834,-100,l),
(134,-364,l),
(134,-472,l)
);
},
{
closed = 1;
nodes = (
(834,-596,l),
(398,-444,l),
(134,-380,l),
(134,-484,l),
(834,-752,l)
);
}
);
width = 964;
},
{
layerId = "5C20EF92-B63D-42A8-8878-93C2863E0093";
shapes = (
{
closed = 1;
nodes = (
(532,-416,l),
(976,-296,l),
(976,-76,l),
(180,-312,l),
(180,-472,l)
);
},
{
closed = 1;
nodes = (
(976,-544,l),
(532,-428,l),
(180,-368,l),
(180,-536,l),
(976,-764,l)
);
}
);
width = 1156;
}
);
unicode = 753;
userData = {
interface.gridadjust.original = "{'width': 837, 'leftMargin': 69, 'rightMargin': 68}";
"interface.width-adjustments" = (
-16
);
};
}
{
color = (204,240,242,1);
glyphname = uni02FA;
layers = (
{
layerId = "B1F27B51-9973-4381-9301-4FE46FE1CA59";
shapes = (
{
closed = 1;
nodes = (
(480,1664,l),
(480,2112,l),
(416,2112,l),
(416,1664,l)
);
},
{
closed = 1;
nodes = (
(480,2048,l),
(480,2112,l),
(64,2112,l),
(64,2048,l)
);
}
);
width = 544;
},
{
layerId = "C698F293-3EC0-4A5A-A3A0-0FDB1F5CF265";
shapes = (
{
closed = 1;
nodes = (
(630,1580,l),
(630,2112,l),
(422,2112,l),
(422,1580,l)
);
},
{
closed = 1;
nodes = (
(630,1920,l),
(630,2112,l),
(82,2112,l),
(82,1920,l)
);
}
);
width = 708;
},
{
layerId = "5C20EF92-B63D-42A8-8878-93C2863E0093";
shapes = (
{
closed = 1;
nodes = (
(936,1548,l),
(936,2112,l),
(628,2112,l),
(628,1548,l)
);
},
{
closed = 1;
nodes = (
(936,1824,l),
(936,2112,l),
(324,2112,l),
(324,1824,l)
);
}
);
width = 1260;
}
);
unicode = 762;
userData = {
interface.gridadjust.original = "{'width': 767, 'leftMargin': 110, 'rightMargin': 110}";
"interface.width-adjustments" = (
-16
);
};
}
{
color = (250,227,227,1);
glyphname = gravecomb;
layers = (
{
layerId = "B1F27B51-9973-4381-9301-4FE46FE1CA59";
shapes = (
{
closed = 1;
nodes = (
(-966,2112,l),
(-690,1724,l),
(-616,1724,l),
(-868,2112,l)
);
}
);
width = 0;
},
{
background = {
shapes = (
{
closed = 1;
nodes = (
(-598,1704,l),
(-842,2168,l),
(-1118,2168,l),
(-806,1704,l)
);
}
);
};
layerId = "C698F293-3EC0-4A5A-A3A0-0FDB1F5CF265";
shapes = (
{
closed = 1;
nodes = (
(-1228,2112,l),
(-864,1704,l),
(-632,1704,l),
(-896,2112,l)
);
}
);
width = 0;
},
{
layerId = "5C20EF92-B63D-42A8-8878-93C2863E0093";
shapes = (
{
closed = 1;
nodes = (
(-1456,2112,l),
(-1044,1672,l),
(-628,1672,l),
(-916,2112,l)
);
}
);
width = 0;
}
);
unicode = 768;
}
{
color = (250,227,227,1);
glyphname = breveinvsubnosp;
layers = (
{
layerId = "B1F27B51-9973-4381-9301-4FE46FE1CA59";
shapes = (
{
closed = 1;
nodes = (
(-522,-235,o),
(-606,-148,o),
(-746,-148,cs),
(-886,-148,o),
(-970,-235,o),
(-970,-376,c),
(-906,-376,l),
(-906,-270,o),
(-850,-212,o),
(-746,-212,cs),
(-642,-212,o),
(-586,-270,o),
(-586,-376,c),
(-522,-376,l)
);
}
);
width = 0;
},
{
layerId = "C698F293-3EC0-4A5A-A3A0-0FDB1F5CF265";
shapes = (
{
closed = 1;
nodes = (
(-428,-296,o),
(-584,-144,o),
(-840,-144,cs),
(-1096,-144,o),
(-1256,-296,o),
(-1256,-512,c),
(-1036,-512,l),
(-1036,-408,o),
(-984,-312,o),
(-840,-312,cs),
(-704,-312,o),
(-648,-404,o),
(-648,-512,c),
(-428,-512,l)
);
}
);
width = 0;
},
{
layerId = "5C20EF92-B63D-42A8-8878-93C2863E0093";
shapes = (
{
closed = 1;
nodes = (
(-418,-304,o),
(-630,-120,o),
(-968,-120,cs),
(-1306,-120,o),
(-1518,-304,o),
(-1520,-564,c),
(-1172,-564,l),
(-1170,-480,o),
(-1114,-400,o),
(-968,-400,cs),
(-822,-400,o),
(-766,-480,o),
(-768,-564,c),
(-420,-564,l)
);
}
);
width = 0;
}
);
unicode = 815;
}
{
color = (250,227,227,1);
glyphname = barmidlongnosp;
layers = (
{
layerId = "B1F27B51-9973-4381-9301-4FE46FE1CA59";
shapes = (
{
closed = 1;
nodes = (
(-1432,800,l),
(-1432,736,l),
(-12,736,l),
(-12,800,l)
);
}
);
width = 0;
},
{
layerId = "C698F293-3EC0-4A5A-A3A0-0FDB1F5CF265";
shapes = (
{
closed = 1;
nodes = (
(-1696,852,l),
(-1696,632,l),
(12,632,l),
(12,852,l)
);
}
);
width = 0;
},
{
layerId = "5C20EF92-B63D-42A8-8878-93C2863E0093";
shapes = (
{
closed = 1;
nodes = (
(-1940,868,l),
(-1940,588,l),
(-72,588,l),
(-72,868,l)
);
}
);
width = 0;
}
);
unicode = 822;
}
{
color = (250,227,227,1);
glyphname = uni034A;
layers = (
{
layerId = "B1F27B51-9973-4381-9301-4FE46FE1CA59";
shapes = (
{
closed = 1;
nodes = (
(-455,1796,o),
(-341,1878,o),
(-312,2000,c),
(-376,2016,l),
(-397,1922,o),
(-485,1860,o),
(-576,1860,cs),
(-723,1860,o),
(-783,2024,o),
(-968,2024,cs),
(-1104,2024,o),
(-1213,1937,o),
(-1232,1812,c),
(-1168,1804,l),
(-1155,1895,o),
(-1072,1960,o),
(-968,1960,cs),
(-798,1960,o),
(-747,1796,o),
(-576,1796,cs)
);
},
{
closed = 1;
nodes = (
(-590,2070,l),
(-638,2112,l),
(-922,1728,l),
(-874,1686,l)
);
}
);
width = 0;
},
{
layerId = "C698F293-3EC0-4A5A-A3A0-0FDB1F5CF265";
shapes = (
{
closed = 1;
nodes = (
(-516,1744,o),
(-384,1876,o),
(-384,2084,c),
(-564,2100,l),
(-564,2016,o),
(-624,1948,o),
(-700,1948,cs),
(-844,1948,o),
(-912,2076,o),
(-1064,2076,cs),
(-1236,2076,o),
(-1368,1932,o),
(-1368,1728,c),
(-1184,1720,l),
(-1184,1804,o),
(-1128,1872,o),
(-1052,1872,cs),
(-900,1872,o),
(-872,1744,o),
(-688,1744,cs)
);
},
{
closed = 1;
nodes = (
(-644,2080,l),
(-776,2164,l),
(-1036,1716,l),
(-904,1632,l)
);
}
);
width = 0;
},
{
layerId = "5C20EF92-B63D-42A8-8878-93C2863E0093";
shapes = (
{
closed = 1;
nodes = (
(-570,1728,o),
(-430,1924,o),
(-432,2116,c),
(-716,2132,l),
(-714,2048,o),
(-770,2020,o),
(-824,2020,cs),
(-958,2020,o),
(-1078,2128,o),
(-1228,2128,cs),
(-1422,2128,o),
(-1562,1932,o),
(-1564,1740,c),
(-1280,1724,l),
(-1278,1808,o),
(-1230,1840,o),
(-1172,1840,cs),
(-1026,1840,o),
(-942,1728,o),
(-768,1728,cs)
);
},
{
closed = 1;
nodes = (
(-748,2132,l),
(-936,2216,l),
(-1160,1664,l),
(-968,1580,l)
);
}
);
width = 0;
}
);
unicode = 842;
}
{
color = (250,227,227,1);
glyphname = uni034E;
layers = (
{
layerId = "B1F27B51-9973-4381-9301-4FE46FE1CA59";
shapes = (
{
closed = 1;
nodes = (
(-732,-224,l),
(-796,-224,l),
(-796,-756,l),
(-732,-756,l)
);
},
{
closed = 1;
nodes = (
(-728,-208,l),
(-764,-156,l),
(-1120,-460,l),
(-1120,-546,l)
);
},
{
closed = 1;
nodes = (
(-764,-156,l),
(-804,-204,l),
(-408,-546,l),
(-408,-460,l)
);
}
);
width = 0;
},
{
layerId = "C698F293-3EC0-4A5A-A3A0-0FDB1F5CF265";
shapes = (
{
closed = 1;
nodes = (
(-772,-252,l),
(-908,-252,l),
(-908,-756,l),
(-772,-756,l)
);
},
{
closed = 1;
nodes = (
(-756,-224,l),
(-840,-132,l),
(-1172,-420,l),
(-1172,-588,l)
);
},
{
closed = 1;
nodes = (
(-840,-132,l),
(-920,-228,l),
(-508,-588,l),
(-508,-420,l)
);
}
);
width = 0;
},
{
layerId = "5C20EF92-B63D-42A8-8878-93C2863E0093";
shapes = (
{
closed = 1;
nodes = (
(-824,-200,l),
(-1048,-200,l),
(-1048,-760,l),
(-824,-760,l)
);
},
{
closed = 1;
nodes = (
(-860,-248,l),
(-936,-92,l),
(-1228,-352,l),
(-1228,-576,l)
);
},
{
closed = 1;
nodes = (
(-936,-92,l),
(-1008,-252,l),
(-644,-576,l),
(-644,-352,l)
);
}
);
width = 0;
}
);
unicode = 846;
}
{
color = (250,227,227,1);
glyphname = breveinverteddoublecmb;
layers = (
{
layerId = "B1F27B51-9973-4381-9301-4FE46FE1CA59";
shapes = (
{
closed = 1;
nodes = (
(742,1917,o),
(376,2044,o),
(36,2044,cs),
(-313,2044,o),
(-673,1910,o),
(-856,1720,c),
(-790,1720,l),
(-602,1874,o),
(-255,1979,o),
(32,1980,cs),
(325,1981,o),
(661,1874,o),
(858,1720,c),
(924,1720,l)
);
}
);
width = 0;
},
{
layerId = "C698F293-3EC0-4A5A-A3A0-0FDB1F5CF265";
shapes = (
{
closed = 1;
nodes = (
(780,1852,o),
(412,2044,o),
(-32,2044,cs),
(-480,2044,o),
(-844,1848,o),
(-996,1632,c),
(-776,1632,l),
(-672,1732,o),
(-360,1872,o),
(-32,1872,cs),
(296,1872,o),
(608,1732,o),
(712,1632,c),
(932,1632,l)
);
}
);
width = 0;
},
{
layerId = "5C20EF92-B63D-42A8-8878-93C2863E0093";
shapes = (
{
closed = 1;
nodes = (
(876,1744,o),
(672,2044,o),
(-108,2044,cs),
(-894,2044,o),
(-1098,1744,o),
(-1200,1484,c),
(-852,1484,l),
(-758,1568,o),
(-670,1764,o),
(-108,1764,cs),
(448,1764,o),
(552,1568,o),
(632,1484,c),
(980,1484,l)
);
}
);
width = 0;
}
);
unicode = 865;
}
{
color = (250,227,227,1);
glyphname = uni0363;
layers = (
{
layerId = "B1F27B51-9973-4381-9301-4FE46FE1CA59";
shapes = (
{
closed = 1;
nodes = (
(-504,1728,o),
(-500,1698,o),
(-490,1652,c),
(-422,1652,l),
(-434,1700,o),
(-442,1766,o),
(-442,1824,cs),
(-442,2156,ls),
(-442,2340,o),
(-544,2416,o),
(-680,2416,cs),
(-830,2416,o),
(-944,2322,o),
(-946,2196,c),
(-884,2184,l),
(-882,2288,o),
(-804,2352,o),
(-680,2352,cs),
(-564,2352,o),
(-506,2292,o),
(-506,2140,cs),
(-506,1780,l,{
name = hr00;
})
);
},
{
closed = 1;
nodes = (
(-726,2056,ls),
(-878,2056,o),
(-978,1982,o),
(-978,1856,cs),
(-978,1732,o),
(-890,1644,o),
(-754,1644,cs),
(-646,1644,o),
(-534,1708,o),
(-490,1788,c),
(-498,1840,l),
(-532,1778,o),
(-638,1708,o),
(-750,1708,cs),
(-854,1708,o),
(-914,1768,o),
(-914,1854,cs),
(-914,1944,o),
(-842,1992,o),
(-726,1992,cs),
(-494,1992,l),
(-494,2056,l)
);
}
);
width = 0;
},
{
layerId = "C698F293-3EC0-4A5A-A3A0-0FDB1F5CF265";
shapes = (
{
closed = 1;
nodes = (
(-676,1748,o),
(-664,1700,o),
(-652,1652,c),
(-468,1652,l),
(-488,1716,o),
(-492,1780,o),
(-492,1832,cs),
(-492,2144,ls),
(-492,2324,o),
(-616,2420,o),
(-792,2420,cs),
(-976,2420,o),
(-1100,2320,o),
(-1100,2188,c),
(-928,2176,l),
(-928,2236,o),
(-876,2272,o),
(-792,2272,cs),
(-712,2272,o),
(-676,2228,o),
(-676,2148,cs),
(-676,1808,l)
);
},
{
closed = 1;
nodes = (
(-812,2096,ls),
(-1024,2096,o),
(-1148,2012,o),
(-1148,1868,cs),
(-1148,1728,o),
(-1048,1640,o),
(-892,1640,cs),
(-760,1640,o),
(-680,1716,o),
(-652,1780,c),
(-668,1896,l),
(-668,1848,o),
(-768,1784,o),
(-848,1784,cs),
(-928,1784,o),
(-968,1816,o),
(-968,1872,cs),
(-968,1928,o),
(-908,1980,o),
(-812,1980,cs),
(-656,1980,l),
(-656,2096,l)
);
}
);
width = 0;
},
{
layerId = "5C20EF92-B63D-42A8-8878-93C2863E0093";
shapes = (
{
closed = 1;
nodes = (
(-876,1788,o),
(-868,1696,o),
(-840,1652,c),
(-592,1652,l),
(-612,1696,o),
(-628,1736,o),
(-628,1848,cs),
(-628,2156,ls),
(-628,2336,o),
(-772,2428,o),
(-960,2428,cs),
(-1172,2428,o),
(-1312,2316,o),
(-1312,2172,c),
(-1056,2180,l),
(-1056,2228,o),
(-1032,2248,o),
(-980,2248,cs),
(-912,2248,o),
(-876,2216,o),
(-876,2160,c),
(-876,1856,l,{
name = hr00;
})
);
},
{
closed = 1;
nodes = (
(-940,2124,ls),
(-1200,2124,o),
(-1320,2024,o),
(-1320,1868,cs),
(-1320,1728,o),
(-1216,1636,o),
(-1068,1636,cs),
(-912,1636,o),
(-840,1732,o),
(-800,1808,c),
(-868,1900,l),
(-868,1868,o),
(-904,1816,o),
(-992,1816,cs),
(-1032,1816,o),
(-1072,1844,o),
(-1072,1880,cs),
(-1072,1940,o),
(-1036,1996,o),
(-940,1996,c),
(-844,1996,l),
(-848,2124,l)
);
}
);
width = 0;
}
);
unicode = 867;
}
{
color = (250,227,227,1);
glyphname = uni036B;
layers = (
{
layerId = "B1F27B51-9973-4381-9301-4FE46FE1CA59";
shapes = (
{
closed = 1;
nodes = (
(-1166,2412,l),
(-1212,2412,l),
(-1212,1652,l),
(-1148,1652,l),
(-1148,2244,l)
);
},
{
closed = 1;
nodes = (
(-1148,2260,o),
(-1076,2360,o),
(-916,2360,cs),
(-788,2360,o),
(-748,2296,o),
(-748,2092,cs),
(-748,1652,l),
(-684,1652,l),
(-684,2142,ls),
(-684,2320,o),
(-754,2424,o),
(-916,2424,cs),
(-1094,2424,o),
(-1188,2292,o),
(-1188,2056,c),
(-1148,2060,l)
);
},
{
closed = 1;
nodes = (
(-684,2260,o),
(-612,2360,o),
(-452,2360,cs),
(-324,2360,o),
(-284,2296,o),
(-284,2092,cs),
(-284,1652,l),
(-220,1652,l),
(-220,2142,ls),
(-220,2320,o),
(-290,2424,o),
(-452,2424,cs),
(-630,2424,o),
(-724,2292,o),
(-724,2056,c),
(-684,2060,l)
);
}
);
width = 0;
},
{
layerId = "C698F293-3EC0-4A5A-A3A0-0FDB1F5CF265";
shapes = (
{
closed = 1;
nodes = (
(-1228,2412,l),
(-1360,2412,l),
(-1360,1652,l),
(-1180,1652,l),
(-1180,2236,l)
);
},
{
closed = 1;
nodes = (
(-1204,2192,o),
(-1152,2272,o),
(-1028,2272,cs),
(-936,2272,o),
(-896,2216,o),
(-896,2096,cs),
(-896,1652,l),
(-716,1652,l),
(-716,2096,ls),
(-716,2324,o),
(-816,2420,o),
(-980,2420,cs),
(-1184,2420,o),
(-1268,2264,o),
(-1268,2052,c),
(-1204,2052,l)
);
},
{
closed = 1;
nodes = (
(-740,2192,o),
(-688,2272,o),
(-564,2272,cs),
(-472,2272,o),
(-436,2216,o),
(-436,2096,cs),
(-436,1652,l),
(-252,1652,l),
(-252,2094,ls),
(-252,2324,o),
(-352,2420,o),
(-516,2420,cs),
(-724,2420,o),
(-804,2260,o),
(-804,2052,c),
(-740,2052,l)
);
}
);
width = 0;
},
{
layerId = "5C20EF92-B63D-42A8-8878-93C2863E0093";
shapes = (
{
closed = 1;
nodes = (
(-1348,2412,l),
(-1576,2412,l),
(-1576,1652,l),
(-1324,1652,l),
(-1324,2224,l)
);
},
{
closed = 1;
nodes = (
(-1348,2144,o),
(-1316,2220,o),
(-1200,2220,cs),
(-1148,2220,o),
(-1108,2188,o),
(-1108,2116,cs),
(-1108,1652,l),
(-856,1652,l),
(-856,2116,ls),
(-856,2328,o),
(-968,2420,o),
(-1120,2420,cs),
(-1316,2420,o),
(-1432,2264,o),
(-1432,2052,c),
(-1348,2052,l)
);
},
{
closed = 1;
nodes = (
(-880,2140,o),
(-852,2220,o),
(-736,2220,cs),
(-680,2220,o),
(-640,2184,o),
(-640,2116,cs),
(-640,1652,l),
(-392,1652,l),
(-392,2116,ls),
(-392,2328,o),
(-500,2420,o),
(-652,2420,cs),
(-852,2420,o),
(-964,2260,o),
(-964,2052,c),
(-880,2052,l)
);
}
);
width = 0;
}
);
unicode = 875;
}
{
glyphname = uni0371;
layers = (
{
layerId = "B1F27B51-9973-4381-9301-4FE46FE1CA59";
shapes = (
{
closed = 1;
nodes = (
(396,1344,ls),
(396,1484,o),
(329,1560,o),
(192,1560,cs),
(170,1560,o),
(142,1558,o),
(112,1554,c),
(112,1490,l),
(143,1494,o),
(171,1496,o),
(194,1496,cs),
(298,1496,o),
(332,1450,o),
(332,1324,cs),
(332,0,l),
(396,0,l,{
name = hr00;
})
);
},
{
closed = 1;
nodes = (
(372,778,l),
(372,714,l),
(1156,714,l),
(1156,778,l)
);
}
);
width = 1310;
},
{
layerId = "C698F293-3EC0-4A5A-A3A0-0FDB1F5CF265";
shapes = (
{
closed = 1;
nodes = (
(662,1148,ls),
(662,1412,o),
(466,1556,o),
(242,1556,cs),
(198,1556,o),
(142,1548,o),
(106,1540,c),
(106,1356,l),
(126,1360,o),
(162,1364,o),
(182,1364,cs),
(306,1364,o),
(386,1304,o),
(386,1148,cs),
(386,0,l),
(662,0,l)
);
},
{
closed = 1;
nodes = (
(606,848,l),
(606,628,l),
(1374,628,l),
(1374,848,l)
);
}
);
width = 1476;
},
{
layerId = "5C20EF92-B63D-42A8-8878-93C2863E0093";
shapes = (
{
closed = 1;
nodes = (
(1000,1032,ls),
(1000,1524,o),
(661,1556,o),
(380,1556,cs),
(261,1556,o),
(177,1548,o),
(100,1536,c),
(100,1192,l),
(145,1196,o),
(177,1200,o),
(228,1200,cs),
(329,1200,o),
(480,1176,o),
(480,1032,cs),
(480,0,l),
(1000,0,l,{
name = hr00;
})
);
},
{
closed = 1;
nodes = (
(804,932,l),
(804,520,l),
(1580,520,l),
(1580,932,l)
);
}
);
width = 1680;
}
);
unicode = 881;
userData = {
interface.gridadjust.original = "{'width': 1349, 'leftMargin': 41, 'rightMargin': 41}";
"interface.width-adjustments" = (
-16
);
};
}
{
glyphname = uni037C;
layers = (
{
background = {
shapes = (
{
closed = 1;
nodes = (
(624,712,o),
(656,680,o),
(696,680,cs),
(736,680,o),
(768,712,o),
(768,752,cs),
(768,792,o),
(736,824,o),
(696,824,cs),
(656,824,o),
(624,792,o),
(624,752,cs)
);
},
{
closed = 1;
nodes = (
(1024,-32,o),
(1244,158,o),
(1300,424,c),
(1232,424,l),
(1184,198,o),
(988,32,o),
(736,32,cs),
(392,32,o),
(184,338,o),
(184,708,cs),
(184,784,ls),
(184,1188,o),
(410,1452,o),
(744,1452,cs),
(1006,1452,o),
(1178,1286,o),
(1230,1044,c),
(1298,1044,l),
(1240,1324,o),
(1038,1516,o),
(744,1516,cs),
(368,1516,o),
(120,1214,o),
(120,784,cs),
(120,708,ls),
(120,296,o),
(358,-32,o),
(736,-32,cs)
);
}
);
};
layerId = "B1F27B51-9973-4381-9301-4FE46FE1CA59";
shapes = (
{
closed = 1;
nodes = (
(592,732,o),
(624,700,o),
(664,700,cs),
(704,700,o),
(736,732,o),
(736,772,cs),
(736,812,o),
(704,844,o),
(664,844,cs),
(624,844,o),
(592,812,o),
(592,772,cs)
);
},
{
closed = 1;
nodes = (
(992,-32,o),
(1212,158,o),
(1268,444,c),
(1200,444,l),
(1152,198,o),
(956,32,o),
(704,32,cs),
(360,32,o),
(152,338,o),
(152,728,cs),
(152,804,ls),
(152,1228,o),
(378,1492,o),
(712,1492,cs),
(974,1492,o),
(1146,1326,o),
(1198,1064,c),
(1266,1064,l),
(1208,1364,o),
(1006,1556,o),
(712,1556,cs),
(336,1556,o),
(88,1254,o),
(88,804,cs),
(88,728,ls),
(88,296,o),
(326,-32,o),
(704,-32,cs)
);
}
);
width = 1358;
},
{
background = {
shapes = (
{
closed = 1;
nodes = (
(600,656,o),
(652,588,o),
(756,588,cs),
(860,588,o),
(916,656,o),
(916,740,cs),
(916,824,o),
(860,892,o),
(756,892,cs),
(652,892,o),
(600,824,o),
(600,740,cs)
);
},
{
closed = 1;
nodes = (
(1112,-28,o),
(1380,212,o),
(1392,472,c),
(1132,472,l),
(1120,316,o),
(972,192,o),
(796,192,cs),
(484,192,o),
(404,464,o),
(404,716,cs),
(404,772,ls),
(404,1024,o),
(488,1296,o),
(796,1296,cs),
(996,1296,o),
(1120,1148,o),
(1132,976,c),
(1392,976,l),
(1380,1276,o),
(1152,1516,o),
(796,1516,cs),
(344,1516,o),
(128,1168,o),
(128,772,cs),
(128,716,ls),
(128,320,o),
(340,-28,o),
(796,-28,cs)
);
}
);
};
layerId = "C698F293-3EC0-4A5A-A3A0-0FDB1F5CF265";
shapes = (
{
closed = 1;
nodes = (
(578,676,o),
(630,608,o),
(734,608,cs),
(838,608,o),
(894,676,o),
(894,760,cs),
(894,844,o),
(838,912,o),
(734,912,cs),
(630,912,o),
(578,844,o),
(578,760,cs)
);
},
{
closed = 1;
nodes = (
(1090,-28,o),
(1358,212,o),
(1370,492,c),
(1110,492,l),
(1098,316,o),
(950,192,o),
(774,192,cs),
(462,192,o),
(382,464,o),
(382,736,cs),
(382,792,ls),
(382,1064,o),
(466,1336,o),
(774,1336,cs),
(974,1336,o),
(1098,1188,o),
(1110,996,c),
(1370,996,l),
(1358,1316,o),
(1130,1556,o),
(774,1556,cs),
(322,1556,o),
(106,1208,o),
(106,792,cs),
(106,736,ls),
(106,320,o),
(318,-28,o),
(774,-28,cs)
);
}
);
width = 1476;
},
{
background = {
shapes = (
{
closed = 1;
nodes = (
(697,620,o),
(789,532,o),
(912,532,cs),
(1041,532,o),
(1133,616,o),
(1132,728,cs),
(1133,844,o),
(1045,924,o),
(912,924,cs),
(789,924,o),
(697,844,o),
(696,728,cs)
);
},
{
closed = 1;
nodes = (
(1253,-28,o),
(1549,184,o),
(1544,556,c),
(1060,556,l),
(1061,440,o),
(993,388,o),
(868,388,cs),
(661,388,o),
(661,580,o),
(660,732,cs),
(660,756,ls),
(661,904,o),
(661,1104,o),
(864,1104,cs),
(1005,1104,o),
(1061,1008,o),
(1060,896,c),
(1544,896,l),
(1549,1304,o),
(1269,1516,o),
(876,1516,cs),
(393,1516,o),
(141,1196,o),
(140,756,cs),
(140,732,ls),
(141,288,o),
(393,-28,o),
(880,-28,cs)
);
}
);
};
layerId = "5C20EF92-B63D-42A8-8878-93C2863E0093";
shapes = (
{
closed = 1;
nodes = (
(695,640,o),
(789,552,o),
(912,552,cs),
(1041,552,o),
(1133,636,o),
(1132,748,cs),
(1131,864,o),
(1045,944,o),
(912,944,cs),
(789,944,o),
(697,864,o),
(696,748,cs)
);
},
{
closed = 1;
nodes = (
(1253,-28,o),
(1549,184,o),
(1544,576,c),
(1060,576,l),
(1061,440,o),
(993,388,o),
(868,388,cs),
(661,388,o),
(660,580,o),
(660,752,cs),
(660,776,ls),
(660,944,o),
(661,1144,o),
(864,1144,cs),
(1005,1144,o),
(1061,1048,o),
(1060,916,c),
(1544,916,l),
(1549,1344,o),
(1269,1556,o),
(876,1556,cs),
(393,1556,o),
(140,1236,o),
(140,776,cs),
(140,752,ls),
(140,288,o),
(393,-28,o),
(880,-28,cs)
);
}
);
width = 1684;
}
);
unicode = 892;
userData = {
interface.gridadjust.original = "{'width': 1480, 'leftMargin': 127, 'rightMargin': 88}";
"interface.width-adjustments" = (
-16
);
};
}
{
glyphname = omega;
kernLeft = omegagreek;
kernRight = omegagreek;
layers = (
{
anchors = (
{
name = bottom;
pos = (936,0);
},
{
name = top;
pos = (936,1792);
}
);
background = {
shapes = (
{
closed = 1;
nodes = (
(1756,1286,o),
(1812,1052,o),
(1816,778,cs),
(1817,345,o),
(1636,36,o),
(1382,36,cs),
(1152,36,o),
(1004,263,o),
(1004,616,cs),
(1004,944,l),
(940,944,l),
(940,696,ls),
(940,230,o),
(1098,-28,o),
(1382,-28,cs),
(1688,-28,o),
(1881,285,o),
(1880,780,cs),
(1881,1038,o),
(1824,1285,o),
(1716,1488,c),
(1646,1488,l)
);
},
{
closed = 1;
nodes = (
(122,1289,o),
(64,1040,o),
(64,780,cs),
(64,287,o),
(255,-23,o),
(562,-28,cs),
(844,-32,o),
(1004,230,o),
(1004,696,cs),
(1004,944,l),
(940,944,l),
(940,616,ls),
(940,264,o),
(791,36,o),
(562,36,cs),
(306,36,o),
(126,344,o),
(128,780,cs),
(129,1044,o),
(186,1280,o),
(298,1488,c),
(228,1488,l)
);
}
);
};
layerId = "B1F27B51-9973-4381-9301-4FE46FE1CA59";
shapes = (
{
closed = 1;
nodes = (
(97,1332,o),
(32,1080,o),
(32,780,cs),
(32,287,o),
(223,-28,o),
(532,-28,cs),
(812,-28,o),
(972,230,o),
(972,696,cs),
(972,992,l),
(908,992,l),
(908,616,ls),
(908,264,o),
(759,36,o),
(530,36,cs),
(274,36,o),
(95,323,o),
(96,786,cs),
(97,1063,o),
(160,1322,o),
(296,1536,c),
(226,1536,l)
);
},
{
closed = 1;
nodes = (
(1720,1322,o),
(1783,1063,o),
(1784,786,cs),
(1786,323,o),
(1606,36,o),
(1350,36,cs),
(1121,36,o),
(972,264,o),
(972,616,cs),
(972,992,l),
(908,992,l),
(908,696,ls),
(908,230,o),
(1068,-28,o),
(1348,-28,cs),
(1657,-28,o),
(1848,287,o),
(1848,780,cs),
(1848,1080,o),
(1783,1332,o),
(1654,1536,c),
(1584,1536,l)
);
}
);
width = 1880;
},
{
anchors = (
{
name = bottom;
pos = (1118,0);
},
{
name = top;
pos = (1118,1792);
}
);
layerId = "C698F293-3EC0-4A5A-A3A0-0FDB1F5CF265";
shapes = (
{
closed = 1;
nodes = (
(196,1306,o),
(126,1057,o),
(126,780,cs),
(126,270,o),
(328,-28,o),
(674,-28,cs),
(992,-28,o),
(1170,214,o),
(1170,648,c),
(1170,1108,l),
(982,1108,l),
(982,648,ls),
(982,351,o),
(868,192,o),
(694,192,cs),
(495,192,o),
(374,400,o),
(374,760,cs),
(374,1006,o),
(414,1205,o),
(608,1536,c),
(340,1536,l)
);
},
{
closed = 1;
nodes = (
(1826,1205,o),
(1866,1006,o),
(1866,760,cs),
(1866,400,o),
(1745,192,o),
(1546,192,cs),
(1372,192,o),
(1258,351,o),
(1258,648,cs),
(1258,1108,l),
(1070,1108,l),
(1070,648,l),
(1070,214,o),
(1248,-28,o),
(1566,-28,cs),
(1912,-28,o),
(2114,270,o),
(2114,780,cs),
(2114,1057,o),
(2044,1306,o),
(1900,1536,c),
(1632,1536,l)
);
}
);
width = 2240;
},
{
anchors = (
{
name = bottom;
pos = (1434,0);
},
{
name = top;
pos = (1432,1792);
}
);
background = {
shapes = (
{
closed = 1;
nodes = (
(1979,1252,o),
(2043,1024,o),
(2056,780,c),
(2055,592,o),
(2015,388,o),
(1888,388,cs),
(1791,388,o),
(1711,472,o),
(1712,704,c),
(1712,1256,l),
(1320,1256,l),
(1320,772,l),
(1319,256,o),
(1559,-28,o),
(1900,-28,cs),
(2407,-28,o),
(2571,304,o),
(2572,780,c),
(2571,1076,o),
(2463,1320,o),
(2344,1488,c),
(1864,1488,l)
);
},
{
closed = 1;
nodes = (
(415,1328,o),
(299,1088,o),
(300,780,cs),
(299,308,o),
(455,-28,o),
(968,-28,cs),
(1307,-28,o),
(1547,256,o),
(1548,772,cs),
(1548,1256,l),
(1156,1256,l),
(1156,704,ls),
(1155,472,o),
(1075,388,o),
(984,388,cs),
(847,388,o),
(811,600,o),
(812,780,c),
(823,1024,o),
(887,1248,o),
(1004,1488,c),
(532,1488,l)
);
}
);
};
layerId = "5C20EF92-B63D-42A8-8878-93C2863E0093";
shapes = (
{
closed = 1;
nodes = (
(392,1315,o),
(299,1037,o),
(296,750,cs),
(290,216,o),
(552,-28,o),
(948,-28,cs),
(1363,-28,o),
(1548,304,o),
(1548,774,cs),
(1548,1304,l),
(1156,1304,l),
(1156,704,ls),
(1156,500,o),
(1086,388,o),
(986,388,cs),
(870,388,o),
(812,536,o),
(812,766,cs),
(812,988,o),
(891,1254,o),
(1028,1536,c),
(548,1536,l)
);
},
{
closed = 1;
nodes = (
(1977,1254,o),
(2056,988,o),
(2056,766,cs),
(2056,536,o),
(1998,388,o),
(1882,388,cs),
(1782,388,o),
(1712,500,o),
(1712,704,cs),
(1712,1304,l),
(1320,1304,l),
(1320,774,ls),
(1320,304,o),
(1505,-28,o),
(1920,-28,cs),
(2316,-28,o),
(2577,216,o),
(2572,750,cs),
(2569,1037,o),
(2476,1315,o),
(2320,1536,c),
(1840,1536,l)
);
}
);
width = 2868;
}
);
unicode = 969;
userData = {
interface.gridadjust.original = "{'width': 2320, 'leftMargin': 164, 'rightMargin': 169}";
"interface.width-adjustments" = (
-16
);
};
}
{
glyphname = uni03D8;
layers = (
{
layerId = "B1F27B51-9973-4381-9301-4FE46FE1CA59";
shapes = (
{
closed = 1;
nodes = (
(982,18,l),
(982,-572,l),
(1046,-572,l),
(1046,18,l,{
name = hr00;
})
);
},
{
closed = 1;
nodes = (
(1860,1650,o),
(1516,2076,o),
(1012,2076,cs),
(507,2076,o),
(164,1649,o),
(164,1024,cs),
(164,400,o),
(506,-28,o),
(1012,-28,cs),
(1516,-28,o),
(1860,398,o),
(1860,1024,cs)
);
},
{
closed = 1;
nodes = (
(1797,436,o),
(1478,36,o),
(1012,36,cs),
(541,36,o),
(228,440,o),
(228,1024,cs),
(228,1616,o),
(548,2012,o),
(1012,2012,cs),
(1478,2012,o),
(1795,1612,o),
(1796,1024,cs)
);
}
);
width = 2024;
},
{
guides = (
{
angle = 90;
pos = (1004,128);
}
);
layerId = "C698F293-3EC0-4A5A-A3A0-0FDB1F5CF265";
shapes = (
{
closed = 1;
nodes = (
(926,56,l),
(926,-572,l),
(1174,-572,l),
(1174,56,l,{
name = hr00;
})
);
},
{
closed = 1;
nodes = (
(1954,1672,o),
(1574,2076,o),
(1050,2076,cs),
(526,2076,o),
(146,1672,o),
(146,1024,c),
(146,376,o),
(526,-28,o),
(1050,-28,cs),
(1574,-28,o),
(1954,376,o),
(1954,1024,c)
);
},
{
closed = 1;
nodes = (
(1714,492,o),
(1422,204,o),
(1050,204,cs),
(678,204,o),
(386,492,o),
(386,1024,c),
(386,1556,o),
(678,1844,o),
(1050,1844,cs),
(1422,1844,o),
(1714,1556,o),
(1714,1024,c)
);
}
);
width = 2100;
},
{
guides = (
{
angle = 90;
pos = (888,1632);
}
);
layerId = "5C20EF92-B63D-42A8-8878-93C2863E0093";
shapes = (
{
closed = 1;
nodes = (
(796,56,l),
(796,-572,l),
(1352,-572,l),
(1352,56,l,{
name = hr00;
})
);
},
{
closed = 1;
nodes = (
(2011,1704,o),
(1599,2076,o),
(1072,2076,cs),
(539,2076,o),
(123,1704,o),
(124,1020,c),
(123,340,o),
(539,-28,o),
(1072,-28,cs),
(1599,-28,o),
(2011,336,o),
(2012,1020,c)
);
},
{
closed = 1;
nodes = (
(1447,588,o),
(1299,460,o),
(1072,460,cs),
(847,460,o),
(687,588,o),
(688,1020,c),
(687,1444,o),
(843,1588,o),
(1072,1588,cs),
(1299,1588,o),
(1447,1448,o),
(1448,1020,c)
);
}
);
width = 2136;
}
);
unicode = 984;
userData = {
com.typemytype.robofont.guideline.magnetic.6gQqaROkV3 = 5;
interface.gridadjust.original = "{'width': 1944, 'leftMargin': 256, 'rightMargin': 152}";
"interface.width-adjustments" = (
-16
);
};
}
{
glyphname = afii10053;
kernLeft = C;
kernRight = Ecyrillic;
layers = (
{
layerId = "B1F27B51-9973-4381-9301-4FE46FE1CA59";
shapes = (
{
closed = 1;
nodes = (
(1271,-28,o),
(1515,227,o),
(1574,608,c),
(1510,608,l),
(1443,238,o),
(1223,37,o),
(894,36,cs),
(454,35,o),
(236,394,o),
(236,880,cs),
(236,1172,ls),
(236,1654,o),
(452,2012,o),
(894,2012,cs),
(1224,2012,o),
(1442,1810,o),
(1510,1440,c),
(1574,1440,l),
(1514,1823,o),
(1274,2076,o),
(890,2076,cs),
(422,2076,o),
(172,1696,o),
(172,1176,cs),
(172,872,ls),
(172,355,o),
(422,-28,o),
(890,-28,cs)
);
},
{
closed = 1;
nodes = (
(1210,992,l),
(1210,1056,l),
(206,1056,l),
(206,992,l)
);
}
);
width = 1742;
},
{
layerId = "C698F293-3EC0-4A5A-A3A0-0FDB1F5CF265";
shapes = (
{
closed = 1;
nodes = (
(1364,-28,o),
(1673,225,o),
(1698,640,c),
(1438,640,l),
(1415,367,o),
(1189,200,o),
(934,200,cs),
(618,200,o),
(394,492,o),
(394,904,cs),
(394,1096,ls),
(394,1534,o),
(629,1844,o),
(962,1844,cs),
(1203,1844,o),
(1418,1676,o),
(1438,1400,c),
(1698,1400,l),
(1676,1820,o),
(1377,2076,o),
(962,2076,cs),
(484,2076,o),
(146,1670,o),
(146,1096,c),
(146,904,l),
(146,358,o),
(472,-28,o),
(934,-28,cs)
);
},
{
closed = 1;
nodes = (
(1206,896,l),
(1206,1124,l),
(354,1124,l),
(354,896,l)
);
}
);
width = 1828;
},
{
layerId = "5C20EF92-B63D-42A8-8878-93C2863E0093";
shapes = (
{
closed = 1;
nodes = (
(1554,-28,o),
(1886,245,o),
(1904,692,c),
(1368,692,l),
(1364,508,o),
(1235,396,o),
(1028,396,cs),
(799,396,o),
(660,579,o),
(660,880,cs),
(660,1120,ls),
(660,1446,o),
(793,1644,o),
(1012,1644,cs),
(1231,1644,o),
(1367,1526,o),
(1372,1332,c),
(1904,1332,l),
(1865,1794,o),
(1527,2076,o),
(1012,2076,cs),
(459,2076,o),
(123,1682,o),
(124,1036,c),
(124,960,l),
(123,346,o),
(465,-28,o),
(1028,-28,cs)
);
},
{
closed = 1;
nodes = (
(1184,784,l),
(1184,1212,l),
(336,1212,l),
(336,784,l)
);
}
);
width = 2024;
}
);
metricLeft = O;
metricRight = C;
unicode = 1028;
userData = {
interface.gridadjust.original = "{'width': 1907, 'leftMargin': 166, 'rightMargin': 187}";
"interface.width-adjustments" = (
-16
);
};
}
{
glyphname = afii10059;
kernLeft = B;
kernRight = b;
layers = (
{
layerId = "B1F27B51-9973-4381-9301-4FE46FE1CA59";
shapes = (
{
closed = 1;
nodes = (
(352,0,l),
(352,1004,l),
(1572,1004,l),
(1572,1068,l),
(352,1068,l),
(352,2048,l),
(288,2048,l),
(288,0,l)
);
},
{
alignment = -1;
pos = (1220,0);
ref = afii10046;
}
);
width = 2996;
},
{
layerId = "C698F293-3EC0-4A5A-A3A0-0FDB1F5CF265";
shapes = (
{
closed = 1;
nodes = (
(474,0,l),
(474,968,l),
(1686,968,l),
(1686,1188,l),
(474,1188,l),
(474,2048,l),
(226,2048,l),
(226,0,l)
);
},
{
pos = (1340,0);
ref = afii10046;
}
);
width = 3136;
},
{
layerId = "5C20EF92-B63D-42A8-8878-93C2863E0093";
shapes = (
{
closed = 1;
nodes = (
(688,0,l),
(688,936,l),
(1624,936,l),
(1624,1360,l),
(688,1360,l),
(688,2048,l),
(132,2048,l),
(132,0,l)
);
},
{
pos = (1280,0);
ref = afii10046;
}
);
width = 3128;
}
);
metricLeft = H;
metricRight = b;
unicode = 1034;
userData = {
interface.gridadjust.original = "{'width': 3043, 'leftMargin': 242, 'rightMargin': 113}";
"interface.width-adjustments" = (
-16
);
};
}
{
glyphname = afii10145;
kernLeft = B;
layers = (
{
layerId = "B1F27B51-9973-4381-9301-4FE46FE1CA59";
shapes = (
{
closed = 1;
nodes = (
(1652,0,l),
(1652,2048,l),
(1588,2048,l),
(1588,64,l),
(352,64,l),
(352,2048,l),
(288,2048,l),
(288,0,l)
);
},
{
closed = 1;
nodes = (
(938,48,l),
(938,-496,l),
(1002,-496,l),
(1002,48,l)
);
}
);
width = 1940;
},
{
layerId = "C698F293-3EC0-4A5A-A3A0-0FDB1F5CF265";
shapes = (
{
closed = 1;
nodes = (
(1754,0,l),
(1754,2048,l),
(1506,2048,l),
(1506,228,l),
(474,228,l),
(474,2048,l),
(226,2048,l),
(226,0,l)
);
},
{
closed = 1;
nodes = (
(866,200,l),
(866,-496,l),
(1114,-496,l),
(1114,200,l)
);
}
);
width = 1980;
},
{
layerId = "5C20EF92-B63D-42A8-8878-93C2863E0093";
shapes = (
{
closed = 1;
nodes = (
(1928,0,l),
(1928,2048,l),
(1384,2048,l),
(1384,428,l),
(668,428,l),
(668,2048,l),
(132,2048,l),
(132,0,l)
);
},
{
closed = 1;
nodes = (
(760,320,l),
(760,-496,l),
(1300,-496,l),
(1300,320,l)
);
}
);
width = 2060;
}
);
metricLeft = H;
metricRight = H;
unicode = 1039;
userData = {
interface.gridadjust.original = "{'width': 2013.0, 'leftMargin': 239, 'rightMargin': 246.0}";
"interface.width-adjustments" = (
-16
);
};
}
{
glyphname = afii10042;
kernLeft = B;
kernRight = H;
layers = (
{
layerId = "B1F27B51-9973-4381-9301-4FE46FE1CA59";
shapes = (
{
closed = 1;
nodes = (
(288,0,l),
(2212,0,l),
(2212,2048,l),
(2148,2048,l),
(2148,64,l),
(1282,64,l),
(1282,2048,l),
(1218,2048,l),
(1218,64,l),
(352,64,l),
(352,2048,l),
(288,2048,l)
);
}
);
width = 2500;
},
{
layerId = "C698F293-3EC0-4A5A-A3A0-0FDB1F5CF265";
shapes = (
{
closed = 1;
nodes = (
(226,0,l),
(2410,0,l),
(2410,2048,l),
(2162,2048,l),
(2162,228,l),
(1442,228,l),
(1442,2048,l),
(1194,2048,l),
(1194,228,l),
(474,228,l),
(474,2048,l),
(226,2048,l)
);
}
);
width = 2636;
},
{
layerId = "5C20EF92-B63D-42A8-8878-93C2863E0093";
shapes = (
{
closed = 1;
nodes = (
(132,0,l),
(2732,0,l),
(2732,2048,l),
(2196,2048,l),
(2196,428,l),
(1708,428,l),
(1708,2048,l),
(1172,2048,l),
(1172,428,l),
(672,428,l),
(672,2048,l),
(132,2048,l)
);
}
);
width = 2864;
}
);
metricLeft = H;
metricRight = H;
unicode = 1064;
userData = {
interface.gridadjust.original = "{'width': 2659, 'leftMargin': 241, 'rightMargin': 239}";
"interface.width-adjustments" = (
-16
);
};
}
{
glyphname = afii10044;
kernLeft = T;
kernRight = b;
layers = (
{
layerId = "B1F27B51-9973-4381-9301-4FE46FE1CA59";
shapes = (
{
closed = 1;
nodes = (
(732,1984,l),
(732,2048,l),
(140,2048,l),
(140,1984,l)
);
},
{
alignment = -1;
pos = (436,0);
ref = afii10046;
}
);
width = 2212;
},
{
layerId = "C698F293-3EC0-4A5A-A3A0-0FDB1F5CF265";
shapes = (
{
closed = 1;
nodes = (
(718,1828,l),
(718,2048,l),
(114,2048,l),
(114,1828,l)
);
},
{
pos = (448,0);
ref = afii10046;
}
);
width = 2244;
},
{
layerId = "5C20EF92-B63D-42A8-8878-93C2863E0093";
shapes = (
{
closed = 1;
nodes = (
(900,1632,l),
(900,2048,l),
(76,2048,l),
(76,1632,l)
);
},
{
pos = (472,0);
ref = afii10046;
}
);
width = 2320;
}
);
metricLeft = T;
metricRight = b;
unicode = 1066;
userData = {
interface.gridadjust.original = "{'width': 2127, 'leftMargin': 32, 'rightMargin': 156}";
"interface.width-adjustments" = (
-16
);
};
}
{
glyphname = gecyrillic;
kernLeft = m;
kernRight = T.sc;
layers = (
{
anchors = (
{
name = cross;
pos = (272,768);
},
{
name = cyrtic;
pos = (332,-8);
},
{
name = top;
pos = (648,1792);
}
);
layerId = "B1F27B51-9973-4381-9301-4FE46FE1CA59";
shapes = (
{
closed = 1;
nodes = (
(240,1536,l),
(240,0,l),
(304,0,l),
(304,1472,l),
(1084,1472,l),
(1084,1536,l)
);
}
);
width = 1218;
},
{
anchors = (
{
name = cross;
pos = (314,768);
},
{
name = cyrtic;
pos = (542,80);
},
{
name = top;
pos = (662,1792);
}
);
layerId = "C698F293-3EC0-4A5A-A3A0-0FDB1F5CF265";
shapes = (
{
closed = 1;
nodes = (
(194,1536,l),
(194,0,l),
(430,0,l),
(430,1316,l),
(1142,1316,l),
(1142,1536,l)
);
}
);
width = 1248;
},
{
anchors = (
{
name = cross;
pos = (408,856);
},
{
name = cyrtic;
pos = (928,224);
},
{
name = top;
pos = (704,1792);
}
);
layerId = "5C20EF92-B63D-42A8-8878-93C2863E0093";
shapes = (
{
closed = 1;
nodes = (
(140,1536,l),
(140,0,l),
(672,0,l),
(672,1124,l),
(1260,1124,l),
(1260,1536,l)
);
}
);
width = 1324;
}
);
metricLeft = m;
metricRight = tecyrillic;
unicode = 1075;
userData = {
interface.gridadjust.original = "{'width': 1181, 'leftMargin': 210, 'rightMargin': 23}";
"interface.width-adjustments" = (
-16
);
};
}
{
glyphname = yusbigcyrillic;
layers = (
{
layerId = "B1F27B51-9973-4381-9301-4FE46FE1CA59";
shapes = (
{
closed = 1;
nodes = (
(220,128,ls),
(220,514,o),
(365,676,o),
(712,676,cs),
(1144,676,ls),
(1490,676,o),
(1632,516,o),
(1632,128,cs),
(1632,0,l),
(1696,0,l),
(1696,128,ls),
(1696,550,o),
(1525,740,o),
(1144,740,cs),
(712,740,ls),
(329,740,o),
(156,551,o),
(156,128,cs),
(156,0,l),
(220,0,l)
);
},
{
closed = 1;
nodes = (
(424,1536,l),
(424,1472,l),
(1424,1472,l),
(1424,1536,l)
);
},
{
closed = 1;
nodes = (
(934,664,l),
(948,664,l),
(1486,1536,l),
(1412,1536,l),
(898,704,l)
);
},
{
closed = 1;
nodes = (
(370,1536,l),
(908,664,l),
(922,664,l),
(958,704,l),
(444,1536,l)
);
},
{
closed = 1;
nodes = (
(894,740,l),
(894,0,l),
(958,0,l),
(958,740,l)
);
}
);
width = 1850;
},
{
layerId = "C698F293-3EC0-4A5A-A3A0-0FDB1F5CF265";
shapes = (
{
closed = 1;
nodes = (
(430,220,ls),
(430,528,o),
(542,612,o),
(774,612,cs),
(1218,612,ls),
(1446,612,o),
(1558,528,o),
(1558,220,cs),
(1558,0,l),
(1834,0,l),
(1834,220,ls),
(1834,668,o),
(1602,832,o),
(1218,832,cs),
(774,832,ls),
(386,832,o),
(154,668,o),
(154,220,cs),
(154,0,l),
(430,0,l)
);
},
{
closed = 1;
nodes = (
(558,1536,l),
(558,1316,l),
(1498,1316,l),
(1498,1536,l)
);
},
{
closed = 1;
nodes = (
(962,572,l),
(1126,572,l),
(1694,1536,l),
(1384,1536,l),
(918,676,l)
);
},
{
closed = 1;
nodes = (
(310,1536,l),
(882,572,l),
(1046,572,l),
(1094,668,l),
(620,1536,l)
);
},
{
closed = 1;
nodes = (
(862,800,l),
(862,0,l),
(1138,0,l),
(1138,800,l)
);
}
);
width = 1988;
},
{
background = {
shapes = (
{
closed = 1;
nodes = (
(676,276,ls),
(674,436,o),
(754,472,o),
(884,472,cs),
(1348,472,ls),
(1502,472,o),
(1554,412,o),
(1556,276,cs),
(1556,0,l),
(2072,0,l),
(2072,276,ls),
(2070,696,o),
(1798,856,o),
(1348,856,cs),
(884,856,ls),
(426,856,o),
(154,696,o),
(156,276,cs),
(156,0,l),
(676,0,l)
);
},
{
closed = 1;
nodes = (
(584,1488,l),
(584,1188,l),
(1720,1188,l),
(1720,1488,l)
);
},
{
closed = 1;
nodes = (
(1088,488,l),
(1352,488,l),
(1952,1488,l),
(1392,1488,l),
(1040,700,l)
);
},
{
closed = 1;
nodes = (
(304,1488,l),
(904,488,l),
(1168,488,l),
(1224,692,l),
(864,1488,l)
);
},
{
closed = 1;
nodes = (
(868,636,l),
(868,0,l),
(1380,0,l),
(1380,636,l)
);
}
);
};
layerId = "5C20EF92-B63D-42A8-8878-93C2863E0093";
shapes = (
{
closed = 1;
nodes = (
(676,276,ls),
(674,436,o),
(754,472,o),
(884,472,cs),
(1348,472,ls),
(1502,472,o),
(1554,412,o),
(1556,276,cs),
(1556,0,l),
(2072,0,l),
(2072,276,ls),
(2070,696,o),
(1798,856,o),
(1348,856,cs),
(884,856,ls),
(426,856,o),
(154,696,o),
(156,276,cs),
(156,0,l),
(676,0,l)
);
},
{
closed = 1;
nodes = (
(584,1536,l),
(584,1236,l),
(1720,1236,l),
(1720,1536,l)
);
},
{
closed = 1;
nodes = (
(1088,488,l),
(1352,488,l),
(1980,1536,l),
(1414,1536,l),
(1040,700,l)
);
},
{
closed = 1;
nodes = (
(276,1536,l),
(904,488,l),
(1168,488,l),
(1224,692,l),
(864,1536,l)
);
},
{
closed = 1;
nodes = (
(868,636,l),
(868,0,l),
(1380,0,l),
(1380,636,l)
);
}
);
width = 2228;
}
);
unicode = 1131;
userData = {
interface.gridadjust.original = "{'width': 2089, 'leftMargin': 205, 'rightMargin': 205}";
"interface.width-adjustments" = (
-16
);
};
}
{
glyphname = Koppacyrillic;
layers = (
{
background = {
shapes = (
{
closed = 1;
nodes = (
(434,36,o),
(168,303,o),
(168,808,cs),
(168,1200,ls),
(168,1699,o),
(436,1966,o),
(854,1968,cs),
(1275,1970,o),
(1495,1710,o),
(1496,1388,c),
(1560,1388,l),
(1560,1750,o),
(1297,2032,o),
(856,2032,cs),
(408,2032,o),
(104,1742,o),
(104,1200,cs),
(104,808,ls),
(104,260,o),
(408,-28,o),
(844,-28,c),
(844,36,l)
);
},
{
closed = 1;
nodes = (
(800,36,l),
(800,-564,l),
(864,-564,l),
(864,36,l)
);
}
);
};
layerId = "B1F27B51-9973-4381-9301-4FE46FE1CA59";
shapes = (
{
closed = 1;
nodes = (
(402,36,o),
(136,303,o),
(136,808,cs),
(136,1244,ls),
(136,1743,o),
(404,2010,o),
(826,2012,cs),
(1243,2014,o),
(1463,1754,o),
(1464,1432,c),
(1528,1432,l),
(1528,1794,o),
(1265,2076,o),
(824,2076,cs),
(376,2076,o),
(72,1786,o),
(72,1244,cs),
(72,808,ls),
(72,260,o),
(376,-28,o),
(812,-28,c),
(812,36,l)
);
},
{
closed = 1;
nodes = (
(768,36,l),
(768,-564,l),
(832,-564,l),
(832,36,l)
);
}
);
width = 1602;
},
{
background = {
shapes = (
{
closed = 1;
nodes = (
(596,200,o),
(416,476,o),
(416,820,cs),
(416,1184,ls),
(416,1524,o),
(596,1800,o),
(900,1800,cs),
(1200,1800,o),
(1360,1632,o),
(1360,1360,c),
(1644,1360,l),
(1644,1772,o),
(1356,2032,o),
(900,2032,cs),
(444,2032,o),
(132,1668,o),
(132,1184,c),
(132,820,l),
(132,332,o),
(444,-28,o),
(900,-28,c),
(900,200,l)
);
},
{
closed = 1;
nodes = (
(784,200,l),
(784,-528,l),
(1068,-528,l),
(1068,200,l)
);
}
);
};
layerId = "C698F293-3EC0-4A5A-A3A0-0FDB1F5CF265";
shapes = (
{
closed = 1;
nodes = (
(592,200,o),
(394,453,o),
(394,820,cs),
(394,1228,ls),
(394,1609,o),
(583,1844,o),
(890,1844,cs),
(1160,1844,o),
(1338,1670,o),
(1338,1404,c),
(1622,1404,l),
(1622,1802,o),
(1325,2076,o),
(894,2076,cs),
(422,2076,o),
(110,1738,o),
(110,1228,c),
(110,820,l),
(110,324,o),
(429,-28,o),
(878,-28,c),
(878,200,l)
);
},
{
closed = 1;
nodes = (
(762,200,l),
(762,-528,l),
(1046,-528,l),
(1046,200,l)
);
}
);
width = 1732;
},
{
background = {
shapes = (
{
closed = 1;
nodes = (
(792,400,o),
(712,544,o),
(712,776,cs),
(712,1228,ls),
(712,1460,o),
(792,1604,o),
(992,1604,cs),
(1192,1604,o),
(1248,1548,o),
(1248,1316,c),
(1784,1316,l),
(1784,1808,o),
(1504,2032,o),
(992,2032,cs),
(488,2032,o),
(180,1712,o),
(180,1224,c),
(180,776,l),
(180,292,o),
(484,-28,o),
(992,-28,c),
(992,400,l)
);
},
{
closed = 1;
nodes = (
(820,400,l),
(820,-468,l),
(1352,-468,l),
(1352,400,l)
);
}
);
};
guides = (
{
pos = (-132,1240);
},
{
pos = (-132,764);
},
{
angle = 90;
pos = (1244,0);
}
);
layerId = "5C20EF92-B63D-42A8-8878-93C2863E0093";
shapes = (
{
closed = 1;
nodes = (
(792,400,o),
(712,544,o),
(712,776,cs),
(712,1272,ls),
(712,1504,o),
(746,1648,o),
(992,1648,cs),
(1146,1648,o),
(1248,1592,o),
(1248,1360,c),
(1784,1360,l),
(1784,1852,o),
(1464,2076,o),
(992,2076,cs),
(448,2076,o),
(180,1756,o),
(180,1268,c),
(180,776,l),
(180,292,o),
(484,-28,o),
(992,-28,c),
(992,400,l)
);
},
{
closed = 1;
nodes = (
(820,400,l),
(820,-468,l),
(1352,-468,l),
(1352,400,l)
);
}
);
width = 1960;
}
);
unicode = 1152;
userData = {
interface.gridadjust.original = "{'width': 1840, 'leftMargin': 158, 'rightMargin': 168}";
"interface.width-adjustments" = (
-16
);
};
}
{
color = (250,227,227,1);
glyphname = titlocyrilliccmb;
layers = (
{
layerId = "B1F27B51-9973-4381-9301-4FE46FE1CA59";
shapes = (
{
closed = 1;
nodes = (
(-454,2062,l),
(-516,2062,l),
(-518,1914,l),
(-1072,1914,l),
(-1072,1678,l),
(-1008,1678,l),
(-1008,1850,l),
(-454,1850,l)
);
}
);
width = 0;
},
{
layerId = "C698F293-3EC0-4A5A-A3A0-0FDB1F5CF265";
shapes = (
{
closed = 1;
nodes = (
(-328,2108,l),
(-568,2108,l),
(-568,1960,l),
(-1320,1960,l),
(-1320,1632,l),
(-1076,1632,l),
(-1076,1804,l),
(-328,1804,l)
);
}
);
width = 0;
},
{
layerId = "5C20EF92-B63D-42A8-8878-93C2863E0093";
shapes = (
{
closed = 1;
nodes = (
(-368,2108,l),
(-624,2108,l),
(-620,1960,l),
(-1408,1960,l),
(-1412,1632,l),
(-1156,1632,l),
(-1156,1804,l),
(-368,1804,l)
);
}
);
width = 0;
}
);
unicode = 1155;
}
{
color = (250,227,227,1);
glyphname = dasiapneumatacyrilliccmb;
layers = (
{
layerId = "B1F27B51-9973-4381-9301-4FE46FE1CA59";
shapes = (
{
closed = 1;
nodes = (
(-718,1902,l),
(-776,2016,l),
(-774,2158,l),
(-838,2158,l),
(-840,2022,l),
(-750,1874,l)
);
}
);
width = 0;
},
{
layerId = "C698F293-3EC0-4A5A-A3A0-0FDB1F5CF265";
shapes = (
{
closed = 1;
nodes = (
(-612,1880,l),
(-696,2040,l),
(-692,2232,l),
(-952,2232,l),
(-952,2064,l),
(-724,1788,l)
);
}
);
width = 0;
},
{
layerId = "5C20EF92-B63D-42A8-8878-93C2863E0093";
shapes = (
{
closed = 1;
nodes = (
(-564,1900,l),
(-648,2040,l),
(-644,2288,l),
(-920,2288,l),
(-920,2064,l),
(-680,1804,l)
);
}
);
width = 0;
}
);
unicode = 1157;
}
{
glyphname = uni048D;
layers = (
{
layerId = "B1F27B51-9973-4381-9301-4FE46FE1CA59";
shapes = (
{
closed = 1;
nodes = (
(-48,1944,l),
(-48,1880,l),
(916,1880,l),
(916,1944,l)
);
},
{
closed = 1;
nodes = (
(304,804,l),
(772,804,ls),
(1050,804,o),
(1220,698,o),
(1220,436,cs),
(1220,168,o),
(1050,64,o),
(772,64,cs),
(332,64,l),
(332,2380,l),
(268,2380,l),
(268,0,l),
(772,0,ls),
(1088,0,o),
(1284,132,o),
(1284,436,cs),
(1284,737,o),
(1089,868,o),
(772,868,cs),
(304,868,l)
);
}
);
width = 1432;
},
{
layerId = "C698F293-3EC0-4A5A-A3A0-0FDB1F5CF265";
shapes = (
{
closed = 1;
nodes = (
(6,2004,l),
(6,1784,l),
(986,1784,l),
(986,2004,l)
);
},
{
closed = 1;
nodes = (
(478,760,l),
(918,760,ls),
(1105,760,o),
(1238,646,o),
(1238,484,cs),
(1238,329,o),
(1105,220,o),
(918,220,cs),
(510,220,l),
(510,2304,l),
(274,2304,l),
(274,0,l),
(918,0,ls),
(1278,0,o),
(1474,220,o),
(1474,496,cs),
(1474,776,o),
(1278,980,o),
(918,980,cs),
(478,980,l)
);
}
);
width = 1596;
},
{
layerId = "5C20EF92-B63D-42A8-8878-93C2863E0093";
shapes = (
{
closed = 1;
nodes = (
(100,2004,l),
(100,1724,l),
(1108,1724,l),
(1108,2004,l)
);
},
{
closed = 1;
nodes = (
(600,708,l),
(1072,708,l),
(1185,708,o),
(1266,645,o),
(1268,556,c),
(1266,472,o),
(1185,412,o),
(1072,412,c),
(812,412,l),
(812,2180,l),
(292,2180,l),
(292,0,l),
(1072,0,l),
(1510,0,o),
(1778,209,o),
(1780,552,c),
(1778,905,o),
(1510,1120,o),
(1072,1120,c),
(600,1120,l)
);
}
);
width = 1872;
}
);
metricRight = b;
unicode = 1165;
userData = {
interface.gridadjust.original = "{'width': 1532, 'leftMargin': -52, 'rightMargin': 121}";
"interface.width-adjustments" = (
-16
);
};
}
{
glyphname = uni048E;
kernLeft = B;
kernRight = P;
layers = (
{
layerId = "B1F27B51-9973-4381-9301-4FE46FE1CA59";
shapes = (
{
closed = 1;
nodes = (
(1054,1232,l),
(1378,738,l),
(1432,774,l),
(1108,1266,l)
);
},
{
alignment = -1;
pos = (-12,0);
ref = P;
}
);
width = 1650;
},
{
layerId = "C698F293-3EC0-4A5A-A3A0-0FDB1F5CF265";
shapes = (
{
closed = 1;
nodes = (
(930,1200,l),
(1346,560,l),
(1530,680,l),
(1114,1316,l)
);
},
{
ref = P;
}
);
width = 1744;
},
{
layerId = "5C20EF92-B63D-42A8-8878-93C2863E0093";
shapes = (
{
closed = 1;
nodes = (
(804,1248,l),
(1372,368,l),
(1552,484,l),
(984,1364,l)
);
},
{
pos = (16,0);
ref = P;
}
);
width = 1912;
}
);
unicode = 1166;
userData = {
interface.gridadjust.original = "{'width': 1801, 'leftMargin': 256, 'rightMargin': 73}";
"interface.width-adjustments" = (
-16
);
};
}
